<svg width="42" height="42" viewBox="0 0 42 42" fill="none" xmlns="http://www.w3.org/2000/svg">
<path fill-rule="evenodd" clip-rule="evenodd" d="M2.6 3.79957V16.6004C2.6 17.2647 3.13569 17.8 3.79957 17.8H16.6004C17.2647 17.8 17.8 17.2643 17.8 16.6004V3.79957C17.8 3.13527 17.2643 2.6 16.6004 2.6H3.79957C3.13527 2.6 2.6 3.13569 2.6 3.79957ZM1 3.79957C1 2.25341 2.25024 1 3.79957 1H16.6004C18.1466 1 19.4 2.25024 19.4 3.79957V16.6004C19.4 18.1466 18.1498 19.4 16.6004 19.4H3.79957C2.25341 19.4 1 18.1498 1 16.6004V3.79957Z" fill="#4D0D9F" stroke="#4D0D9F" stroke-width="0.6"/>
<path fill-rule="evenodd" clip-rule="evenodd" d="M2.6 25.3996V38.2004C2.6 38.8647 3.13569 39.4 3.79957 39.4H16.6004C17.2647 39.4 17.8 38.8643 17.8 38.2004V25.3996C17.8 24.7353 17.2643 24.2 16.6004 24.2H3.79957C3.13527 24.2 2.6 24.7357 2.6 25.3996ZM1 25.3996C1 23.8534 2.25024 22.6 3.79957 22.6H16.6004C18.1466 22.6 19.4 23.8502 19.4 25.3996V38.2004C19.4 39.7466 18.1498 41 16.6004 41H3.79957C2.25341 41 1 39.7498 1 38.2004V25.3996Z" fill="#4D0D9F" stroke="#4D0D9F" stroke-width="0.6"/>
<path fill-rule="evenodd" clip-rule="evenodd" d="M24.2 3.79957V16.6004C24.2 17.2647 24.7357 17.8 25.3996 17.8H38.2004C38.8647 17.8 39.4 17.2643 39.4 16.6004V3.79957C39.4 3.13527 38.8643 2.6 38.2004 2.6H25.3996C24.7353 2.6 24.2 3.13569 24.2 3.79957ZM22.6 3.79957C22.6 2.25341 23.8502 1 25.3996 1H38.2004C39.7466 1 41 2.25024 41 3.79957V16.6004C41 18.1466 39.7498 19.4 38.2004 19.4H25.3996C23.8534 19.4 22.6 18.1498 22.6 16.6004V3.79957Z" fill="#4D0D9F" stroke="#4D0D9F" stroke-width="0.6"/>
<path fill-rule="evenodd" clip-rule="evenodd" d="M24.2 25.3996V38.2004C24.2 38.8647 24.7357 39.4 25.3996 39.4H38.2004C38.8647 39.4 39.4 38.8643 39.4 38.2004V25.3996C39.4 24.7353 38.8643 24.2 38.2004 24.2H25.3996C24.7353 24.2 24.2 24.7357 24.2 25.3996ZM22.6 25.3996C22.6 23.8534 23.8502 22.6 25.3996 22.6H38.2004C39.7466 22.6 41 23.8502 41 25.3996V38.2004C41 39.7466 39.7498 41 38.2004 41H25.3996C23.8534 41 22.6 39.7498 22.6 38.2004V25.3996Z" fill="#4D0D9F" stroke="#4D0D9F" stroke-width="0.6"/>
</svg>
