<svg width="40" height="40" viewBox="0 0 40 40" fill="none" xmlns="http://www.w3.org/2000/svg">
<path d="M2.7846 3.33333C1.25771 3.33333 0 4.68944 0 6.33578V33.6642C0 35.3105 1.25771 36.6667 2.7846 36.6667H28.1301C29.657 36.6667 30.9147 35.3105 30.9147 33.6642V24.8254L39.7373 15.3278C39.9056 15.1443 40 14.8966 40 14.6385C40 14.3804 39.9056 14.1327 39.7373 13.9491L35.6173 9.50673C35.5222 9.40169 35.4064 9.321 35.2786 9.27063C35.1507 9.22025 35.014 9.20148 34.8785 9.21568C34.673 9.24359 34.4826 9.34627 34.3386 9.50673L30.9147 13.2138V6.33578C30.9147 4.68944 29.657 3.33333 28.1301 3.33333H2.7846ZM2.7846 5.29411H28.1301C28.6832 5.29411 29.0962 5.73936 29.0962 6.33578V15.1746L21.1828 23.7224C21.0119 23.9047 20.9148 24.1525 20.9129 24.4118V28.8235C20.9129 29.0835 21.0087 29.3329 21.1792 29.5167C21.3497 29.7006 21.581 29.8039 21.8221 29.8039H25.9138C26.1542 29.8018 26.3841 29.6972 26.5531 29.5129L29.0962 26.7708V33.6642C29.0962 34.2606 28.6832 34.7059 28.1301 34.7059H2.7846C2.23146 34.7059 1.81851 34.2606 1.81851 33.6642V6.33578C1.81851 5.73936 2.23146 5.29411 2.7846 5.29411ZM6.27955 10.1961C6.16013 10.2021 6.04297 10.2334 5.93478 10.2882C5.82658 10.3431 5.72946 10.4203 5.64897 10.5157C5.56848 10.611 5.50618 10.7224 5.46565 10.8437C5.42511 10.965 5.40713 11.0937 5.41273 11.2224C5.41833 11.3512 5.4474 11.4775 5.49827 11.5942C5.54915 11.7108 5.62084 11.8155 5.70925 11.9023C5.79766 11.9891 5.90106 12.0562 6.01354 12.0999C6.12601 12.1436 6.24537 12.1629 6.36479 12.1569H24.5499C24.6704 12.1587 24.79 12.1347 24.9018 12.0862C25.0136 12.0378 25.1154 11.9659 25.2012 11.8747C25.287 11.7834 25.3551 11.6747 25.4017 11.5549C25.4482 11.435 25.4721 11.3064 25.4721 11.1765C25.4721 11.0465 25.4482 10.9179 25.4017 10.798C25.3551 10.6782 25.287 10.5695 25.2012 10.4783C25.1154 10.387 25.0136 10.3151 24.9018 10.2667C24.79 10.2182 24.6704 10.1942 24.5499 10.1961H6.36479C6.33639 10.1946 6.30795 10.1946 6.27955 10.1961V10.1961ZM34.9779 11.5747L37.8194 14.6385L36.1571 16.4308L33.3157 13.367L34.9779 11.5747ZM32.0371 14.7457L34.8785 17.8094L25.5444 27.8431H22.7314V24.81L32.0371 14.7457ZM6.27955 16.0784C6.16013 16.0844 6.04297 16.1158 5.93478 16.1706C5.82658 16.2254 5.72946 16.3027 5.64897 16.398C5.56848 16.4933 5.50618 16.6048 5.46565 16.7261C5.42511 16.8473 5.40713 16.976 5.41273 17.1048C5.41833 17.2335 5.4474 17.3599 5.49827 17.4765C5.54915 17.5932 5.62084 17.6979 5.70925 17.7846C5.79766 17.8714 5.90106 17.9385 6.01354 17.9822C6.12601 18.0259 6.24537 18.0453 6.36479 18.0392H24.5499C24.6704 18.041 24.79 18.017 24.9018 17.9686C25.0136 17.9202 25.1154 17.8482 25.2012 17.757C25.287 17.6658 25.3551 17.5571 25.4017 17.4372C25.4482 17.3174 25.4721 17.1887 25.4721 17.0588C25.4721 16.9289 25.4482 16.8003 25.4017 16.6804C25.3551 16.5605 25.287 16.4518 25.2012 16.3606C25.1154 16.2694 25.0136 16.1975 24.9018 16.149C24.79 16.1006 24.6704 16.0766 24.5499 16.0784H6.36479C6.33639 16.077 6.30795 16.077 6.27955 16.0784ZM6.27955 21.9608C6.16013 21.9668 6.04297 21.9981 5.93478 22.0529C5.82658 22.1078 5.72946 22.1851 5.64897 22.2804C5.56848 22.3757 5.50618 22.4871 5.46565 22.6084C5.42511 22.7297 5.40713 22.8584 5.41273 22.9871C5.41833 23.1159 5.4474 23.2422 5.49827 23.3589C5.54915 23.4755 5.62084 23.5802 5.70925 23.667C5.79766 23.7538 5.90106 23.8209 6.01354 23.8646C6.12601 23.9083 6.24537 23.9276 6.36479 23.9216H18.2562C18.3766 23.9234 18.4963 23.8994 18.6081 23.851C18.7199 23.8025 18.8216 23.7306 18.9075 23.6394C18.9933 23.5481 19.0614 23.4394 19.1079 23.3196C19.1544 23.1997 19.1784 23.0711 19.1784 22.9412C19.1784 22.8112 19.1544 22.6826 19.1079 22.5628C19.0614 22.4429 18.9933 22.3342 18.9075 22.243C18.8216 22.1518 18.7199 22.0798 18.6081 22.0314C18.4963 21.9829 18.3766 21.9589 18.2562 21.9608H6.36479C6.33639 21.9593 6.30795 21.9593 6.27955 21.9608ZM6.27955 27.8431C6.16013 27.8491 6.04297 27.8805 5.93478 27.9353C5.82658 27.9901 5.72946 28.0674 5.64897 28.1627C5.56848 28.258 5.50618 28.3695 5.46565 28.4908C5.42511 28.612 5.40713 28.7407 5.41273 28.8695C5.41833 28.9982 5.4474 29.1246 5.49827 29.2412C5.54915 29.3579 5.62084 29.4626 5.70925 29.5493C5.79766 29.6361 5.90106 29.7033 6.01354 29.7469C6.12601 29.7906 6.24537 29.81 6.36479 29.8039H18.1851C18.3056 29.8058 18.4252 29.7818 18.537 29.7333C18.6488 29.6849 18.7506 29.6129 18.8364 29.5217C18.9222 29.4305 18.9904 29.3218 19.0369 29.2019C19.0834 29.0821 19.1073 28.9534 19.1073 28.8235C19.1073 28.6936 19.0834 28.565 19.0369 28.4451C18.9904 28.3252 18.9222 28.2165 18.8364 28.1253C18.7506 28.0341 18.6488 27.9622 18.537 27.9137C18.4252 27.8653 18.3056 27.8413 18.1851 27.8431H6.36479C6.33639 27.8417 6.30795 27.8417 6.27955 27.8431V27.8431Z" fill="#4D0D9F"/>
</svg>
