<svg width="40" height="40" viewBox="0 0 40 40" fill="none" xmlns="http://www.w3.org/2000/svg">
<path d="M18.9997 27.4715C23.7752 27.4715 27.6605 24.0988 27.6605 19.9534V7.51812C27.6605 3.37268 23.7752 0 18.9997 0C14.2242 0 10.3389 3.37268 10.3389 7.51812V19.9534C10.3389 24.0988 14.2242 27.4715 18.9997 27.4715ZM12.8974 7.51812C12.8974 4.59726 15.6349 2.22095 18.9997 2.22095C22.3645 2.22095 25.102 4.59726 25.102 7.51812V19.9534C25.102 22.8742 22.3645 25.2506 18.9997 25.2506C15.6349 25.2506 12.8974 22.8742 12.8974 19.9534V7.51812Z" fill="#4D0D9F"/>
<path d="M30.7202 13.7067C30.0136 13.7067 29.4409 14.2039 29.4409 14.8172V20.6095C29.4409 25.6071 24.7569 29.6731 18.9997 29.6731C13.2425 29.6731 8.55851 25.6071 8.55851 20.6095V14.8172C8.55851 14.2039 7.98578 13.7067 7.27926 13.7067C6.57273 13.7067 6 14.2039 6 14.8172V20.6095C6 26.4573 11.1505 31.2797 17.7205 31.8395V37.779H14.331C13.6245 37.779 13.0518 38.2762 13.0518 38.8895C13.0518 39.5028 13.6245 40 14.331 40H23.669C24.3755 40 24.9482 39.5028 24.9482 38.8895C24.9482 38.2762 24.3755 37.779 23.669 37.779H20.2796V31.8395C26.8495 31.2797 32 26.4573 32 20.6095V14.8172C32 14.2039 31.4267 13.7067 30.7202 13.7067Z" fill="#4D0D9F"/>
</svg>
