<svg width="40" height="40" viewBox="0 0 40 40" fill="none" xmlns="http://www.w3.org/2000/svg">
<path d="M1.25 4C0.55875 4 0 4.59813 0 5.33413V34.6659C0 35.4031 0.55875 36 1.25 36H38.75C39.4412 36 40 35.4031 40 34.6659V5.33413C40 4.5969 39.4412 4 38.75 4H1.25ZM28.75 5.23077C29.4412 5.23077 30 5.78092 30 6.46154C30 7.14215 29.4412 7.69231 28.75 7.69231C28.0588 7.69231 27.5 7.14215 27.5 6.46154C27.5 5.78092 28.0588 5.23077 28.75 5.23077ZM32.5 5.23077C33.1912 5.23077 33.75 5.78092 33.75 6.46154C33.75 7.14215 33.1912 7.69231 32.5 7.69231C31.8088 7.69231 31.25 7.14215 31.25 6.46154C31.25 5.78092 31.8088 5.23077 32.5 5.23077ZM36.25 5.23077C36.9412 5.23077 37.5 5.78092 37.5 6.46154C37.5 7.14215 36.9412 7.69231 36.25 7.69231C35.5588 7.69231 35 7.14215 35 6.46154C35 5.78092 35.5588 5.23077 36.25 5.23077ZM2.42188 8.92308H37.5781C38.2256 8.92308 38.7524 9.40554 38.7524 10V33.6923C38.7524 34.2868 38.2256 34.7692 37.5781 34.7692H2.42188C1.77437 34.7692 1.25 34.2868 1.25 33.6923V10C1.25 9.40554 1.77437 8.92308 2.42188 8.92308ZM3.78906 11.375V12.6058H18.75V11.375H3.78906ZM21.25 11.375V26.1442H36.25V11.375H21.25ZM3.75 13.8365V15.0673H18.75V13.8365H3.75ZM24.9536 13.8486C25.6324 13.8473 26.1816 14.3894 26.1816 15.0577C26.1816 15.726 25.6324 16.2668 24.9536 16.2668C24.2736 16.2668 23.7231 15.726 23.7231 15.0577C23.7231 14.3894 24.2736 13.8486 24.9536 13.8486ZM3.75 16.2981V17.5288H18.75V16.2981H3.75ZM28.6938 17.5C28.8612 17.4794 29.0434 17.5239 29.2065 17.6851L31.4062 20.0986L27.0215 24.9135H23.1641H23.125C22.78 24.9135 22.5 24.639 22.5 24.2981C22.5 24.1282 22.5828 23.987 22.6953 23.875H22.6562L28.2715 17.7067C28.3727 17.607 28.5265 17.5206 28.6938 17.5ZM3.75 18.7596V19.9904H18.75V18.7596H3.75ZM33.6646 18.7909C33.8169 18.7821 33.9842 18.8382 34.1479 19L35 19.9928V24.9159C32.1363 24.9282 30.1876 24.9159 27.8589 24.9159L33.2715 18.9712V18.976C33.3734 18.875 33.5122 18.7996 33.6646 18.7909ZM3.75 21.2212V22.4519H18.75V21.2212H3.75ZM10.0391 23.6827V24.9135H18.75V23.6827H10.0391ZM3.79639 28.6058V29.8365H36.2964V28.6058H3.79639ZM3.79639 31.0673V32.2981H36.2964V31.0673H3.79639Z" fill="#4D0D9F"/>
</svg>
