<svg width="41" height="40" viewBox="0 0 41 40" fill="none" xmlns="http://www.w3.org/2000/svg">
<path d="M31.2398 5.2801H19.4069V6.22919L13.7324 4.04494C13.5714 3.98288 13.3917 3.98518 13.2325 4.05132C13.0732 4.11747 12.9472 4.24212 12.8817 4.39821L1.04886 32.5573C1.01603 32.6355 0.999438 32.7193 1.00003 32.8037C1.00062 32.8882 1.01839 32.9717 1.05231 33.0495C1.08623 33.1273 1.13562 33.1977 1.19765 33.2568C1.25968 33.3159 1.33311 33.3624 1.4137 33.3937L7.98753 35.9537C8.14892 36.0169 8.32949 36.0154 8.48968 35.9493C8.64987 35.8832 8.77661 35.7579 8.84213 35.601L19.4069 10.4287V35.9991H40.4432V7.84001H31.2398V5.2801ZM13.8534 5.46761L19.2038 7.5277L18.7101 8.70526L13.3853 6.58437L13.8534 5.46761ZM15.7256 15.8142L10.3968 13.6926L10.8945 12.5087L16.2226 14.6302L15.7256 15.8142ZM8.90524 17.2477L10.5789 17.9139L11.0772 16.7293L9.40288 16.0625L9.90052 14.8798L15.2253 17L13.7317 20.5545L8.40694 18.4342L8.90524 17.2477ZM12.8863 7.76962L18.2111 9.88987L16.7182 13.4443L11.3934 11.3234L12.8863 7.76962ZM7.86986 34.5271L2.51745 32.4447L7.90799 19.6163L13.2387 21.7391L7.86986 34.5271ZM20.7217 6.56005H29.9251V27.0394H20.7217V6.56005ZM31.2398 12.3199H39.1284V13.5998H31.2398V12.3199ZM29.9251 29.5993H20.7217V28.3193H29.9251V29.5993ZM29.9251 34.7191H20.7217V30.8793H29.9251V34.7191ZM39.1284 34.7191H31.2398V32.1592H39.1284V34.7191ZM39.1284 30.8793H31.2398V14.8798H39.1284V30.8793ZM39.1284 9.11997V11.0399H31.2398V9.11997H39.1284Z" fill="#4D0D9F" stroke="#4D0D9F" stroke-width="0.4"/>
<path d="M38.1212 16.1598H34.1212V17.4397H38.1212V16.1598Z" fill="#4D0D9F" stroke="#4D0D9F" stroke-width="0.4"/>
<path d="M26.1212 7.84006C25.462 7.84006 24.8175 8.02773 24.2693 8.37934C23.7212 8.73095 23.2939 9.2307 23.0417 9.81541C22.7894 10.4001 22.7234 11.0435 22.852 11.6642C22.9806 12.2849 23.2981 12.8551 23.7642 13.3026C24.2304 13.7501 24.8243 14.0549 25.4709 14.1784C26.1175 14.3018 26.7878 14.2385 27.3968 13.9963C28.0059 13.7541 28.5265 13.3439 28.8928 12.8177C29.2591 12.2915 29.4546 11.6728 29.4546 11.04C29.4535 10.1916 29.102 9.37828 28.4771 8.77841C27.8522 8.17853 27.005 7.84107 26.1212 7.84006V7.84006ZM26.1212 12.9599C25.7257 12.9599 25.339 12.8473 25.0101 12.6363C24.6812 12.4254 24.4249 12.1255 24.2735 11.7747C24.1221 11.4239 24.0825 11.0378 24.1597 10.6654C24.2368 10.293 24.4273 9.95086 24.707 9.68235C24.9867 9.41384 25.3431 9.23099 25.7311 9.15691C26.119 9.08283 26.5211 9.12085 26.8866 9.26616C27.252 9.41148 27.5644 9.65756 27.7842 9.97329C28.0039 10.289 28.1212 10.6602 28.1212 11.04C28.1212 11.5492 27.9105 12.0375 27.5354 12.3976C27.1604 12.7576 26.6517 12.9599 26.1212 12.9599Z" fill="#4D0D9F" stroke="#4D0D9F" stroke-width="0.4"/>
<path d="M12.9076 17.2137L12.4031 18.3985L13.6373 18.8828L14.1418 17.698L12.9076 17.2137Z" fill="#4D0D9F" stroke="#4D0D9F" stroke-width="0.4"/>
</svg>
