<svg width="40" height="40" viewBox="0 0 40 40" fill="none" xmlns="http://www.w3.org/2000/svg">
<path d="M6.31322 36.1459H24.536C24.4571 36.7506 23.9838 37.5064 24.6148 38.2622C25.0093 38.7157 25.7193 38.9424 26.3503 38.6401L28.7169 37.582L31.1624 38.6401C31.7935 38.8669 32.4246 38.7157 32.8979 38.2622C33.1346 37.9599 33.2923 37.5064 33.2135 37.1285L32.1879 32.4423C35.0278 31.233 37 28.4365 37 25.262C37 21.4073 34.0812 18.2328 30.2947 17.5526V4.25005C30.2947 2.43607 28.7958 1 26.9026 1H6.39211C4.49884 1 3 2.43607 3 4.25005V32.9714C3 34.7098 4.49884 36.1459 6.31322 36.1459ZM30.6102 32.9714L31.5568 37.2041L29.0325 36.1459C28.7958 36.0703 28.5592 36.0703 28.4014 36.1459L25.9559 37.2041L26.9814 32.9714C27.5336 33.047 28.2436 33.1982 28.9536 33.1226C29.4269 33.1226 30.058 33.1226 30.6102 32.9714ZM35.3434 25.3376C35.3434 28.8144 32.4246 31.6865 28.7958 31.6865C25.1671 31.6865 22.1694 28.89 22.1694 25.3376C22.1694 21.8608 25.1671 18.9887 28.7958 18.9887C32.4246 18.9887 35.3434 21.8608 35.3434 25.3376ZM4.57773 4.25005C4.57773 3.26748 5.36659 2.51165 6.31322 2.51165H26.8237C27.8492 2.51165 28.6381 3.26748 28.6381 4.25005V17.477C19.9606 17.5526 17.4362 29.1167 25.4826 32.5179L24.9304 34.7098H6.31322C5.2877 34.7098 4.49884 33.954 4.49884 32.9714V4.25005H4.57773Z" fill="#4D0D9F" stroke="#4D0D9F" stroke-width="0.6"/>
<path d="M24.0628 25.3376C24.0628 27.8318 26.1928 29.8725 28.796 29.8725C31.3993 29.8725 33.5292 27.8318 33.5292 25.3376C33.5292 22.8434 31.3993 20.8026 28.796 20.8026C26.1928 20.8026 24.0628 22.8434 24.0628 25.3376ZM31.8726 25.3376C31.8726 27.0004 30.4526 28.3609 28.7171 28.3609C26.9816 28.3609 25.5617 27.0004 25.5617 25.3376C25.5617 23.6748 26.9816 22.3143 28.7171 22.3143C30.4526 22.3143 31.8726 23.6748 31.8726 25.3376Z" fill="#4D0D9F" stroke="#4D0D9F" stroke-width="0.6"/>
<path d="M8.04883 7.80242H23.8261C24.2994 7.80242 24.615 7.50009 24.615 7.0466C24.615 6.5931 24.2994 6.29077 23.8261 6.29077H8.04883C7.57551 6.29077 7.25996 6.5931 7.25996 7.0466C7.25996 7.50009 7.6544 7.80242 8.04883 7.80242Z" fill="#4D0D9F" stroke="#4D0D9F" stroke-width="0.6"/>
<path d="M8.04883 12.4886H23.8261C24.2994 12.4886 24.615 12.1862 24.615 11.7327C24.615 11.2792 24.2994 10.9769 23.8261 10.9769H8.04883C7.57551 10.9769 7.25996 11.2792 7.25996 11.7327C7.25996 12.1862 7.6544 12.4886 8.04883 12.4886Z" fill="#4D0D9F" stroke="#4D0D9F" stroke-width="0.6"/>
<path d="M8.04883 17.2503H23.8261C24.2994 17.2503 24.615 16.9479 24.615 16.4944C24.615 16.0409 24.2994 15.7386 23.8261 15.7386H8.04883C7.57551 15.7386 7.25996 16.0409 7.25996 16.4944C7.25996 16.9479 7.6544 17.2503 8.04883 17.2503Z" fill="#4D0D9F" stroke="#4D0D9F" stroke-width="0.6"/>
</svg>
