<svg width="42" height="42" viewBox="0 0 42 42" fill="none" xmlns="http://www.w3.org/2000/svg">
<path d="M21.0008 28.5375C24.0789 28.5375 26.5821 25.7428 26.5821 22.3062C26.5821 18.8697 24.0789 16.075 21.0008 16.075C17.9227 16.075 15.4194 18.8697 15.4194 22.3062C15.4194 25.7428 17.9227 28.5375 21.0008 28.5375ZM21.0008 17.6328C23.3072 17.6328 25.1868 19.7296 25.1868 22.3062C25.1868 24.8829 23.3072 26.9797 21.0008 26.9797C18.6929 26.9797 16.8148 24.8829 16.8148 22.3062C16.8148 19.7296 18.6929 17.6328 21.0008 17.6328Z" fill="#4D0D9F" stroke="#4D0D9F" stroke-width="0.6"/>
<path d="M27.9775 25.4219C27.9775 27.9985 29.8571 30.0953 32.1635 30.0953C34.47 30.0953 36.3495 27.9985 36.3495 25.4219C36.3495 22.8452 34.47 20.7484 32.1635 20.7484C29.8571 20.7484 27.9775 22.8452 27.9775 25.4219ZM34.9542 25.4219C34.9542 27.1417 33.7026 28.5375 32.1635 28.5375C30.6245 28.5375 29.3729 27.1417 29.3729 25.4219C29.3729 23.702 30.6245 22.3062 32.1635 22.3062C33.7026 22.3062 34.9542 23.702 34.9542 25.4219Z" fill="#4D0D9F" stroke="#4D0D9F" stroke-width="0.6"/>
<path d="M40.5967 36.6132C38.6782 33.5069 35.5247 31.6531 32.1634 31.6531C30.7527 31.6531 29.3434 32.0036 28.0527 32.6377C26.0197 31.0129 23.5639 30.0953 21.0007 30.0953C18.4403 30.0953 15.9873 31.0113 13.9515 32.6392C12.6594 32.0036 11.2501 31.6531 9.83804 31.6531C6.47668 31.6531 3.32462 33.5054 1.39767 36.621C1.13814 37.0541 1 37.5572 1 38.0744L1.0014 38.6633C1.0014 39.9516 1.94045 41 3.09439 41H12.6287H13.3264H28.675H29.3727H38.907C40.0609 41 41 39.9516 41 38.6633V38.0729C41 37.5572 40.8605 37.0556 40.5967 36.6132ZM10.6655 39.4422H3.09439C2.70928 39.4422 2.39673 39.0917 2.39673 38.6633V38.0744C2.39673 37.8688 2.45254 37.6647 2.55301 37.4996C4.21206 34.8139 6.93575 33.2109 9.83804 33.2109C10.819 33.2109 11.8013 33.4025 12.7306 33.7624C12.0901 34.4307 11.4985 35.166 10.9892 35.9916C10.692 36.4855 10.5357 37.0572 10.5357 37.646V38.6633C10.5357 38.9375 10.5873 39.1976 10.6655 39.4422ZM30.0704 38.6633C30.0704 39.0917 29.7578 39.4422 29.3727 39.4422H28.675H13.3264H12.6287C12.2436 39.4422 11.931 39.0917 11.931 38.6633V37.6445C11.931 37.3656 12.0064 37.0946 12.1431 36.8687C14.1608 33.6019 17.4719 31.6531 21.0007 31.6531C24.5281 31.6531 27.8364 33.5973 29.8443 36.8438C29.9922 37.093 30.0704 37.3625 30.0704 37.6445V38.6633ZM39.6061 38.6633C39.6061 39.0917 39.2935 39.4422 38.9084 39.4422H31.3387C31.4169 39.1976 31.4671 38.9375 31.4671 38.6633V37.6445C31.4671 37.0556 31.3066 36.4792 30.9997 35.9683C30.4973 35.1535 29.9113 34.4229 29.2764 33.7624C30.2057 33.4041 31.1852 33.2109 32.1661 33.2109C35.0684 33.2109 37.7921 34.8139 39.447 37.4903C39.553 37.6647 39.6089 37.8672 39.6089 38.0729L39.6061 38.6633Z" fill="#4D0D9F" stroke="#4D0D9F" stroke-width="0.6"/>
<path d="M9.83785 30.0953C12.1457 30.0953 14.0239 27.9985 14.0239 25.4219C14.0239 22.8452 12.1457 20.7484 9.83785 20.7484C7.52997 20.7484 5.65186 22.8452 5.65186 25.4219C5.65186 27.9985 7.52997 30.0953 9.83785 30.0953ZM9.83785 22.3062C11.3769 22.3062 12.6285 23.702 12.6285 25.4219C12.6285 27.1417 11.3769 28.5375 9.83785 28.5375C8.2988 28.5375 7.04719 27.1417 7.04719 25.4219C7.04719 23.702 8.2988 22.3062 9.83785 22.3062Z" fill="#4D0D9F" stroke="#4D0D9F" stroke-width="0.6"/>
<path d="M23.3267 15.2961C23.4006 15.2961 23.4732 15.2836 23.5471 15.2556L26.7159 14.0747C27.8852 14.6932 29.2038 15.0203 30.5489 15.0203C34.7796 15.0203 38.2232 11.8767 38.2232 8.01016C38.2232 4.14523 34.7796 1 30.5489 1C26.3183 1 22.8746 4.14523 22.8746 8.01016C22.8746 9.02897 23.1299 10.0291 23.6336 10.9918L22.6639 14.2726C22.5802 14.553 22.6471 14.8599 22.8355 15.0686C22.9667 15.2166 23.1453 15.2961 23.3267 15.2961ZM30.5503 2.55937C34.0121 2.55937 36.8293 5.00514 36.8293 8.01172C36.8293 11.0183 34.0121 13.4625 30.5503 13.4625C29.3238 13.4625 28.1294 13.1447 27.0913 12.5434C26.9908 12.4858 26.8806 12.4562 26.7703 12.4562C26.695 12.4562 26.6238 12.4686 26.5499 12.4967L24.4276 13.2865L25.0625 11.1351C25.1294 10.9093 25.0987 10.6616 24.9815 10.4637C24.5099 9.66145 24.2713 8.83736 24.2713 8.01172C24.2713 5.00514 27.0871 2.55937 30.5503 2.55937Z" fill="#4D0D9F" stroke="#4D0D9F" stroke-width="0.6"/>
</svg>
