<svg width="40" height="41" viewBox="0 0 40 41" fill="none" xmlns="http://www.w3.org/2000/svg">
<path d="M35.4 31.6501V6.14268C35.4 4.71245 34.8252 3.3408 33.8022 2.32948C32.7791 1.31816 31.3915 0.75 29.9447 0.75H8.65531C7.20847 0.75 5.82089 1.31816 4.79782 2.32948C3.77475 3.3408 3.2 4.71245 3.2 6.14268V35.353C3.2 36.7833 3.77475 38.1549 4.79782 39.1662C5.82089 40.1776 7.20847 40.7457 8.65531 40.7457H25.6668C25.7258 40.7514 25.7851 40.7514 25.8441 40.7457H25.9168L26.0078 40.7188L26.085 40.6783L26.1578 40.6379L26.2123 40.521L26.2623 40.4806L35.1181 32.3017C35.2073 32.2176 35.2783 32.1165 35.3268 32.0045C35.3752 31.8925 35.4001 31.7719 35.4 31.6501ZM5.01844 35.353V6.14268C5.01844 5.1892 5.40161 4.27476 6.08365 3.60055C6.7657 2.92633 7.69075 2.54756 8.65531 2.54756H29.9492C30.9138 2.54756 31.8388 2.92633 32.5209 3.60055C33.2029 4.27476 33.5861 5.1892 33.5861 6.14268V30.7513H27.4852C26.7618 30.7513 26.068 31.0354 25.5565 31.541C25.045 32.0467 24.7576 32.7325 24.7576 33.4476V38.9482H8.65531C7.69075 38.9482 6.7657 38.5694 6.08365 37.8952C5.40161 37.221 5.01844 36.3065 5.01844 35.353ZM26.576 37.7752V33.4476C26.576 33.2093 26.6718 32.9806 26.8423 32.8121C27.0128 32.6435 27.2441 32.5488 27.4852 32.5488H32.195L26.576 37.7752Z" fill="#4D0D9F" stroke="#4D0D9F" stroke-width="0.4"/>
<path d="M10.8919 13.2565H11.3465C12.1103 13.2565 12.8428 12.9566 13.3829 12.4227C13.923 11.8888 14.2264 11.1647 14.2264 10.4096C14.2264 9.65459 13.923 8.93047 13.3829 8.39658C12.8428 7.86268 12.1103 7.56274 11.3465 7.56274H10.8919C10.1281 7.56274 9.39553 7.86268 8.85544 8.39658C8.31534 8.93047 8.01192 9.65459 8.01192 10.4096C8.01192 11.1647 8.31534 11.8888 8.85544 12.4227C9.39553 12.9566 10.1281 13.2565 10.8919 13.2565V13.2565ZM10.8919 9.3603H11.3465C11.628 9.3603 11.898 9.47086 12.0971 9.66765C12.2962 9.86443 12.408 10.1313 12.408 10.4096C12.408 10.6879 12.2962 10.9548 12.0971 11.1516C11.898 11.3484 11.628 11.459 11.3465 11.459H10.8919C10.6103 11.459 10.3403 11.3484 10.1413 11.1516C9.94219 10.9548 9.83036 10.6879 9.83036 10.4096C9.83036 10.1313 9.94219 9.86443 10.1413 9.66765C10.3403 9.47086 10.6103 9.3603 10.8919 9.3603Z" fill="#4D0D9F" stroke="#4D0D9F" stroke-width="0.4"/>
<path d="M19.5295 13.2565H27.7125C28.4763 13.2565 29.2088 12.9566 29.7489 12.4227C30.289 11.8888 30.5924 11.1647 30.5924 10.4096C30.5924 9.65459 30.289 8.93047 29.7489 8.39658C29.2088 7.86268 28.4763 7.56274 27.7125 7.56274H19.5295C18.7657 7.56274 18.0332 7.86268 17.4931 8.39658C16.953 8.93047 16.6496 9.65459 16.6496 10.4096C16.6496 11.1647 16.953 11.8888 17.4931 12.4227C18.0332 12.9566 18.7657 13.2565 19.5295 13.2565V13.2565ZM19.5295 9.3603H27.7125C27.994 9.3603 28.264 9.47086 28.4631 9.66765C28.6622 9.86443 28.774 10.1313 28.774 10.4096C28.774 10.6879 28.6622 10.9548 28.4631 11.1516C28.264 11.3484 27.994 11.459 27.7125 11.459H19.5295C19.248 11.459 18.978 11.3484 18.7789 11.1516C18.5798 10.9548 18.468 10.6879 18.468 10.4096C18.468 10.1313 18.5798 9.86443 18.7789 9.66765C18.978 9.47086 19.248 9.3603 19.5295 9.3603Z" fill="#4D0D9F" stroke="#4D0D9F" stroke-width="0.4"/>
<path d="M10.8919 23.1431H11.3465C12.1103 23.1431 12.8428 22.8432 13.3829 22.3093C13.923 21.7754 14.2264 21.0513 14.2264 20.2962C14.2264 19.5412 13.923 18.8171 13.3829 18.2832C12.8428 17.7493 12.1103 17.4493 11.3465 17.4493H10.8919C10.1281 17.4493 9.39553 17.7493 8.85544 18.2832C8.31534 18.8171 8.01192 19.5412 8.01192 20.2962C8.01192 21.0513 8.31534 21.7754 8.85544 22.3093C9.39553 22.8432 10.1281 23.1431 10.8919 23.1431V23.1431ZM10.8919 19.2469H11.3465C11.628 19.2469 11.898 19.3575 12.0971 19.5542C12.2962 19.751 12.408 20.0179 12.408 20.2962C12.408 20.5745 12.2962 20.8414 12.0971 21.0382C11.898 21.235 11.628 21.3456 11.3465 21.3456H10.8919C10.6103 21.3456 10.3403 21.235 10.1413 21.0382C9.94219 20.8414 9.83036 20.5745 9.83036 20.2962C9.83036 20.0179 9.94219 19.751 10.1413 19.5542C10.3403 19.3575 10.6103 19.2469 10.8919 19.2469V19.2469Z" fill="#4D0D9F" stroke="#4D0D9F" stroke-width="0.4"/>
<path d="M19.5295 23.1431H27.7125C28.4763 23.1431 29.2088 22.8432 29.7489 22.3093C30.289 21.7754 30.5924 21.0513 30.5924 20.2962C30.5924 19.5412 30.289 18.8171 29.7489 18.2832C29.2088 17.7493 28.4763 17.4493 27.7125 17.4493H19.5295C18.7657 17.4493 18.0332 17.7493 17.4931 18.2832C16.953 18.8171 16.6496 19.5412 16.6496 20.2962C16.6496 21.0513 16.953 21.7754 17.4931 22.3093C18.0332 22.8432 18.7657 23.1431 19.5295 23.1431V23.1431ZM19.5295 19.2469H27.7125C27.994 19.2469 28.264 19.3575 28.4631 19.5542C28.6622 19.751 28.774 20.0179 28.774 20.2962C28.774 20.5745 28.6622 20.8414 28.4631 21.0382C28.264 21.235 27.994 21.3456 27.7125 21.3456H19.5295C19.248 21.3456 18.978 21.235 18.7789 21.0382C18.5798 20.8414 18.468 20.5745 18.468 20.2962C18.468 20.0179 18.5798 19.751 18.7789 19.5542C18.978 19.3575 19.248 19.2469 19.5295 19.2469V19.2469Z" fill="#4D0D9F" stroke="#4D0D9F" stroke-width="0.4"/>
<path d="M8.92349 29.884H13.3196C13.5607 29.884 13.792 29.7893 13.9625 29.6207C14.133 29.4522 14.2288 29.2235 14.2288 28.9852C14.2288 28.7468 14.133 28.5182 13.9625 28.3496C13.792 28.1811 13.5607 28.0864 13.3196 28.0864H8.92349C8.68235 28.0864 8.45108 28.1811 8.28057 28.3496C8.11006 28.5182 8.01427 28.7468 8.01427 28.9852C8.01427 29.2235 8.11006 29.4522 8.28057 29.6207C8.45108 29.7893 8.68235 29.884 8.92349 29.884V29.884Z" fill="#4D0D9F" stroke="#4D0D9F" stroke-width="0.4"/>
<path d="M19.6796 33.0297H8.92349C8.68235 33.0297 8.45108 33.1244 8.28057 33.2929C8.11006 33.4615 8.01427 33.6901 8.01427 33.9285C8.01427 34.1668 8.11006 34.3955 8.28057 34.564C8.45108 34.7326 8.68235 34.8273 8.92349 34.8273H19.6796C19.9207 34.8273 20.152 34.7326 20.3225 34.564C20.493 34.3955 20.5888 34.1668 20.5888 33.9285C20.5888 33.6901 20.493 33.4615 20.3225 33.2929C20.152 33.1244 19.9207 33.0297 19.6796 33.0297Z" fill="#4D0D9F" stroke="#4D0D9F" stroke-width="0.4"/>
</svg>
