<svg width="40" height="40" viewBox="0 0 40 40" fill="none" xmlns="http://www.w3.org/2000/svg">
<path d="M10.664 27.2516L3.18693 19.3548L10.664 11.5097C11.1951 10.9419 11.2768 9.96129 10.8274 9.29032C10.5822 8.92903 10.2145 8.72258 9.8468 8.72258C9.56079 8.72258 9.27478 8.82581 9.02964 9.08387L0.449439 18.1677C0.163432 18.4774 0 18.8903 0 19.4065C0 19.9226 0.163432 20.3355 0.449439 20.6452L9.07049 29.729C9.31564 29.9871 9.56079 30.0903 9.88766 30.0903C10.2554 30.0903 10.6231 29.8839 10.8682 29.5226C11.2768 28.8 11.1951 27.8194 10.664 27.2516Z" fill="#4D0D9F"/>
<path d="M40.0002 19.9742C40.0002 19.5097 39.8367 19.0452 39.5507 18.7355L30.8888 9.65161C30.6437 9.39355 30.3576 9.29032 30.0716 9.29032C29.7039 9.29032 29.3362 9.49677 29.091 9.85806C28.6416 10.529 28.7233 11.5097 29.2545 12.0774L36.7315 19.9742L29.2953 27.871C28.7642 28.4387 28.6825 29.4194 29.1319 30.0903C29.3771 30.4516 29.7039 30.6581 30.1125 30.6581C30.3985 30.6581 30.6845 30.5032 30.9297 30.2968L39.5507 21.2129C39.8367 20.9032 40.0002 20.4387 40.0002 19.9742Z" fill="#4D0D9F"/>
<path d="M24.3514 0.0516131C24.2288 1.96119e-07 24.1063 0 23.9837 0C23.4525 0 22.9622 0.412904 22.7988 1.13548L13.6875 37.9871C13.4832 38.8129 13.8509 39.6903 14.5046 39.9484C14.6272 40 14.7498 40 14.8723 40C15.4444 40 15.8938 39.5355 16.0572 38.8645L25.1277 1.96129C25.3729 1.1871 25.0052 0.309678 24.3514 0.0516131Z" fill="#4D0D9F"/>
</svg>
