<svg width="42" height="42" viewBox="0 0 42 42" fill="none" xmlns="http://www.w3.org/2000/svg">
<path d="M15.6987 6.3125C15.6987 9.25 18.0756 11.625 21.0153 11.625C23.9551 11.625 26.3319 9.25 26.3319 6.3125C26.3319 3.375 23.9551 1 21.0153 1C18.0756 1 15.6987 3.375 15.6987 6.3125ZM25.0809 6.3125C25.0809 8.5625 23.267 10.375 21.0153 10.375C18.7636 10.375 16.9497 8.5625 16.9497 6.3125C16.9497 4.0625 18.7636 2.25 21.0153 2.25C23.267 2.25 25.0809 4.0625 25.0809 6.3125Z" fill="#4D0D9F" stroke="#4D0D9F" stroke-width="0.8"/>
<path d="M38.5287 20.0625H36.0268V16.9063L31.9925 14.2187C31.711 14.0312 31.3044 14.0938 31.1168 14.4063C30.9292 14.7188 30.9917 15.0938 31.3044 15.2812L34.7758 17.5937V20.0625H30.7102V18.625C30.7102 15.3125 28.7713 12.4062 25.9566 11C25.6439 11.3438 25.2998 11.6563 24.9246 11.9063C27.5828 13.0313 29.4593 15.625 29.4593 18.625V20.0625H21.9535V16.9375C22.2037 16.6875 22.3288 16.375 22.235 16.0312L21.7659 14.1875C21.6408 13.6875 21.0779 13.375 20.5462 13.5312C19.9833 13.6875 19.6393 14.2188 19.7956 14.7188L20.2647 16.5625C20.3273 16.8125 20.4837 17.0312 20.7339 17.125V20.0625H12.5714V18.625C12.5714 15.625 14.4478 13.0313 17.1061 11.9063C16.7308 11.625 16.3868 11.3438 16.074 11C13.2594 12.4062 11.3204 15.2813 11.3204 18.625V20.0625H7.25479V17.5937L10.7262 15.2812C11.0077 15.0938 11.1015 14.6875 10.9138 14.4063C10.7262 14.125 10.3196 14.0312 10.0382 14.2187L6.00383 16.9063V20.0625H3.50191C2.12586 20.0625 1 21.1875 1 22.5625V22.875C1 24.25 2.12586 25.375 3.50191 25.375H6.00383V38.5312C6.00383 39.9062 7.12969 41 8.47447 41H33.5249C34.9009 41 35.9955 39.9062 35.9955 38.5312V25.375H38.4974C39.8735 25.375 40.9994 24.25 40.9994 22.875V22.5625C41.0306 21.1875 39.9048 20.0625 38.5287 20.0625ZM34.7758 38.5312C34.7758 39.2188 34.2129 39.75 33.5562 39.75H8.47447C7.78644 39.75 7.25479 39.1875 7.25479 38.5312V25.375H34.7758V38.5312ZM39.7797 22.875C39.7797 23.5625 39.2167 24.125 38.5287 24.125H36.0268H6.00383H3.50191C2.81389 24.125 2.25096 23.5625 2.25096 22.875V22.5625C2.25096 21.875 2.81389 21.3125 3.50191 21.3125H38.5287C39.2167 21.3125 39.7797 21.875 39.7797 22.5625V22.875Z" fill="#4D0D9F" stroke="#4D0D9F" stroke-width="0.8"/>
<path d="M18.5132 36.3125C18.8572 36.3125 19.1387 36.0312 19.1387 35.6875V29.125C19.1387 28.7812 18.8572 28.5 18.5132 28.5C18.1692 28.5 17.8877 28.7812 17.8877 29.125V35.6875C17.8877 36.0312 18.1692 36.3125 18.5132 36.3125Z" fill="#4D0D9F" stroke="#4D0D9F" stroke-width="0.8"/>
<path d="M21.0151 36.3125C21.3591 36.3125 21.6406 36.0312 21.6406 35.6875V29.125C21.6406 28.7812 21.3591 28.5 21.0151 28.5C20.6711 28.5 20.3896 28.7812 20.3896 29.125V35.6875C20.3896 36.0312 20.6711 36.3125 21.0151 36.3125Z" fill="#4D0D9F" stroke="#4D0D9F" stroke-width="0.8"/>
<path d="M23.5171 36.3125C23.8611 36.3125 24.1426 36.0312 24.1426 35.6875V29.125C24.1426 28.7812 23.8611 28.5 23.5171 28.5C23.1731 28.5 22.8916 28.7812 22.8916 29.125V35.6875C22.8916 36.0312 23.1731 36.3125 23.5171 36.3125Z" fill="#4D0D9F" stroke="#4D0D9F" stroke-width="0.8"/>
</svg>
