<svg width="42" height="40" viewBox="0 0 42 40" fill="none" xmlns="http://www.w3.org/2000/svg">
<path d="M39.8664 2H2.1336C1.5085 2 1 2.49579 1 3.10526V29.4737C1 30.0832 1.5085 30.5789 2.1336 30.5789H12.3114C12.2784 30.6434 12.2551 30.7128 12.2551 30.7899V37.0526H9.6102C9.34202 37.0526 9.12437 37.2648 9.12437 37.5263C9.12437 37.7878 9.34202 38 9.6102 38H32.3898C32.658 38 32.8756 37.7878 32.8756 37.5263C32.8756 37.2648 32.658 37.0526 32.3898 37.0526H29.7449V30.7899C29.7449 30.7128 29.7216 30.6434 29.6886 30.5789H39.8664C40.4915 30.5789 41 30.0832 41 29.4737V3.10526C41 2.49579 40.4915 2 39.8664 2ZM2.1336 2.94737H39.8664C39.9558 2.94737 40.0283 3.01811 40.0283 3.10526V26.1055H37.1943V6.56947C37.1943 5.96505 36.6858 5.47368 36.0607 5.47368H5.93927C5.31417 5.47368 4.80567 5.96505 4.80567 6.56947V26.1055H1.97166V3.10526C1.97166 3.01811 2.04421 2.94737 2.1336 2.94737ZM11.823 17.1055C11.823 15.7703 12.9372 14.6846 14.3059 14.6846C15.6747 14.6846 16.7895 15.7703 16.7895 17.1055C16.7895 18.4406 15.6753 19.5263 14.3066 19.5263C12.9378 19.5263 11.823 18.44 11.823 17.1055ZM14.3059 23.2956L12.3075 21.9693L13.046 20.4737H15.5671L16.3056 21.9686L14.3059 23.2956ZM11.2504 21.9263C11.2413 21.9446 11.2419 21.9648 11.2355 21.9838C11.2251 22.0147 11.2154 22.0438 11.2115 22.0754C11.2076 22.1063 11.2089 22.1354 11.2115 22.1657C11.2141 22.196 11.2167 22.2244 11.2245 22.2535C11.2329 22.2832 11.2452 22.3103 11.2594 22.3381C11.273 22.3646 11.2866 22.3899 11.3048 22.4139C11.3242 22.4398 11.3475 22.4606 11.3728 22.4815C11.3883 22.4947 11.3981 22.5124 11.4149 22.5238L14.0332 24.2606C14.0449 24.2688 14.0578 24.2714 14.0701 24.2777C14.0818 24.284 14.0928 24.2884 14.1051 24.2935C14.1699 24.3225 14.2379 24.3421 14.3066 24.3421C14.3085 24.3421 14.3104 24.3408 14.3124 24.3408C14.3778 24.3402 14.4413 24.3225 14.5028 24.2954C14.5177 24.2891 14.532 24.2834 14.5462 24.2758C14.5572 24.2695 14.5696 24.2669 14.5799 24.26L17.1982 22.5232C17.2157 22.5112 17.2254 22.4941 17.2403 22.4808C17.2656 22.46 17.2889 22.4392 17.3083 22.4133C17.3271 22.3893 17.3407 22.364 17.3537 22.3375C17.3673 22.3097 17.3802 22.2832 17.3887 22.2528C17.3964 22.2238 17.3997 22.1954 17.4016 22.1651C17.4036 22.1347 17.4049 22.1057 17.4016 22.0747C17.3977 22.0432 17.388 22.0141 17.3777 21.9832C17.3712 21.9642 17.3718 21.944 17.3628 21.9257L16.6457 20.4737H17.8693C18.6732 20.4737 19.3268 21.0642 19.3268 21.7893V26.1055H9.28632V21.7893C9.28632 21.0642 9.93992 20.4737 10.7438 20.4737H11.9681L11.2504 21.9263ZM20.2985 23.2223L29.57 15.7021C29.776 15.5347 29.8045 15.236 29.6329 15.0352C29.4612 14.8337 29.1535 14.8065 28.9488 14.9739L20.2985 21.9907V21.7899C20.2985 20.5419 19.2089 19.5269 17.8693 19.5269H16.6981C17.3511 18.9137 17.7611 18.0573 17.7611 17.1061C17.7611 15.2486 16.211 13.7379 14.3066 13.7379C12.4021 13.7379 10.852 15.2493 10.852 17.1061C10.852 18.0573 11.262 18.9143 11.915 19.5269H10.7438C9.40421 19.5269 8.31466 20.5419 8.31466 21.7899V26.1061H5.77733V6.56947C5.77733 6.48737 5.84988 6.42105 5.93927 6.42105H36.0607C36.1501 6.42105 36.2227 6.48737 36.2227 6.56947V26.1055H20.2985V23.2223ZM28.7733 30.7899V37.0526H13.2267V30.7899C13.2267 30.7128 13.2034 30.6434 13.1704 30.5789H28.8296C28.7966 30.6434 28.7733 30.7128 28.7733 30.7899ZM39.8664 29.6316H2.1336C2.04421 29.6316 1.97166 29.5608 1.97166 29.4737V27.0528H40.0283V29.4737C40.0283 29.5608 39.9558 29.6316 39.8664 29.6316Z" fill="#4D0D9F" stroke="#4D0D9F" stroke-width="0.6"/>
<path d="M31.5263 11.4383C31.5263 11.1768 31.3087 10.9646 31.0405 10.9646H23.8774C23.6092 10.9646 23.3916 11.1768 23.3916 11.4383C23.3916 11.6998 23.6092 11.912 23.8774 11.912H31.0405C31.3087 11.912 31.5263 11.6998 31.5263 11.4383Z" fill="#4D0D9F" stroke="#4D0D9F" stroke-width="0.6"/>
<path d="M26.1854 13.7366H23.8774C23.6092 13.7366 23.3916 13.9488 23.3916 14.2103C23.3916 14.4718 23.6092 14.684 23.8774 14.684H26.1854C26.4536 14.684 26.6713 14.4718 26.6713 14.2103C26.6713 13.9488 26.4536 13.7366 26.1854 13.7366Z" fill="#4D0D9F" stroke="#4D0D9F" stroke-width="0.6"/>
<path d="M33.9419 8.06757H20.6094C20.3412 8.06757 20.1236 8.27978 20.1236 8.54126V17.1055C20.1236 17.3669 20.3412 17.5792 20.6094 17.5792H23.1053C23.3734 17.5792 23.5911 17.3669 23.5911 17.1055C23.5911 16.844 23.3734 16.6318 23.1053 16.6318H21.0952V9.01494H33.456V16.6318H30.6084C30.3402 16.6318 30.1226 16.844 30.1226 17.1055C30.1226 17.3669 30.3402 17.5792 30.6084 17.5792H33.9419C34.21 17.5792 34.4277 17.3669 34.4277 17.1055V8.54126C34.4277 8.27978 34.21 8.06757 33.9419 8.06757Z" fill="#4D0D9F" stroke="#4D0D9F" stroke-width="0.6"/>
</svg>
