<svg width="40" height="40" viewBox="0 0 40 40" fill="none" xmlns="http://www.w3.org/2000/svg">
<path d="M11.4865 18.6921L6.30457 27.3286C6.14393 27.5963 6.14047 27.928 6.2942 28.1992C6.44793 28.4686 6.73467 28.6362 7.04558 28.6362H17.4094C17.7204 28.6362 18.0071 28.4686 18.1608 28.1992C18.3146 27.9297 18.3094 27.5963 18.1505 27.3286L12.9685 18.6921C12.6559 18.1722 11.7991 18.1722 11.4865 18.6921ZM8.5708 26.9089L12.2275 20.8149L15.8842 26.9089H8.5708ZM38.3151 5.21909L18.3025 1.01828C18.0796 0.971647 17.843 1.01483 17.653 1.14092C17.4613 1.26702 17.3265 1.46393 17.2799 1.68848L15.9965 7.9085H1.86365C1.38692 7.9085 1 8.29542 1 8.77216V38.1363C1 38.6131 1.38692 39 1.86365 39H22.5914C23.0681 39 23.455 38.6131 23.455 38.1363V33.7196L32.0622 35.5264C32.2902 35.5765 32.5217 35.5281 32.7134 35.4037C32.9051 35.2794 33.0381 35.0807 33.0848 34.8562L38.9818 6.23993C39.0785 5.77356 38.7797 5.31755 38.3151 5.21909ZM21.7277 13.6932C21.7208 13.7554 21.7208 13.8193 21.7277 13.8815V22.6631C21.7208 22.7271 21.7208 22.7892 21.7277 22.8514V32.6401C21.7277 32.6504 21.7277 32.6625 21.7277 32.6746V37.2727H2.72731V9.63581H16.6857C16.6978 9.63581 16.7099 9.63581 16.7202 9.63581H21.7277V13.6932ZM31.5682 33.6592L23.455 31.9543V24.0657C24.0129 24.2315 24.5951 24.3179 25.1823 24.3179C28.516 24.3179 31.2279 21.606 31.2279 18.2723C31.2279 14.9386 28.516 12.2268 25.1823 12.2268C24.5951 12.2268 24.0129 12.3114 23.455 12.479V8.77216C23.455 8.29542 23.0698 7.9085 22.5914 7.9085H17.7618L18.7965 2.8855L37.118 6.73394L31.5682 33.6592ZM23.455 22.2313V14.3134C23.9974 14.0767 24.5847 13.9541 25.1823 13.9541C27.5643 13.9541 29.5006 15.8921 29.5006 18.2723C29.5006 20.6526 27.5643 22.5906 25.1823 22.5906C24.5847 22.5906 23.9974 22.468 23.455 22.2313Z" fill="#4D0D9F" stroke="#4D0D9F" stroke-width="0.6"/>
</svg>
