<svg width="40" height="40" viewBox="0 0 40 40" fill="none" xmlns="http://www.w3.org/2000/svg">
<path d="M9.33333 7C4.18921 7 0 12.3861 0 19C0 25.6137 4.1892 31 9.33333 31C13.7073 31 17.3578 27.0943 18.3611 21.8571H21.6389C22.6422 27.0943 26.2928 31 30.6667 31C35.8108 31 40 25.6137 40 19C40 12.3862 35.8108 7 30.6667 7H9.33333ZM9.33333 9.28571H30.6667C34.85 9.28571 38.2222 13.6214 38.2222 19C38.2222 24.3783 34.85 28.7143 30.6667 28.7143C26.8906 28.7143 23.7806 25.1713 23.2083 20.5357C23.1753 20.2676 23.0691 20.0233 22.9088 19.8466C22.7485 19.6699 22.5445 19.5724 22.3333 19.5714H17.6667C17.4555 19.5724 17.2515 19.6699 17.0912 19.8466C16.9309 20.0233 16.8247 20.2676 16.7917 20.5357C16.2194 25.1713 13.1094 28.7143 9.33333 28.7143C5.15002 28.7143 1.77778 24.3783 1.77778 19C1.77778 13.6215 5.15001 9.28571 9.33333 9.28571ZM9.33333 13.2857C8.8424 13.2857 8.44444 13.7974 8.44444 14.4286V17.8571H5.77778C5.28686 17.8571 4.88889 18.3688 4.88889 19C4.88889 19.6312 5.28686 20.1429 5.77778 20.1429H8.44444V23.5714C8.44444 24.2026 8.8424 24.7143 9.33333 24.7143C9.82427 24.7143 10.2222 24.2026 10.2222 23.5714V20.1429H12.8889C13.3798 20.1429 13.7778 19.6312 13.7778 19C13.7778 18.3688 13.3798 17.8571 12.8889 17.8571H10.2222V14.4286C10.2222 13.7974 9.82427 13.2857 9.33333 13.2857ZM28.4444 14.4286C27.7081 14.4286 27.1111 15.1961 27.1111 16.1429C27.1111 17.0897 27.7081 17.8571 28.4444 17.8571C29.1808 17.8571 29.7778 17.0897 29.7778 16.1429C29.7778 15.1961 29.1808 14.4286 28.4444 14.4286ZM32.8889 20.1429C32.1525 20.1429 31.5556 20.9103 31.5556 21.8571C31.5556 22.8039 32.1525 23.5714 32.8889 23.5714C33.6253 23.5714 34.2222 22.8039 34.2222 21.8571C34.2222 20.9103 33.6253 20.1429 32.8889 20.1429Z" fill="#4D0D9F"/>
</svg>
