<svg width="40" height="40" viewBox="0 0 40 40" fill="none" xmlns="http://www.w3.org/2000/svg">
<path d="M36 40H4C3.44727 40 3 39.574 3 39.0476V0.952381C3 0.426667 3.44727 0 4 0H36C36.5527 0 37 0.426667 37 0.952381V39.0476C37 39.574 36.5527 40 36 40ZM5 38.0952H35V1.90476H5V38.0952Z" fill="#4D0D9F"/>
<path d="M32.5903 14.4007V14.4C32.3554 12.6393 31.1372 11.1349 29.4121 10.4727C28.7961 10.2365 28.1503 10.1167 27.4914 10.1167C25.383 10.1167 23.5096 11.3205 22.7205 13.1844C21.6616 15.689 22.9394 18.5475 25.5678 19.556C26.1838 19.7929 26.8296 19.9127 27.4892 19.9127C29.5983 19.9127 31.471 18.7082 32.2594 16.845C32.5874 16.072 32.7016 15.2263 32.5903 14.4007ZM30.9838 13.8964L28.6281 14.179L29.5161 12.0796C30.2034 12.5119 30.7212 13.1525 30.9838 13.8964ZM30.9103 16.3269C30.3452 17.6637 29.0027 18.5267 27.4899 18.5267C27.0187 18.5267 26.5547 18.4409 26.1125 18.2705C24.2267 17.5473 23.311 15.4978 24.0703 13.7018C24.6361 12.365 25.9794 11.5013 27.4914 11.5013C27.7183 11.5013 27.9445 11.5214 28.167 11.5609L26.8165 14.7546C26.7205 14.9825 26.7576 15.2415 26.9154 15.4362C26.9801 15.5165 27.063 15.5761 27.1532 15.6218C27.1641 15.6273 27.1728 15.6336 27.1838 15.6384C27.271 15.6779 27.3663 15.6973 27.4652 15.7008C27.4747 15.7008 27.4819 15.7063 27.4914 15.7063C27.5212 15.7063 27.5518 15.7049 27.5823 15.7008L31.1678 15.2699C31.1394 15.6322 31.0536 15.9889 30.9103 16.3269Z" fill="#4D0D9F"/>
<path d="M20.5608 17.6873H18.8467V10.7629C18.8467 10.5718 18.6838 10.4166 18.483 10.4166H17.1732C16.9732 10.4166 16.8096 10.5718 16.8096 10.7629V17.6873H15.7274V11.6578C15.7274 11.4667 15.5652 11.3115 15.3638 11.3115H14.0547C13.8539 11.3115 13.691 11.4667 13.691 11.6578V17.6873H12.6096V12.4488C12.6096 12.2577 12.4459 12.1025 12.2459 12.1025H10.9361C10.7354 12.1025 10.5725 12.2577 10.5725 12.4488V17.6873H9.20812V9.3174C9.20812 8.93506 8.8823 8.62476 8.48084 8.62476C8.07939 8.62476 7.75357 8.93506 7.75357 9.3174V18.3792C7.75357 18.7616 8.07939 19.0719 8.48084 19.0719C8.48884 19.0719 8.49612 19.0677 8.50412 19.0677C8.51212 19.0677 8.51939 19.0719 8.52666 19.0719H20.5608C20.963 19.0719 21.2881 18.7616 21.2881 18.3792C21.2881 17.9969 20.963 17.6873 20.5608 17.6873Z" fill="#4D0D9F"/>
<path d="M30.7143 32.063H21.9215L22.8117 30.7955L23.5412 31.4286C23.7193 31.583 23.9666 31.6447 24.1993 31.5907C24.4335 31.538 24.6255 31.378 24.7106 31.1633L25.9877 27.964L26.4663 28.3172C26.6204 28.4308 26.8168 28.4821 27.0124 28.4551C27.2073 28.4294 27.3819 28.329 27.4983 28.1794L28.4808 26.9049L29.7855 26.0758C30.1201 25.8632 30.2103 25.4331 29.987 25.1152C29.7637 24.7958 29.3106 24.7107 28.9783 24.9233L27.5666 25.8203C27.4953 25.8646 27.4335 25.9214 27.3833 25.9865L26.7666 26.7858L26.1019 26.2961C25.9193 26.161 25.6801 26.1174 25.4597 26.1756C25.2372 26.2352 25.0583 26.3917 24.9768 26.596L23.731 29.7198L23.1673 29.2301C23.0103 29.0937 22.8008 29.0313 22.5899 29.0528C22.379 29.0771 22.1906 29.1879 22.0728 29.3562L21.2881 30.4734V25.138C21.2881 24.755 20.963 24.4454 20.5608 24.4454C20.1586 24.4454 19.8335 24.755 19.8335 25.138V32.7557C19.8335 32.7785 19.8452 32.7979 19.8473 32.8194C19.8524 32.8679 19.8626 32.9129 19.8764 32.9572C19.891 33.0002 19.9063 33.0397 19.9281 33.0778C19.9492 33.1158 19.9739 33.1498 20.0037 33.1844C20.0357 33.2225 20.0699 33.2551 20.1099 33.2849C20.1273 33.2994 20.1383 33.3188 20.1572 33.3306C20.1819 33.3465 20.2095 33.3534 20.2357 33.3659C20.2597 33.3784 20.283 33.3901 20.3099 33.3998C20.3921 33.4282 20.4764 33.4483 20.5608 33.4483H20.5615C20.5615 33.4483 20.5623 33.4483 20.563 33.4483C20.5703 33.4483 20.5775 33.4455 20.5855 33.4455C20.5899 33.4455 20.5943 33.4483 20.6001 33.4483H30.715C31.1172 33.4483 31.4423 33.1387 31.4423 32.7557C31.4423 32.3726 31.1164 32.063 30.7143 32.063Z" fill="#4D0D9F"/>
<path d="M31.3934 5.6838H8.60581C8.20436 5.6838 7.87854 5.3735 7.87854 4.99116C7.87854 4.60883 8.20436 4.29852 8.60581 4.29852H31.3934C31.7956 4.29852 32.1207 4.60883 32.1207 4.99116C32.1207 5.3735 31.7956 5.6838 31.3934 5.6838Z" fill="#4D0D9F"/>
<path d="M15.6093 27.849H8.0944C7.69294 27.849 7.36713 27.5394 7.36713 27.1564C7.36713 26.7733 7.69294 26.4637 8.0944 26.4637H15.6093C16.0115 26.4637 16.3366 26.7733 16.3366 27.1564C16.3366 27.5394 16.0115 27.849 15.6093 27.849Z" fill="#4D0D9F"/>
<path d="M15.6093 29.7905H8.0944C7.69294 29.7905 7.36713 29.4809 7.36713 29.0979C7.36713 28.7148 7.69294 28.4052 8.0944 28.4052H15.6093C16.0115 28.4052 16.3366 28.7148 16.3366 29.0979C16.3366 29.4809 16.0115 29.7905 15.6093 29.7905Z" fill="#4D0D9F"/>
<path d="M15.6093 31.7326H8.0944C7.69294 31.7326 7.36713 31.423 7.36713 31.04C7.36713 30.657 7.69294 30.3474 8.0944 30.3474H15.6093C16.0115 30.3474 16.3366 30.657 16.3366 31.04C16.3366 31.423 16.0115 31.7326 15.6093 31.7326Z" fill="#4D0D9F"/>
</svg>
