<svg width="40" height="40" viewBox="0 0 40 40" fill="none" xmlns="http://www.w3.org/2000/svg">
<path d="M10.8692 6.3567L8.60764 2.75604C8.37369 2.39994 7.90577 2.28123 7.55484 2.51864C7.20391 2.75604 7.08693 3.23086 7.32088 3.58697L9.58246 7.18762C9.73843 7.42503 9.97238 7.54373 10.2453 7.54373C10.4013 7.54373 10.5183 7.50416 10.6743 7.42503C10.9862 7.22719 11.1032 6.71281 10.8692 6.3567Z" fill="#4D0D9F" stroke="#4D0D9F" stroke-width="0.6"/>
<path d="M8.02303 13.835L4.4747 16.1299C4.12377 16.3673 4.00679 16.8421 4.24074 17.1982C4.39671 17.4356 4.63067 17.5543 4.90362 17.5543C5.05959 17.5543 5.17657 17.5148 5.33254 17.4356L8.88087 15.1407C9.23181 14.9033 9.34878 14.4285 9.11483 14.0724C8.88087 13.7163 8.41296 13.6372 8.02303 13.835Z" fill="#4D0D9F" stroke="#4D0D9F" stroke-width="0.6"/>
<path d="M17.9274 9.20559C18.0834 9.20559 18.2004 9.16602 18.3564 9.08688L21.9047 6.79196C22.2556 6.55456 22.3726 6.07974 22.1386 5.72364C21.9047 5.36753 21.4368 5.24882 21.0858 5.48623L17.5375 7.78115C17.1866 8.01856 17.0696 8.49337 17.3036 8.84948C17.4205 9.08689 17.6545 9.20559 17.9274 9.20559Z" fill="#4D0D9F" stroke="#4D0D9F" stroke-width="0.6"/>
<path d="M14.0275 6.79195C14.0665 6.79195 14.1445 6.79195 14.1835 6.79195C14.5344 6.79195 14.8463 6.55455 14.9243 6.15887L15.8601 1.9647C15.9381 1.52946 15.7042 1.13378 15.2753 1.01508C14.8463 0.935943 14.4564 1.17335 14.3394 1.60859L13.4036 5.80276C13.3256 6.27758 13.5986 6.67325 14.0275 6.79195Z" fill="#4D0D9F" stroke="#4D0D9F" stroke-width="0.6"/>
<path d="M7.78894 10.907C8.13988 10.907 8.45182 10.6696 8.52981 10.2739C8.60779 9.83867 8.37383 9.44299 7.94492 9.32429L3.85068 8.4538C3.42177 8.37466 3.03184 8.61207 2.91486 9.04731C2.83688 9.48256 3.07083 9.87823 3.49975 9.99694L7.63297 10.907C7.67197 10.907 7.74995 10.907 7.78894 10.907Z" fill="#4D0D9F" stroke="#4D0D9F" stroke-width="0.6"/>
<path d="M37.0729 33.0253C36.9559 32.5109 36.9559 31.68 36.9559 30.7304C36.9559 27.6837 36.9949 23.0542 33.5245 17.5148L31.4189 14.1515C31.068 13.558 30.4831 13.1623 29.8202 13.0041C29.1573 12.8458 28.4555 12.9645 27.8706 13.3602C27.8706 13.3602 27.8316 13.3602 27.8316 13.3997C27.4807 13.6371 27.2077 13.9141 27.0128 14.2702C26.7008 14.0328 26.3499 13.8745 25.9989 13.7954C25.2971 13.6371 24.5952 13.7558 24.0103 14.1515C23.9713 14.1515 23.9713 14.1911 23.9323 14.1911C23.5034 14.5076 23.1525 14.9033 22.9575 15.4177C22.2167 15.0616 21.3198 15.1011 20.54 15.5364C20.501 15.5364 20.462 15.576 20.423 15.576C20.111 15.7738 19.8381 16.0508 19.6431 16.3673L16.2898 10.9465C15.8998 10.3135 15.237 9.83865 14.4961 9.68038C13.7552 9.52211 12.9754 9.64081 12.3515 10.0761C12.3515 10.0761 12.3515 10.0761 12.3125 10.1156H12.2735C11.6496 10.5113 11.1817 11.1839 11.0258 11.9357C10.8698 12.6875 10.9868 13.4789 11.4157 14.112L17.1086 23.1729C16.8357 23.2916 16.5627 23.4895 16.2898 23.6873C16.1728 23.7665 16.0168 23.8852 15.8608 23.9643C15.198 24.3995 14.7301 25.0722 14.5351 25.8635C14.3791 26.6549 14.4961 27.4858 14.925 28.1585L16.9136 31.3239C16.9526 31.3634 16.9916 31.4426 17.0306 31.4821C19.4482 34.8454 22.3726 35.7555 24.4002 36.3094C24.9461 36.4677 25.4141 36.6259 25.765 36.7842C25.843 36.8238 25.882 36.8238 25.9599 36.8238C26.8958 37.0216 27.1687 37.4964 27.6756 38.3669L27.8706 38.6439C28.0266 38.8813 28.2605 39 28.5335 39C28.6894 39 28.8064 38.9604 28.9624 38.8813C29.3133 38.6439 29.4303 38.1691 29.1963 37.813L29.0404 37.536C28.4945 36.6259 27.9096 35.6367 26.3499 35.2806C25.921 35.0828 25.453 34.9641 24.8682 34.8058C22.8405 34.2123 20.0721 33.3814 17.9275 29.939L16.2508 27.288C16.0558 26.9714 15.9778 26.5758 16.0558 26.1801C16.1338 25.7844 16.3678 25.4679 16.6797 25.27C16.8357 25.1513 16.9916 25.0722 17.1086 24.9535C17.3816 24.7556 17.7715 24.4787 17.8495 24.4787C17.8495 24.4787 17.8885 24.5182 18.0054 24.6369L20.345 28.3563C20.501 28.5937 20.7349 28.7124 21.0079 28.7124C21.1639 28.7124 21.2808 28.6728 21.4368 28.5937C21.7877 28.3563 21.9047 27.8815 21.6708 27.5254L19.3702 23.806L12.7414 13.2415C12.5465 12.9249 12.5075 12.6084 12.5855 12.2523C12.6634 11.8962 12.8584 11.6192 13.1704 11.4214C13.1704 11.4214 13.1704 11.4214 13.2093 11.3818H13.2483C13.5603 11.1839 13.8722 11.1444 14.2232 11.2235C14.5741 11.3026 14.847 11.5005 15.042 11.817L19.7211 19.2953L21.9047 22.8168C22.0607 23.0542 22.2946 23.1729 22.5676 23.1729C22.7236 23.1729 22.8405 23.1334 22.9965 23.0542C23.3474 22.8168 23.4644 22.342 23.2305 21.9859L21.0469 18.4644C20.7349 17.95 20.8909 17.2378 21.3978 16.9213C21.9047 16.6047 22.6066 16.763 22.9185 17.2774L25.1021 20.7989C25.2581 21.0363 25.492 21.155 25.765 21.155C25.921 21.155 26.0379 21.1154 26.1939 21.0363C26.5448 20.7989 26.6618 20.3241 26.4279 19.968L24.5952 17.04C24.4392 16.8026 24.4002 16.486 24.4392 16.209C24.5172 15.9321 24.6732 15.6551 24.9071 15.4968C25.1411 15.3385 25.453 15.299 25.726 15.3385C25.9989 15.4177 26.2719 15.576 26.4279 15.8134L27.1687 16.9608L28.6504 19.2953C28.8064 19.5327 29.0404 19.6514 29.3133 19.6514C29.4693 19.6514 29.5863 19.6119 29.7422 19.5327C30.0932 19.2953 30.2102 18.8205 29.9762 18.4644L28.3775 16.0903C28.2215 15.8529 28.1825 15.576 28.2605 15.299C28.3385 15.022 28.4945 14.7846 28.6894 14.6659C28.9234 14.5076 29.1963 14.4681 29.4693 14.5472C29.7422 14.6263 29.9762 14.7846 30.0932 14.9824L32.1988 18.3457C35.4352 23.4895 35.3962 27.8419 35.3962 30.7304C35.3962 31.8383 35.3962 32.7087 35.5521 33.421C35.6301 33.7771 35.9421 34.0145 36.293 34.0145C36.371 34.0145 36.41 34.0145 36.488 33.9749C36.9169 33.8562 37.1898 33.421 37.0729 33.0253Z" fill="#4D0D9F" stroke="#4D0D9F" stroke-width="0.6"/>
</svg>
