<svg width="42" height="40" viewBox="0 0 42 40" fill="none" xmlns="http://www.w3.org/2000/svg">
<path d="M39.2222 2H24.5556C23.5778 2 22.3778 2.57074 21.8889 3.26832C21.6444 3.61736 21.3222 3.79138 21 3.79138C20.6778 3.79138 20.3556 3.61685 20.1111 3.26832C19.6218 2.57074 18.4218 2 17.4444 2H2.77778C1.8 2 1 2.91319 1 4.02931V33.4543C1 34.5705 1.8 35.4837 2.77778 35.4837H17.4444C18.4218 35.4837 19.6191 36.2766 20.104 37.2456L20.1178 37.2735C20.3604 37.7575 20.68 38 21 38C21.3196 38 21.6391 37.7575 21.8818 37.273L21.8956 37.2451C22.3809 36.2766 23.5778 35.4837 24.5556 35.4837H39.2222C40.2 35.4837 41 34.5705 41 33.4543V4.02931C41 2.91319 40.2 2 39.2222 2ZM17.4444 33.9617H2.77778C2.53689 33.9617 2.33333 33.7293 2.33333 33.4543V4.02931C2.33333 3.75434 2.53689 3.52198 2.77778 3.52198H17.4444C18.0929 3.52198 18.8778 3.94509 19.0698 4.21905C19.4071 4.7 19.8489 5.03484 20.3333 5.1987V35.2538C19.5178 34.472 18.4387 33.9617 17.4444 33.9617ZM39.6667 33.4543C39.6667 33.7293 39.4631 33.9617 39.2222 33.9617H24.5556C23.5613 33.9617 22.4818 34.472 21.6667 35.2538V5.1987C22.1511 5.03534 22.5929 4.70051 22.9302 4.21905C23.1227 3.94509 23.9071 3.52198 24.5556 3.52198H39.2222C39.4631 3.52198 39.6667 3.75434 39.6667 4.02931V33.4543Z" fill="#4D0D9F" stroke="#4D0D9F" stroke-width="0.6"/>
<path d="M17.0002 23.0551H14.005C13.6366 23.0551 13.3384 23.396 13.3384 23.8161C13.3384 24.2362 13.6366 24.5771 14.005 24.5771H17.0002C17.3682 24.5771 17.6668 24.2362 17.6668 23.8161C17.6668 23.396 17.3682 23.0551 17.0002 23.0551Z" fill="#4D0D9F" stroke="#4D0D9F" stroke-width="0.6"/>
<path d="M17.0002 28.1284H14.005C13.6366 28.1284 13.3384 28.4693 13.3384 28.8894C13.3384 29.3094 13.6366 29.6504 14.005 29.6504H17.0002C17.3682 29.6504 17.6668 29.3094 17.6668 28.8894C17.6668 28.4693 17.3682 28.1284 17.0002 28.1284Z" fill="#4D0D9F" stroke="#4D0D9F" stroke-width="0.6"/>
<path d="M16.9999 17.9818H13.8888C13.5208 17.9818 13.2222 18.3228 13.2222 18.7428C13.2222 19.1629 13.5208 19.5038 13.8888 19.5038H16.9999C17.3679 19.5038 17.6666 19.1629 17.6666 18.7428C17.6666 18.3228 17.3679 17.9818 16.9999 17.9818Z" fill="#4D0D9F" stroke="#4D0D9F" stroke-width="0.6"/>
<path d="M16.9999 7.83275H5.88883C5.52083 7.83275 5.22217 8.17317 5.22217 8.59374C5.22217 9.01381 5.52083 9.35473 5.88883 9.35473H16.9999C17.3679 9.35473 17.6666 9.01381 17.6666 8.59374C17.6666 8.17317 17.3679 7.83275 16.9999 7.83275Z" fill="#4D0D9F" stroke="#4D0D9F" stroke-width="0.6"/>
<path d="M14.3333 14.428C14.7013 14.428 14.9999 14.0871 14.9999 13.667C14.9999 13.2464 14.7013 12.906 14.3333 12.906H5.88883C5.52083 12.906 5.22217 13.2464 5.22217 13.667C5.22217 14.0871 5.52083 14.428 5.88883 14.428H14.3333Z" fill="#4D0D9F" stroke="#4D0D9F" stroke-width="0.6"/>
<path d="M36.1113 23.0541H25.0002C24.6322 23.0541 24.3335 23.395 24.3335 23.8151C24.3335 24.2352 24.6322 24.5761 25.0002 24.5761H36.1113C36.4793 24.5761 36.7779 24.2352 36.7779 23.8151C36.7779 23.395 36.4793 23.0541 36.1113 23.0541Z" fill="#4D0D9F" stroke="#4D0D9F" stroke-width="0.6"/>
<path d="M33.4446 28.1274H25.0002C24.6322 28.1274 24.3335 28.4683 24.3335 28.8884C24.3335 29.3085 24.6322 29.6494 25.0002 29.6494H33.4446C33.8126 29.6494 34.1113 29.3085 34.1113 28.8884C34.1113 28.4683 33.8126 28.1274 33.4446 28.1274Z" fill="#4D0D9F" stroke="#4D0D9F" stroke-width="0.6"/>
<path d="M11.2222 17.9818H5.88883C5.71328 17.9818 5.54172 18.063 5.41728 18.2045C5.29283 18.3461 5.22217 18.5424 5.22217 18.7428V28.8894C5.22217 29.0898 5.29328 29.2856 5.41728 29.4277C5.54128 29.5697 5.71328 29.6504 5.88883 29.6504H11.2222C11.3977 29.6504 11.5693 29.5692 11.6937 29.4277C11.8182 29.2861 11.8888 29.0898 11.8888 28.8894V18.7428C11.8888 18.5424 11.8177 18.3466 11.6937 18.2045C11.5697 18.0625 11.3977 17.9818 11.2222 17.9818ZM10.5555 28.1284H6.5555V19.5038H10.5555V28.1284Z" fill="#4D0D9F" stroke="#4D0D9F" stroke-width="0.6"/>
<path d="M36.1113 7.83427H25.0002C24.8246 7.83427 24.6531 7.91545 24.5286 8.05699C24.4042 8.19854 24.3335 8.39487 24.3335 8.59527V18.7418C24.3335 18.9422 24.4046 19.1381 24.5286 19.2801C24.6526 19.4222 24.8246 19.5028 25.0002 19.5028H36.1113C36.2868 19.5028 36.4584 19.4216 36.5828 19.2801C36.7073 19.1386 36.7779 18.9422 36.7779 18.7418V8.59527C36.7779 8.39487 36.7068 8.19904 36.5828 8.05699C36.4588 7.91494 36.2868 7.83427 36.1113 7.83427ZM35.4446 17.9808H25.6668V9.35626H35.4446V17.9808Z" fill="#4D0D9F" stroke="#4D0D9F" stroke-width="0.6"/>
</svg>
