<svg width="42" height="40" viewBox="0 0 42 40" fill="none" xmlns="http://www.w3.org/2000/svg">
<path d="M8.75134 1.00032C8.64417 1.01063 8.54465 1.0615 8.47236 1.14288C8.40007 1.22426 8.36024 1.33027 8.3607 1.4401V3.65274H3.99633C2.35424 3.65274 1.01941 5.01433 1.01941 6.68993V8.47653C0.99353 8.56156 0.99353 8.65261 1.01941 8.73765V32.0872C1.01941 33.7628 2.35424 35.1245 3.99633 35.1245H23.7574V37.0622C23.7574 38.0942 24.4748 39 25.4411 39H39.3158C40.2821 39 40.9995 38.0942 40.9995 37.0622V19.5124C41.0002 19.4987 41.0002 19.4849 40.9995 19.4711C41.0002 19.4573 41.0002 19.4435 40.9995 19.4298C40.9957 19.4158 40.9912 19.402 40.9861 19.3884C40.9787 19.3454 40.9651 19.3037 40.9456 19.2647C40.9374 19.2504 40.9284 19.2366 40.9187 19.2234C40.9145 19.2141 40.91 19.205 40.9052 19.1961C40.9007 19.196 40.8963 19.196 40.8918 19.1961C40.8876 19.1869 40.8831 19.1778 40.8783 19.1688L40.8648 19.1552C40.8485 19.1353 40.8305 19.1169 40.8109 19.1002L38.1708 16.3654V8.69658C38.181 8.6421 38.181 8.58614 38.1708 8.53166V6.69009C38.1708 5.01449 36.8359 3.65287 35.1938 3.65287H30.5734V1.44026C30.5734 1.32363 30.528 1.21177 30.4472 1.1293C30.3663 1.04683 30.2567 1.0005 30.1424 1.00048H27.7582C27.7447 0.999839 27.7312 0.999839 27.7177 1.00048C27.6106 1.01079 27.511 1.06163 27.4388 1.14301C27.3665 1.2244 27.3266 1.33043 27.3271 1.44026V3.65287H11.6072V1.44026C11.6071 1.32363 11.5617 1.21177 11.4809 1.1293C11.4001 1.04683 11.2904 1.0005 11.1761 1.00048H8.79188C8.77842 0.999839 8.76493 0.999839 8.75147 1.00048L8.75134 1.00032ZM9.22282 1.87988H10.7449V4.0238C10.7443 4.03753 10.7443 4.0513 10.7449 4.06503V6.45632H9.22282V4.09251C9.22346 4.07879 9.22346 4.06501 9.22282 4.05128V1.87988ZM28.189 1.87988H29.7111V4.0238C29.7105 4.03753 29.7105 4.0513 29.7111 4.06503V6.45632H28.189V4.09251C28.1896 4.07879 28.1896 4.06501 28.189 4.05128V1.87988ZM3.99635 4.53229H8.36072V6.8961C8.36009 6.90983 8.36009 6.92357 8.36072 6.9373C8.36065 6.94188 8.36065 6.94645 8.36072 6.95102C8.3649 6.96034 8.36939 6.96951 8.3742 6.97851C8.37413 6.98308 8.37413 6.98765 8.3742 6.99222C8.37391 7.00138 8.37391 7.01055 8.3742 7.01971C8.37413 7.02428 8.37413 7.02885 8.3742 7.03342C8.38277 7.04299 8.39176 7.05216 8.40114 7.06091C8.40107 7.06548 8.40107 7.07008 8.40114 7.07465C8.40531 7.08397 8.4098 7.09314 8.41461 7.10214C8.41454 7.10671 8.41454 7.11128 8.41461 7.11586C8.45663 7.18652 8.51732 7.24368 8.58972 7.28077C8.60267 7.2907 8.61616 7.29988 8.63013 7.30826C8.64337 7.31351 8.65686 7.31808 8.67054 7.32197C8.70138 7.33009 8.733 7.33468 8.76483 7.33569C8.77381 7.33598 8.7828 7.33598 8.79177 7.33569H11.176C11.1895 7.33634 11.2029 7.33634 11.2164 7.33569C11.3065 7.32596 11.3914 7.28749 11.4589 7.22575C11.5051 7.18468 11.5423 7.13403 11.5678 7.07715C11.5934 7.02027 11.6068 6.95848 11.607 6.89591V4.5321H27.327V6.89591C27.3288 6.98481 27.357 7.07106 27.4078 7.14329C27.416 7.15753 27.425 7.17128 27.4348 7.18449C27.4719 7.22838 27.5173 7.26436 27.5681 7.2903C27.619 7.31625 27.6744 7.33165 27.7311 7.33566C27.7401 7.33595 27.7491 7.33595 27.758 7.33566H30.1423C30.1557 7.33631 30.1692 7.33631 30.1827 7.33566C30.2728 7.32593 30.3577 7.28746 30.4251 7.22572C30.4714 7.18466 30.5086 7.134 30.5341 7.07712C30.5597 7.02024 30.573 6.95845 30.5733 6.89589V4.53208H35.1937C36.3737 4.53208 37.3086 5.48564 37.3086 6.68971V8.17396H1.88188V6.68971C1.88188 5.48564 2.81678 4.53208 3.99669 4.53208L3.99635 4.53229ZM1.88153 9.05366H37.3082V15.4577L35.5167 13.6024C35.5122 13.6023 35.5077 13.6023 35.5032 13.6024C35.499 13.5931 35.4945 13.5839 35.4897 13.5749C35.4852 13.5748 35.4808 13.5748 35.4763 13.5749C35.4721 13.5656 35.4676 13.5564 35.4628 13.5474C35.4584 13.5427 35.4539 13.5381 35.4493 13.5337C35.4408 13.5241 35.4318 13.5149 35.4224 13.5062C35.4179 13.5061 35.4134 13.5061 35.4089 13.5062C35.4001 13.5013 35.3911 13.4967 35.382 13.4925C35.3776 13.4878 35.3731 13.4832 35.3685 13.4787C35.3597 13.4738 35.3507 13.4693 35.3416 13.465C35.3371 13.4649 35.3326 13.4649 35.3281 13.465C35.3193 13.4601 35.3103 13.4556 35.3012 13.4513C35.2967 13.4512 35.2922 13.4512 35.2877 13.4513C35.2789 13.4464 35.2699 13.4418 35.2607 13.4376C35.2563 13.4375 35.2518 13.4375 35.2473 13.4376C35.2383 13.4373 35.2293 13.4373 35.2203 13.4376C35.2159 13.4329 35.2115 13.4283 35.2069 13.4238C35.1934 13.4232 35.1799 13.4232 35.1665 13.4238H35.126H25.4408C25.1992 13.4238 24.9704 13.4877 24.7673 13.5888C24.762 13.5914 24.759 13.5998 24.7538 13.6025C24.5576 13.7031 24.3878 13.842 24.2419 14.0148C24.237 14.0204 24.2334 14.0227 24.2285 14.0285C24.086 14.1983 23.9605 14.4005 23.8782 14.6332C23.8371 14.7482 23.8054 14.867 23.7839 14.9905C23.7832 14.9949 23.7846 14.9999 23.7839 15.0042C23.764 15.1235 23.757 15.2373 23.757 15.3616C23.757 15.3662 23.757 15.3707 23.757 15.3753V34.2444H3.99596C2.81605 34.2444 1.88114 33.2908 1.88114 32.0868V9.05339L1.88153 9.05366ZM6.40755 13.2728V15.5679H12.0922V13.2728H6.40755ZM16.7527 13.2728V15.5679H22.4374V13.2728H16.7527ZM25.441 14.3173H34.7219C34.7215 14.3265 34.7224 14.3488 34.7219 14.3585C34.7186 14.4304 34.714 14.4485 34.7084 14.5921C34.7083 14.5966 34.7084 14.5987 34.7084 14.6058C34.7085 14.6201 34.7084 14.6325 34.7084 14.6333C34.7048 14.7286 34.6989 14.8598 34.695 14.9769C34.6922 15.0448 34.6977 15.1341 34.695 15.2105C34.6924 15.2929 34.6838 15.3651 34.6815 15.4442C34.6738 15.7188 34.6596 15.9625 34.6546 16.2825C34.6543 16.3004 34.6544 16.304 34.6546 16.2962C34.6545 16.3007 34.6545 16.3053 34.6546 16.3099C34.6499 16.6309 34.6529 16.9471 34.6546 17.2581C34.6546 17.2581 34.6545 17.2634 34.6546 17.2718C34.6563 17.5826 34.6566 17.888 34.668 18.1788C34.6682 18.1832 34.6679 18.1881 34.668 18.1924C34.6902 18.7734 34.7131 19.2249 34.8297 19.5805C34.8441 19.6246 34.8628 19.6658 34.8836 19.7042C34.8836 19.7043 34.9095 19.7464 34.924 19.7729C34.9262 19.7773 34.9217 19.7834 34.924 19.7865C34.9275 19.7935 34.9374 19.8001 34.9374 19.8001C34.9832 19.863 35.026 19.8934 35.0452 19.9101V19.9237C35.0521 19.9299 35.065 19.9312 35.0721 19.9374C35.0752 19.9418 35.0659 19.933 35.0856 19.951C35.2004 20.048 35.2858 20.0717 35.355 20.1022C35.3731 20.1101 35.391 20.1224 35.4089 20.1295C35.4552 20.1479 35.5093 20.1554 35.5571 20.1708C35.5615 20.1755 35.566 20.18 35.5705 20.1844C35.4149 20.1389 35.4342 20.1497 35.611 20.1981C35.6234 20.2024 35.6419 20.2095 35.6514 20.2117C35.6778 20.2188 35.7049 20.2234 35.7322 20.2253C35.8696 20.257 36.0073 20.2795 36.1632 20.2941C36.7239 20.3463 37.4033 20.3095 38.0625 20.2527C39.12 20.162 39.7729 20.0408 40.137 19.9779V37.0606C40.137 37.6888 39.7414 38.1188 39.3153 38.1188H25.4407C25.0146 38.1188 24.619 37.6888 24.619 37.0606V34.7518C24.6207 34.7289 24.6207 34.7059 24.619 34.6831V15.3741V15.3604C24.6204 15.2027 24.6445 15.0528 24.6863 14.9344C24.7309 14.8085 24.7903 14.7054 24.8749 14.6045C24.8972 14.5779 24.944 14.5239 24.9962 14.4809C25.0841 14.4084 25.1758 14.3557 25.279 14.3297C25.3183 14.3201 25.3783 14.316 25.4407 14.316L25.441 14.3173ZM35.5573 14.9082L39.6523 19.1548C39.1914 19.2301 38.8256 19.3023 37.9819 19.3747C37.3492 19.429 36.7111 19.4593 36.2443 19.416C36.1143 19.4042 36.0026 19.3971 35.9075 19.3747C35.8977 19.3699 35.9008 19.3633 35.8941 19.3611C35.8808 19.3558 35.8673 19.3513 35.8537 19.3475C35.8061 19.3343 35.7516 19.3193 35.719 19.3061C35.7113 19.3017 35.7119 19.3105 35.7055 19.3061C35.6619 19.2867 35.6581 19.281 35.6516 19.2789C35.6318 19.2126 35.6056 19.0711 35.5842 18.8941C35.5834 18.8866 35.5851 18.8743 35.5842 18.8668C35.5618 18.6708 35.5406 18.4243 35.5304 18.1522C35.5199 17.885 35.5187 17.5852 35.5169 17.2726C35.515 16.9649 35.512 16.6362 35.5169 16.3243C35.517 16.3199 35.5168 16.315 35.5169 16.3106C35.517 16.306 35.517 16.3014 35.5169 16.2969C35.5174 16.261 35.5161 16.2345 35.5169 16.2007C35.5229 15.8595 35.5369 15.6719 35.5438 15.4723C35.5494 15.2824 35.5511 15.0955 35.5573 14.9088L35.5573 14.9082ZM26.2897 19.0861C26.2327 19.0892 26.1769 19.1038 26.1254 19.129C26.074 19.1542 26.0279 19.1895 25.99 19.233C25.952 19.2765 25.9228 19.3272 25.9042 19.3822C25.8855 19.4373 25.8778 19.4955 25.8813 19.5537C25.8849 19.6118 25.8997 19.6686 25.9249 19.7209C25.9501 19.7731 25.9853 19.8197 26.0282 19.858C26.0712 19.8964 26.1212 19.9256 26.1754 19.9441C26.2295 19.9626 26.2867 19.9699 26.3436 19.9657H32.4455C32.5027 19.9665 32.5594 19.9557 32.6124 19.934C32.6654 19.9123 32.7136 19.88 32.7543 19.8391C32.795 19.7982 32.8273 19.7494 32.8493 19.6957C32.8714 19.6419 32.8827 19.5842 32.8827 19.5259C32.8827 19.4676 32.8714 19.4099 32.8493 19.3562C32.8273 19.3024 32.795 19.2536 32.7543 19.2127C32.7136 19.1718 32.6654 19.1395 32.6124 19.1178C32.5594 19.0961 32.5027 19.0853 32.4455 19.0861H26.3436C26.3257 19.085 26.3077 19.085 26.2897 19.0861ZM6.40755 19.4297V21.7248H12.0922V19.4297H6.40755ZM16.7527 19.4297V21.7248H22.4374V19.4297H16.7527ZM26.3436 22.3295C26.2865 22.3287 26.2298 22.3394 26.1768 22.3612C26.1238 22.3829 26.0755 22.4152 26.0348 22.4561C25.9942 22.497 25.9619 22.5458 25.9398 22.5995C25.9178 22.6533 25.9064 22.711 25.9064 22.7693C25.9064 22.8276 25.9178 22.8853 25.9398 22.939C25.9619 22.9928 25.9942 23.0415 26.0348 23.0825C26.0755 23.1234 26.1238 23.1556 26.1768 23.1774C26.2298 23.1991 26.2865 23.2099 26.3436 23.209H37.497C37.5541 23.2099 37.6108 23.1991 37.6638 23.1774C37.7169 23.1556 37.7651 23.1234 37.8058 23.0825C37.8464 23.0415 37.8787 22.9928 37.9008 22.939C37.9228 22.8853 37.9342 22.8276 37.9342 22.7693C37.9342 22.711 37.9228 22.6533 37.9008 22.5995C37.8787 22.5458 37.8464 22.497 37.8058 22.4561C37.7651 22.4152 37.7169 22.3829 37.6638 22.3612C37.6108 22.3394 37.5541 22.3287 37.497 22.3295H26.3436ZM6.40755 25.5866V27.8817H12.0922V25.5866H6.40755ZM16.7527 25.5866V27.8817H22.4374V25.5866H16.7527ZM26.2492 25.5866C26.1922 25.5924 26.137 25.6098 26.0866 25.6375C26.0362 25.6653 25.9917 25.703 25.9557 25.7483C25.9197 25.7937 25.8928 25.846 25.8766 25.902C25.8605 25.9581 25.8554 26.0168 25.8616 26.0749C25.8678 26.1329 25.8853 26.1892 25.9129 26.2403C25.9406 26.2915 25.9778 26.3366 26.0226 26.3729C26.0674 26.4093 26.1189 26.4363 26.1739 26.4523C26.229 26.4683 26.2866 26.473 26.3435 26.4661H37.4969C37.554 26.467 37.6107 26.4562 37.6637 26.4345C37.7167 26.4127 37.765 26.3805 37.8057 26.3395C37.8463 26.2986 37.8786 26.2499 37.9007 26.1961C37.9227 26.1423 37.9341 26.0846 37.9341 26.0264C37.9341 25.9681 37.9227 25.9104 37.9007 25.8566C37.8786 25.8028 37.8463 25.7541 37.8057 25.7132C37.765 25.6722 37.7167 25.64 37.6637 25.6182C37.6107 25.5965 37.554 25.5857 37.4969 25.5866H26.3435C26.3122 25.5831 26.2805 25.5831 26.2492 25.5866ZM26.2896 28.8299C26.2326 28.833 26.1768 28.8476 26.1253 28.8728C26.0739 28.898 26.0278 28.9333 25.9898 28.9768C25.9519 29.0203 25.9227 29.071 25.9041 29.1261C25.8854 29.1811 25.8777 29.2393 25.8812 29.2975C25.8848 29.3556 25.8996 29.4124 25.9248 29.4647C25.95 29.5169 25.9852 29.5635 26.0281 29.6018C26.0711 29.6401 26.1211 29.6694 26.1753 29.6879C26.2294 29.7064 26.2866 29.7137 26.3435 29.7095H37.4969C37.554 29.7103 37.6107 29.6996 37.6637 29.6778C37.7167 29.6561 37.765 29.6239 37.8057 29.5829C37.8463 29.542 37.8786 29.4932 37.9007 29.4395C37.9227 29.3857 37.9341 29.328 37.9341 29.2697C37.9341 29.2114 37.9227 29.1537 37.9007 29.1C37.8786 29.0462 37.8463 28.9974 37.8057 28.9565C37.765 28.9156 37.7167 28.8833 37.6637 28.8616C37.6107 28.8399 37.554 28.8291 37.4969 28.8299H26.3435C26.3256 28.8288 26.3076 28.8288 26.2896 28.8299ZM36.4732 31.235C36.4047 31.2466 36.34 31.2749 36.2846 31.3175L29.8322 35.7289L28.2562 33.0902C28.227 33.0406 28.1885 32.9973 28.1429 32.9628C28.0973 32.9284 28.0456 32.9034 27.9905 32.8894C27.9355 32.8753 27.8783 32.8725 27.8222 32.881C27.766 32.8895 27.7121 32.9093 27.6635 32.939C27.6148 32.9688 27.5724 33.0081 27.5386 33.0546C27.5049 33.1011 27.4804 33.1539 27.4666 33.2101C27.4529 33.2662 27.4501 33.3246 27.4584 33.3819C27.4668 33.4391 27.4861 33.4941 27.5153 33.5437L29.3203 36.5809C29.3516 36.6303 29.3923 36.6728 29.4399 36.7059C29.4876 36.7389 29.5413 36.7619 29.5978 36.7735C29.6543 36.785 29.7125 36.7848 29.7689 36.773C29.8254 36.7612 29.879 36.7379 29.9265 36.7046L36.7694 32.0456C36.8561 31.9929 36.9219 31.9109 36.9554 31.8138C36.9888 31.7166 36.9879 31.6106 36.9526 31.5142C36.9174 31.4177 36.8501 31.3369 36.7624 31.2858C36.6748 31.2348 36.5724 31.2168 36.473 31.2348L36.4732 31.235Z" fill="#4D0D9F" stroke="#4D0D9F" stroke-width="0.8"/>
</svg>
