<svg width="42" height="42" viewBox="0 0 42 42" fill="none" xmlns="http://www.w3.org/2000/svg">
<path d="M29.3333 41H4.33333C2.49536 41 1 39.5044 1 37.6661V20.9967C1 19.1585 2.49536 17.6629 4.33333 17.6629H29.3333C31.1713 17.6629 32.6667 19.1585 32.6667 20.9967V37.6661C32.6667 39.5044 31.1713 41 29.3333 41ZM4.33333 19.3298C3.41414 19.3298 2.66667 20.0774 2.66667 20.9967V37.6661C2.66667 38.5855 3.41414 39.3331 4.33333 39.3331H29.3333C30.2525 39.3331 31 38.5855 31 37.6661V20.9967C31 20.0774 30.2525 19.3298 29.3333 19.3298H4.33333Z" fill="#4D0D9F" stroke="#4D0D9F" stroke-width="0.4"/>
<path d="M23.5 37.6661H10.1667C9.24748 37.6661 8.5 36.9185 8.5 35.9992V22.6637C8.5 21.7443 9.24748 20.9967 10.1667 20.9967H23.5C24.4192 20.9967 25.1667 21.7443 25.1667 22.6637V35.9992C25.1667 36.9185 24.4192 37.6661 23.5 37.6661ZM10.1667 22.6637V35.9992H23.5012L23.5 22.6637H10.1667Z" fill="#4D0D9F" stroke="#4D0D9F" stroke-width="0.4"/>
<path d="M14.3333 33.4988C14.1812 33.4988 14.029 33.4569 13.8951 33.3742C13.6497 33.2224 13.5 32.9543 13.5 32.6653V25.9976C13.5 25.7086 13.6497 25.4404 13.8951 25.2886C14.1405 25.1372 14.4477 25.123 14.7061 25.252L21.3727 28.5859C21.6551 28.7271 21.8333 29.0156 21.8333 29.3314C21.8333 29.6472 21.6551 29.9358 21.3727 30.077L14.7061 33.4109C14.5885 33.4695 14.4607 33.4988 14.3333 33.4988ZM15.1667 27.3462V31.3166L19.1368 29.3314L15.1667 27.3462Z" fill="#4D0D9F" stroke="#4D0D9F" stroke-width="0.4"/>
<path d="M40.1667 39.333C40.0621 39.333 39.9571 39.3135 39.857 39.2736L31.5237 35.9397C31.2075 35.8128 31 35.5063 31 35.1657V23.4971C31 23.1565 31.2075 22.8501 31.5237 22.7231L39.857 19.3892C40.1146 19.2866 40.4051 19.318 40.6338 19.473C40.8629 19.6281 41 19.8865 41 20.1633V38.4996C41 38.7763 40.8629 39.0347 40.6338 39.1898C40.4938 39.2846 40.3311 39.333 40.1667 39.333ZM32.6667 34.6012L39.3333 37.2685V21.3943L32.6667 24.0616V34.6012Z" fill="#4D0D9F" stroke="#4D0D9F" stroke-width="0.4"/>
<path d="M30.4283 6.5665C30.2151 6.5665 30.0019 6.48511 29.8391 6.32232C24.9653 1.44766 17.0352 1.44848 12.1613 6.32232C11.8358 6.64789 11.3084 6.64789 10.9829 6.32232C10.6574 5.99674 10.6574 5.46931 10.9829 5.14374C13.6546 2.47159 17.2122 1 21 1C24.7882 1 28.3458 2.47159 31.0175 5.14374C31.343 5.46931 31.343 5.99674 31.0175 6.32232C30.8547 6.48511 30.6415 6.5665 30.4283 6.5665Z" fill="#4D0D9F" stroke="#4D0D9F" stroke-width="0.4"/>
<path d="M27.4819 10.3468C27.2686 10.3468 27.0554 10.2654 26.8927 10.1026C25.3212 8.53134 23.2285 7.66572 20.9999 7.66572C18.7713 7.66572 16.6786 8.53134 15.1076 10.1026C14.7821 10.4282 14.2547 10.4282 13.9292 10.1026C13.6037 9.77706 13.6037 9.24963 13.9292 8.92406C15.8148 7.03777 18.3262 5.99878 20.9999 5.99878C23.6737 5.99878 26.1851 7.03777 28.071 8.92406C28.3966 9.24963 28.3966 9.77706 28.071 10.1026C27.9083 10.2654 27.6951 10.3468 27.4819 10.3468Z" fill="#4D0D9F" stroke="#4D0D9F" stroke-width="0.4"/>
<path d="M24.5353 14.1271C24.3221 14.1271 24.1089 14.0457 23.9461 13.883C22.3218 12.2583 19.6777 12.2583 18.0534 13.883C17.7279 14.2085 17.2005 14.2085 16.875 13.883C16.5495 13.5574 16.5495 13.03 16.875 12.7044C19.1496 10.4294 22.8499 10.4294 25.1245 12.7044C25.45 13.03 25.45 13.5574 25.1245 13.883C24.9618 14.0457 24.7485 14.1271 24.5353 14.1271Z" fill="#4D0D9F" stroke="#4D0D9F" stroke-width="0.4"/>
</svg>
