<svg width="40" height="40" viewBox="0 0 40 40" fill="none" xmlns="http://www.w3.org/2000/svg">
<path d="M31.6876 9.15421C31.6876 7.40187 32.9376 6 34.5001 6C36.0626 6 37.3126 7.40187 37.3126 9.15421C37.3126 10.9065 36.0626 12.3084 34.5001 12.3084C32.9376 12.3084 31.6876 10.9065 31.6876 9.15421Z" fill="#4D0D9F"/>
<path d="M21.3748 10.3458C21.3123 9.99533 21.4998 9.57477 21.8123 9.50468C22.1248 9.36449 22.4998 9.57477 22.5623 9.99533L23.8123 14.8318H28.5623C28.8748 14.8318 29.1873 15.1122 29.1873 15.5327C29.1873 15.9533 28.8748 16.2336 28.5623 16.2336H23.3123C22.9998 16.2336 22.8123 16.0234 22.6873 15.743L21.3748 10.3458Z" fill="#4D0D9F"/>
<path d="M35.1875 26.1869H31.75C31.5 26.1869 31.25 26.3972 31.25 26.7477V31.0934C31.25 32.3551 30.375 33.3364 29.25 33.3364C28.125 33.3364 27.25 32.2149 27.25 31.0234V23.9439C27.25 22.6822 28.125 21.7009 29.25 21.7009H31.25C31.5 21.7009 31.75 21.4906 31.75 21.1402V16.4439C31.75 14.8318 32.875 13.5701 34.3125 13.5701H34.875C36.3125 13.5701 37.4375 14.8318 37.4375 16.4439V23.5934C37.5 24.9953 36.4375 26.1869 35.1875 26.1869Z" fill="#4D0D9F"/>
<path d="M10.8125 15.5327C10.8125 15.1121 11.125 14.8318 11.4375 14.8318H16.1875L17.4375 9.99531C17.5 9.64484 17.875 9.43456 18.1875 9.50466C18.5 9.57475 18.6875 9.99531 18.625 10.3458L17.25 15.6729C17.1875 15.9533 16.9375 16.1635 16.625 16.1635H11.375C11.0625 16.2336 10.8125 15.8832 10.8125 15.5327Z" fill="#4D0D9F"/>
<path d="M28 19.3878H25.5625V31.3738C25.5625 31.7243 25.3125 32.0747 24.9375 32.0747C24.5625 32.0747 24.3125 31.7243 24.3125 31.3738V19.3878H15.5625V31.3738C15.5625 31.7243 15.3125 32.0747 14.9375 32.0747C14.625 32.0747 14.3125 31.7243 14.3125 31.3738V19.3878H12.0625C11.75 19.3878 11.4375 19.1074 11.4375 18.6869C11.4375 18.2663 11.75 17.9859 12.0625 17.9859H28C28.3125 17.9859 28.625 18.2663 28.625 18.6869C28.625 19.1074 28.3125 19.3878 28 19.3878Z" fill="#4D0D9F"/>
<path d="M40 21V27.5888C40 28.3598 39.4375 28.9907 38.75 28.9907H34.0625V35.2991C34.0625 35.6495 33.75 36 33.4375 36C33.0625 36 32.8125 35.6495 32.8125 35.2991V28.9907C32.8125 28.2196 33.375 27.5888 34.0625 27.5888H38.75V21C38.75 20.6495 39.0625 20.2991 39.375 20.2991C39.75 20.2991 40 20.6495 40 21Z" fill="#4D0D9F"/>
<path d="M7.1875 28.9907V35.2991C7.1875 35.6495 6.9375 36 6.5625 36C6.25 36 5.9375 35.6495 5.9375 35.2991V28.9907H1.25C0.5625 28.9907 0 28.3598 0 27.5888V21C0 20.6495 0.3125 20.2991 0.625 20.2991C0.9375 20.2991 1.25 20.6495 1.25 21V27.5888H5.9375C6.625 27.5888 7.1875 28.2196 7.1875 28.9907Z" fill="#4D0D9F"/>
<path d="M2.68738 9.15421C2.68738 7.40187 3.93738 6 5.49988 6C7.06238 6 8.31238 7.40187 8.31238 9.15421C8.31238 10.9065 7.06238 12.3084 5.49988 12.3084C3.93738 12.3084 2.68738 10.9065 2.68738 9.15421Z" fill="#4D0D9F"/>
<path d="M12.6875 23.9439V31.0234C12.6875 32.2149 11.875 33.2663 10.875 33.3364C9.5625 33.4766 8.6875 32.3551 8.6875 31.0935V26.7477C8.6875 26.4673 8.5 26.1869 8.1875 26.1869H4.8125C3.5625 26.1869 2.5625 25.0654 2.5625 23.5934V16.4439C2.5625 14.8318 3.6875 13.5701 5.125 13.5701H5.625C7.0625 13.5701 8.1875 14.8318 8.1875 16.4439V21.1402C8.1875 21.4206 8.375 21.7009 8.6875 21.7009H10.6875C11.8125 21.7009 12.6875 22.6822 12.6875 23.9439Z" fill="#4D0D9F"/>
</svg>
