<svg width="40" height="40" viewBox="0 0 40 40" fill="none" xmlns="http://www.w3.org/2000/svg">
<path d="M39.5325 12.7565L39.5332 12.7516L39.5198 12.7426L39.5176 12.7402L39.515 12.7394L34 9.05176V3.05882C34.0001 2.91975 33.9743 2.78203 33.924 2.65353C33.8738 2.52503 33.8002 2.40827 33.7073 2.30994C33.6144 2.2116 33.5041 2.13361 33.3828 2.08043C33.2614 2.02725 33.1313 1.99992 33 2H7C6.86866 1.99992 6.73858 2.02725 6.61722 2.08043C6.49586 2.13361 6.38559 2.2116 6.29272 2.30994C6.19984 2.40827 6.12619 2.52503 6.07596 2.65353C6.02573 2.78203 5.99992 2.91975 6 3.05882V9.05176L0.485 12.7394L0.4824 12.7402L0.4802 12.7426L0.4668 12.7516L0.46815 12.7559C0.325577 12.8507 0.207917 12.9821 0.126079 13.1379C0.0442416 13.2937 0.000875148 13.4688 1.80234e-07 13.6471V36.9412C-7.86972e-05 37.0802 0.0257331 37.218 0.0759599 37.3465C0.126187 37.475 0.199843 37.5917 0.292718 37.6901C0.385592 37.7884 0.495862 37.8664 0.617223 37.9196C0.738585 37.9728 0.868656 38.0001 1 38H39C39.1313 38.0001 39.2614 37.9728 39.3828 37.9196C39.5041 37.8664 39.6144 37.7884 39.7073 37.6901C39.8002 37.5917 39.8738 37.475 39.924 37.3465C39.9743 37.218 40.0001 37.0802 40 36.9412V13.6471C39.9991 13.469 39.9558 13.294 39.8741 13.1383C39.7924 12.9826 39.6749 12.8513 39.5325 12.7565V12.7565ZM37.0033 13.5639L34 15.2375V11.5559L37.0033 13.5639ZM32 4.11765V16.352L20 23.0388L8 16.352V4.11765H32ZM6 15.2375L2.9967 13.5639L6 11.5559V15.2375ZM38 35.8824H2V15.4007L19.535 25.1724C19.6782 25.2528 19.8378 25.2949 19.9998 25.2949C20.1619 25.2949 20.3215 25.2528 20.4647 25.1724L38 15.4007V35.8824Z" fill="#4D0D9F"/>
<path d="M13 10.4706H27C27.2652 10.4706 27.5196 10.359 27.7071 10.1605C27.8946 9.9619 28 9.69259 28 9.41177C28 9.13095 27.8946 8.86164 27.7071 8.66307C27.5196 8.4645 27.2652 8.35295 27 8.35295H13C12.7348 8.35295 12.4804 8.4645 12.2929 8.66307C12.1054 8.86164 12 9.13095 12 9.41177C12 9.69259 12.1054 9.9619 12.2929 10.1605C12.4804 10.359 12.7348 10.4706 13 10.4706Z" fill="#4D0D9F"/>
<path d="M13 14.7059H27C27.2652 14.7059 27.5196 14.5943 27.7071 14.3958C27.8946 14.1972 28 13.9279 28 13.647C28 13.3662 27.8946 13.0969 27.7071 12.8983C27.5196 12.6998 27.2652 12.5882 27 12.5882H13C12.7348 12.5882 12.4804 12.6998 12.2929 12.8983C12.1054 13.0969 12 13.3662 12 13.647C12 13.9279 12.1054 14.1972 12.2929 14.3958C12.4804 14.5943 12.7348 14.7059 13 14.7059Z" fill="#4D0D9F"/>
</svg>
