<svg width="42" height="40" viewBox="0 0 42 40" fill="none" xmlns="http://www.w3.org/2000/svg">
<path d="M8.91235 19.3288C6.35366 19.3288 4.27206 17.149 4.27206 14.4701C4.27206 11.7913 6.35366 9.61115 8.91235 9.61115C11.471 9.61115 13.5523 11.7909 13.5523 14.4701C13.5523 17.1493 11.471 19.3288 8.91235 19.3288ZM8.91235 10.9748C7.06494 10.9748 5.56238 12.543 5.56238 14.4701C5.56238 16.3973 7.06494 17.9651 8.91235 17.9651C10.7594 17.9651 12.262 16.3973 12.262 14.4701C12.262 12.543 10.7594 10.9748 8.91235 10.9748Z" fill="#4D0D9F" stroke="#4D0D9F"/>
<path d="M10.7789 32.7814H2.68644C1.75645 32.7814 1 31.987 1 31.0107V28.7804C1 24.2147 4.54932 20.5001 8.91219 20.5001C10.6283 20.5001 12.2615 21.066 13.6344 22.1365C13.9212 22.3601 13.9821 22.7869 13.7705 23.09C13.5589 23.3927 13.1554 23.4575 12.8683 23.2339C11.7189 22.3376 10.3509 21.8637 8.91219 21.8637C5.26093 21.8637 2.29031 24.9667 2.29031 28.7804V31.0107C2.29031 31.235 2.46805 31.4177 2.68644 31.4177H10.7793C11.1354 31.4177 11.4244 31.7232 11.4244 32.0995C11.4244 32.4759 11.1354 32.7814 10.7789 32.7814Z" fill="#4D0D9F" stroke="#4D0D9F"/>
<path d="M39.3134 32.2655H31.2209C30.8648 32.2655 30.5758 31.9601 30.5758 31.5837C30.5758 31.2073 30.8648 30.9019 31.2209 30.9019H39.3137C39.5321 30.9019 39.7099 30.7192 39.7099 30.4949V28.2646C39.7099 24.4505 36.7393 21.3479 33.088 21.3479C31.5628 21.3479 30.0741 21.9029 28.8958 22.911C28.619 23.1476 28.2129 23.1029 27.9884 22.8101C27.7645 22.5176 27.8067 22.088 28.0842 21.8511C29.4913 20.6474 31.2683 19.9843 33.088 19.9843C37.4505 19.9843 40.9999 23.6988 40.9999 28.2646V30.4949C40.9999 31.4709 40.2434 32.2655 39.3134 32.2655Z" fill="#4D0D9F" stroke="#4D0D9F"/>
<path d="M33.0879 18.9919C30.5292 18.9919 28.4479 16.8121 28.4479 14.1333C28.4479 11.4544 30.5292 9.27431 33.0879 9.27431C35.6465 9.27431 37.7281 11.4541 37.7281 14.1333C37.7281 16.8125 35.6462 18.9919 33.0879 18.9919ZM33.0879 10.6379C31.2408 10.6379 29.7382 12.2061 29.7382 14.1333C29.7382 16.0604 31.2408 17.6283 33.0879 17.6283C34.9353 17.6283 36.4378 16.0604 36.4378 14.1333C36.4378 12.2061 34.9349 10.6379 33.0879 10.6379Z" fill="#4D0D9F" stroke="#4D0D9F"/>
<path d="M29.7562 35H12.2435C11.0803 35 10.1338 34.0073 10.1338 32.7868V29.6501C10.1338 23.3812 15.008 18.2812 20.9999 18.2812C26.9918 18.2812 31.8659 23.3812 31.8659 29.6501V32.7868C31.8659 34.0073 30.9195 35 29.7562 35ZM20.9999 19.6451C15.7199 19.6451 11.4241 24.1335 11.4241 29.6505V32.7872C11.4241 33.2556 11.7919 33.6367 12.2435 33.6367H29.7559C30.2075 33.6367 30.5753 33.2556 30.5753 32.7872V29.6505C30.5756 24.1335 26.2798 19.6451 20.9999 19.6451Z" fill="#4D0D9F" stroke="#4D0D9F"/>
<path d="M20.7756 17.4844C17.4879 17.4844 14.8128 14.6842 14.8128 11.242C14.8128 7.79989 17.4876 5 20.7756 5C24.0637 5 26.7385 7.80023 26.7385 11.2424C26.7385 14.6845 24.0634 17.4844 20.7756 17.4844ZM20.7756 6.36364C18.1992 6.36364 16.1031 8.55227 16.1031 11.2424C16.1031 13.9325 18.1992 16.1211 20.7756 16.1211C23.3521 16.1211 25.4482 13.9325 25.4482 11.2424C25.4482 8.55227 23.3521 6.36364 20.7756 6.36364Z" fill="#4D0D9F" stroke="#4D0D9F"/>
</svg>
