<svg width="42" height="40" viewBox="0 0 42 40" fill="none" xmlns="http://www.w3.org/2000/svg">
<path d="M6.4329 4C3.43773 4 1 6.43445 1 9.47087V22.4015C1 25.4249 3.43773 27.8724 6.4329 27.8724H6.86078V31.0136C6.86078 31.4191 6.99034 31.799 7.31448 31.982C7.62571 32.1654 8.02777 32.0997 8.36436 31.8907L14.8734 27.8724H20.2155V28.5009C20.2155 30.8697 22.1082 32.7678 24.4551 32.7678H30.2509L35.2171 35.8429C35.4896 36.0133 35.8262 36.0659 36.1116 35.8955C36.3841 35.7381 36.5008 35.4239 36.5008 35.0971V32.7674H36.747C39.0939 32.7674 41 30.8693 41 28.5005V18.6062C41 16.2505 39.0939 14.3393 36.747 14.3393H34.5947V9.47087C34.5947 6.43445 32.1699 4 29.1618 4H6.4329ZM6.4329 4.73327H29.1623C31.7683 4.73327 33.8689 6.84042 33.8689 9.47134V14.3402H24.4556C22.1087 14.3402 20.2159 16.2509 20.2159 18.6072V27.127H14.783C14.7056 27.127 14.6406 27.1536 14.5885 27.1927L7.98858 31.2622C7.794 31.38 7.70363 31.3539 7.67735 31.3278C7.65107 31.3148 7.58652 31.2492 7.58652 31.0136V27.4925C7.58652 27.3091 7.41822 27.1261 7.22365 27.1261H6.4329C3.82688 27.1261 1.7262 25.032 1.7262 22.4015V9.47087C1.7262 6.84042 3.82688 4.73327 6.4329 4.73327ZM16.5204 8.10956C14.511 8.09652 12.4878 9.4313 12.1503 11.8397C12.0991 12.0492 12.2545 12.2717 12.4486 12.2978C12.6427 12.3369 12.8507 12.167 12.8631 11.9575C13.161 9.90245 14.8208 8.84236 16.5199 8.84236C17.8165 8.8554 18.8018 9.24833 19.4372 9.88942C20.0596 10.544 20.345 11.4207 20.2155 12.4808C20.0333 13.829 19.0872 14.7448 18.1019 15.7006C17.1032 16.669 16.0533 17.703 16.0791 19.2738C16.0916 19.4573 16.2608 19.6402 16.4549 19.6272C16.6495 19.6272 16.8178 19.4438 16.8178 19.2608C16.792 18.0303 17.6214 17.1928 18.6072 16.2374C19.593 15.2821 20.7337 14.235 20.9412 12.586C21.0971 11.3294 20.7466 10.1906 19.9559 9.39266C19.1785 8.58118 17.9728 8.10956 16.5204 8.10956ZM24.4556 15.0726H36.7475C38.7052 15.0726 40.2743 16.6434 40.2743 18.6062V28.5005C40.2743 30.4637 38.7052 32.0341 36.7475 32.0341H36.1384C35.9438 32.0341 35.7751 32.2045 35.7751 32.4005V35.0971C35.7751 35.254 35.7363 35.267 35.7492 35.267C35.7617 35.254 35.7363 35.2931 35.6063 35.2149L30.5367 32.0867C30.4846 32.0602 30.4196 32.0341 30.3546 32.0341H24.4556C22.4978 32.0341 20.9417 30.4637 20.9417 28.5005V18.6062C20.9417 16.6434 22.4978 15.0726 24.4556 15.0726ZM30.1997 18.5019C30.1868 18.515 30.1734 18.515 30.1605 18.515C29.9922 18.5541 29.8755 18.7245 29.8755 18.8814V25.8309C29.8755 26.0148 30.0438 26.1978 30.2384 26.1978C30.433 26.1978 30.6142 26.0143 30.6017 25.8309V18.8814C30.6147 18.6719 30.4072 18.4884 30.1997 18.5019ZM16.3516 21.3419C15.8979 21.3419 15.5221 21.7209 15.5221 22.1794C15.5221 22.638 15.8975 23.004 16.3516 23.004C16.7929 23.004 17.1558 22.6376 17.1558 22.1794C17.1558 21.7213 16.7929 21.3419 16.3516 21.3419ZM30.2384 27.3491C29.7847 27.3491 29.4218 27.7285 29.4218 28.1736C29.4218 28.6317 29.7847 29.0116 30.2384 29.0116C30.6921 29.0116 31.055 28.6322 31.055 28.1736C31.0554 27.729 30.6926 27.3491 30.2384 27.3491Z" fill="#4D0D9F" stroke="#4D0D9F" stroke-width="1.5"/>
</svg>
