<svg width="42" height="42" viewBox="0 0 42 42" fill="none" xmlns="http://www.w3.org/2000/svg">
<path d="M19.4361 32.2415C17.5191 32.2454 15.6408 31.6947 14.0219 30.654C12.7421 29.829 11.6614 28.7233 10.8595 27.4185C10.0577 26.1136 9.55514 24.6429 9.38905 23.115C9.22296 21.587 9.39753 20.0407 9.89989 18.5903C10.4022 17.1398 11.2196 15.8222 12.2915 14.7347C13.2299 13.7782 14.3461 13.02 15.5756 12.5038C16.8051 11.9876 18.1234 11.7237 19.4542 11.7275C20.785 11.7238 22.1033 11.9877 23.3328 12.5039C24.5622 13.02 25.6785 13.7783 26.6169 14.7347C28.037 16.1691 29.0044 17.999 29.3959 19.992C29.7875 21.9849 29.5857 24.0508 28.816 25.9272C28.0464 27.8036 26.7437 29.4057 25.0736 30.53C23.4034 31.6543 21.4411 32.2501 19.4361 32.2415ZM19.4542 13.0724C18.2977 13.0693 17.1521 13.2988 16.0837 13.7475C15.0154 14.1962 14.0454 14.8552 13.23 15.6863C11.6081 17.3654 10.7053 19.6252 10.7177 21.9749C10.7301 24.3247 11.6566 26.5746 13.2961 28.236C14.9356 29.8975 17.1557 30.8363 19.4742 30.8487C21.7926 30.861 24.0223 29.9459 25.6789 28.302C26.4963 27.4736 27.1447 26.4902 27.5871 25.4078C28.0294 24.3255 28.2571 23.1654 28.2571 21.9939C28.2571 20.8224 28.0294 19.6623 27.5871 18.5799C27.1447 17.4976 26.4963 16.5142 25.6789 15.6858C24.8635 14.8546 23.8934 14.1956 22.8249 13.747C21.7564 13.2984 20.6107 13.0691 19.4542 13.0724Z" fill="#4D0D9F" stroke="#4D0D9F"/>
<path d="M21.6681 16.0903C20.7881 15.8133 19.8567 15.747 18.9472 15.8967L18.7349 14.569C19.8459 14.3852 20.9838 14.4658 22.0588 14.8046L21.6681 16.0903Z" fill="#4D0D9F" stroke="#4D0D9F"/>
<path d="M4.13288 40.6971C3.90608 40.6978 3.6814 40.6529 3.47184 40.565C3.26228 40.4771 3.07201 40.3479 2.91204 40.185L1.5054 38.7583C1.18179 38.4301 1 37.985 1 37.521C1 37.057 1.18179 36.6119 1.5054 36.2837L11.0004 26.6607C11.0707 26.5895 11.1558 26.5353 11.2495 26.5019C11.3432 26.4685 11.4432 26.4569 11.5419 26.4679C11.6406 26.4789 11.7357 26.5123 11.82 26.5655C11.9043 26.6186 11.9758 26.6903 12.0291 26.7753C12.7179 27.8833 13.6429 28.8208 14.7362 29.5189C14.82 29.573 14.8907 29.6454 14.9431 29.7309C14.9955 29.8164 15.0284 29.9127 15.0392 30.0128C15.05 30.1129 15.0385 30.2141 15.0055 30.309C14.9726 30.404 14.919 30.4902 14.8488 30.5614L5.35373 40.185C5.19378 40.3479 5.00351 40.4771 4.79394 40.565C4.58438 40.6529 4.35969 40.6978 4.13288 40.6971ZM11.3768 28.1831L2.44387 37.2364C2.36938 37.3123 2.32757 37.415 2.32757 37.5221C2.32757 37.6291 2.36938 37.7318 2.44387 37.8077L3.85103 39.2339C3.92693 39.3072 4.02777 39.3481 4.13262 39.3481C4.23747 39.3481 4.3383 39.3072 4.41421 39.2339L13.3476 30.18C12.6004 29.6126 11.9368 28.9402 11.3768 28.1831Z" fill="#4D0D9F" stroke="#4D0D9F"/>
<path d="M40.3364 10.8787H31.9162C31.8291 10.8788 31.7428 10.8615 31.6622 10.8277C31.5817 10.7939 31.5085 10.7444 31.4469 10.6819C31.3853 10.6195 31.3364 10.5453 31.3031 10.4637C31.2698 10.3821 31.2526 10.2946 31.2527 10.2063V1.67263C31.2527 1.53965 31.2915 1.40965 31.3644 1.29907C31.4373 1.1885 31.5409 1.10232 31.6621 1.05146C31.7833 1.0006 31.9167 0.987336 32.0454 1.01335C32.1741 1.03937 32.2922 1.10349 32.3849 1.19761L40.8056 9.73073C40.8984 9.82477 40.9616 9.9446 40.9872 10.0751C41.0128 10.2055 40.9997 10.3407 40.9495 10.4636C40.8993 10.5865 40.8142 10.6916 40.7051 10.7654C40.5959 10.8393 40.4676 10.8788 40.3364 10.8787ZM32.5797 9.53383H38.7371L32.5797 3.29619V9.53383Z" fill="#4D0D9F" stroke="#4D0D9F"/>
<path d="M40.3363 41H11.8055C11.7184 41.0001 11.6321 40.9827 11.5515 40.949C11.471 40.9152 11.3978 40.8657 11.3362 40.8032C11.2746 40.7407 11.2257 40.6666 11.1924 40.585C11.1591 40.5033 11.142 40.4159 11.142 40.3275V36.3768H12.469V39.6551H39.6728V10.4848L31.6412 2.3449H12.469V12.1686H11.142V1.67245C11.142 1.4941 11.2119 1.32306 11.3364 1.19696C11.4608 1.07085 11.6296 1 11.8055 1H31.9161C32.0032 1.00004 32.0894 1.0175 32.1699 1.05137C32.2503 1.08525 32.3233 1.13489 32.3848 1.19743L40.8055 9.73055C40.9297 9.85682 40.9996 10.0278 40.9998 10.2061V40.3275C40.9998 40.5059 40.9299 40.6769 40.8054 40.803C40.681 40.9291 40.5122 41 40.3363 41Z" fill="#4D0D9F" stroke="#4D0D9F"/>
<path d="M16.8338 20.0088H15.5068V25.4831H16.8338V20.0088Z" fill="#4D0D9F" stroke="#4D0D9F"/>
<path d="M19.8421 21.5732H18.5151V25.4831H19.8421V21.5732Z" fill="#4D0D9F" stroke="#4D0D9F"/>
<path d="M23.1151 18.4449H21.7881V25.4831H23.1151V18.4449Z" fill="#4D0D9F" stroke="#4D0D9F"/>
<path d="M17.851 4.45747H14.3779V5.80237H17.851V4.45747Z" fill="#4D0D9F" stroke="#4D0D9F"/>
<path d="M23.2476 7.32693H14.4341V8.67183H23.2476V7.32693Z" fill="#4D0D9F" stroke="#4D0D9F"/>
<path d="M37.0483 15.3963H30.856V16.7412H37.0483V15.3963Z" fill="#4D0D9F" stroke="#4D0D9F"/>
<path d="M37.0483 20.3278H30.856V21.6727H37.0483V20.3278Z" fill="#4D0D9F" stroke="#4D0D9F"/>
<path d="M37.0483 24.8106H30.856V26.1555H37.0483V24.8106Z" fill="#4D0D9F" stroke="#4D0D9F"/>
<path d="M37.0483 29.8314H27.7593V31.1763H37.0483V29.8314Z" fill="#4D0D9F" stroke="#4D0D9F"/>
</svg>
