<svg width="42" height="42" viewBox="0 0 42 42" fill="none" xmlns="http://www.w3.org/2000/svg">
<path d="M41 3.91667C41 2.33333 39.6498 1 38.0464 1H37.2025C35.5991 1 34.2489 2.33333 34.2489 3.91667V27C34.2489 27.25 34.1645 27.5833 34.2489 27.8333L36.7806 34.9167C36.865 35.25 37.2025 35.5 37.5401 35.5C37.8776 35.5 38.2152 35.25 38.2996 34.9167L40.8312 27.8333C40.9156 27.5833 40.8312 27.3333 40.8312 27.3333V3.91667H41ZM37.6245 32.1667L36.2742 28.4167H38.9747L37.6245 32.1667ZM39.3122 26.75H35.9367V8.08333H39.3122V26.75ZM39.3122 6.41667H35.9367V3.91667C35.9367 3.25 36.5274 2.66667 37.2025 2.66667H38.0464C38.7215 2.66667 39.3122 3.25 39.3122 3.91667V6.41667Z" fill="#4D0D9F" stroke="#4D0D9F" stroke-width="0.6"/>
<path d="M20.6625 40.75L30.6203 30.9167C30.7891 30.75 30.8735 30.5833 30.8735 30.3333V1.83333C30.8735 1.33333 30.5359 1 30.0296 1H1.84388C1.33755 1 1 1.33333 1 1.83333V40.1667C1 40.6667 1.33755 41 1.84388 41H20.0718C20.2405 41 20.4937 40.9167 20.6625 40.75ZM20.8313 38.1666V31.1667H27.9199L20.8313 38.1666ZM19.1435 30.3333V39.3333H2.6034V2.66667H29.1013V29.5H19.9874C19.5654 29.5 19.1435 29.8333 19.1435 30.3333Z" fill="#4D0D9F" stroke="#4D0D9F" stroke-width="0.6"/>
<path d="M5.55677 7.83334H26.2319C26.7382 7.83334 27.0758 7.50001 27.0758 7.00001C27.0758 6.50001 26.7382 6.16667 26.2319 6.16667H5.55677C5.05044 6.16667 4.71289 6.50001 4.71289 7.00001C4.71289 7.41667 5.05044 7.83334 5.55677 7.83334Z" fill="#4D0D9F" stroke="#4D0D9F" stroke-width="0.6"/>
<path d="M5.55677 13.9167H26.2319C26.7382 13.9167 27.0758 13.5833 27.0758 13.0833C27.0758 12.5833 26.7382 12.25 26.2319 12.25H5.55677C5.05044 12.25 4.71289 12.5833 4.71289 13.0833C4.71289 13.5 5.05044 13.9167 5.55677 13.9167Z" fill="#4D0D9F" stroke="#4D0D9F" stroke-width="0.6"/>
<path d="M5.55677 20H26.2319C26.7382 20 27.0758 19.6667 27.0758 19.1667C27.0758 18.6667 26.7382 18.3333 26.2319 18.3333H5.55677C5.05044 18.3333 4.71289 18.6667 4.71289 19.1667C4.71289 19.5833 5.05044 20 5.55677 20Z" fill="#4D0D9F" stroke="#4D0D9F" stroke-width="0.6"/>
<path d="M27.0758 25.25C27.0758 24.75 26.7382 24.4166 26.2319 24.4166H5.55677C5.05044 24.4166 4.71289 24.75 4.71289 25.25C4.71289 25.75 5.05044 26.0833 5.55677 26.0833H26.2319C26.7382 26.0833 27.0758 25.75 27.0758 25.25Z" fill="#4D0D9F" stroke="#4D0D9F" stroke-width="0.6"/>
<path d="M14.7551 30.5H5.55677C5.05044 30.5 4.71289 30.8333 4.71289 31.3333C4.71289 31.8333 5.05044 32.1667 5.55677 32.1667H14.7551C15.2614 32.1667 15.599 31.8333 15.599 31.3333C15.599 30.9167 15.177 30.5 14.7551 30.5Z" fill="#4D0D9F" stroke="#4D0D9F" stroke-width="0.6"/>
</svg>
