<svg width="42" height="42" viewBox="0 0 42 42" fill="none" xmlns="http://www.w3.org/2000/svg">
<path d="M4.89609 10.2153L3.40865 14.5895C3.40108 14.6114 3.40424 14.6339 3.39982 14.6564C3.39352 14.6911 3.38532 14.7246 3.38658 14.76C3.38721 14.7908 3.39541 14.8191 3.40171 14.8487C3.40802 14.8796 3.41243 14.9098 3.42504 14.9388C3.43829 14.9703 3.45909 14.996 3.47864 15.0243C3.49188 15.0436 3.49882 15.0655 3.51584 15.0835C3.51963 15.0873 3.5253 15.0886 3.52908 15.0925C3.55304 15.1163 3.58268 15.1317 3.61105 15.1497C3.6369 15.1652 3.66023 15.1851 3.68861 15.196C3.69302 15.198 3.69618 15.2018 3.70059 15.2031C3.75166 15.2211 3.804 15.2301 3.8557 15.2301C3.91056 15.2301 3.96415 15.2179 4.0146 15.1993C4.03036 15.1935 4.04486 15.1838 4.06063 15.1761C4.09657 15.1587 4.12872 15.1369 4.15962 15.1105C4.16719 15.1041 4.17727 15.1015 4.18484 15.0944L9.07718 10.2681H21.7579C24.263 10.2681 26.3009 8.18935 26.3009 5.63404C26.3009 3.07872 24.263 1 21.7579 1H5.54302C3.0379 1 1 3.07872 1 5.63404C1 7.96424 2.69741 9.8931 4.89609 10.2153ZM5.54302 1.96411H21.7573C23.7409 1.96411 25.3545 3.60998 25.3545 5.63339C25.3545 7.6568 23.7403 9.30267 21.7573 9.30267H8.89369C8.89306 9.30267 8.89306 9.30267 8.89243 9.30267H8.88549V9.30396C8.76695 9.30396 8.64841 9.3477 8.55698 9.43838L4.95284 12.9938L5.9907 9.94263C6.07645 9.69115 5.94593 9.41652 5.69876 9.32904C5.64769 9.31039 5.59535 9.30718 5.54365 9.30718V9.30267C3.55998 9.30267 1.94644 7.6568 1.94644 5.63339C1.94644 3.60998 3.55935 1.96411 5.54302 1.96411Z" fill="#4D0D9F" stroke="#4D0D9F" stroke-width="0.6"/>
<path d="M41 17.6401C41 14.6629 38.6254 12.24 35.7066 12.24H16.5005C13.5817 12.24 11.2065 14.6629 11.2065 17.6401C11.2065 20.618 13.5817 23.0401 16.5005 23.0401H31.5558L37.375 28.7811C37.3826 28.7881 37.3914 28.7907 37.399 28.7965C37.4299 28.8235 37.4639 28.8454 37.4999 28.8634C37.515 28.8711 37.5289 28.8801 37.544 28.8859C37.5951 28.9039 37.6481 28.9168 37.7036 28.9168C37.7546 28.9168 37.807 28.9078 37.8587 28.8904C37.8637 28.8885 37.8669 28.8846 37.8713 28.8827C37.8978 28.8724 37.9198 28.8537 37.9444 28.839C37.9747 28.8203 38.0062 28.8029 38.0314 28.7785C38.0352 28.7746 38.0403 28.7734 38.044 28.7695C38.0598 28.7528 38.0667 28.7309 38.08 28.7123C38.1002 28.684 38.121 28.6569 38.1355 28.6248C38.1475 28.5958 38.1512 28.5669 38.1582 28.5367C38.1651 28.5058 38.1727 28.4769 38.1733 28.4447C38.1746 28.4112 38.1664 28.3791 38.1601 28.3463C38.1557 28.3225 38.1588 28.2987 38.1506 28.2755L36.3555 22.9945C38.969 22.6677 41 20.3935 41 17.6401ZM35.7066 22.076V22.0825C35.6556 22.0825 35.6032 22.085 35.5515 22.1024C35.305 22.1899 35.1738 22.4645 35.2596 22.7166L36.6077 26.6818L32.076 22.2117C31.984 22.121 31.8654 22.0773 31.7475 22.0773V22.076H16.5005C14.1032 22.076 12.1523 20.0861 12.1523 17.6407C12.1523 15.1954 14.1032 13.2054 16.5005 13.2054H35.7066C38.1039 13.2054 40.0542 15.1954 40.0542 17.6407C40.0542 20.0861 38.1039 22.076 35.7066 22.076Z" fill="#4D0D9F" stroke="#4D0D9F" stroke-width="0.6"/>
<path d="M23.6615 25.524H5.92512C3.2094 25.524 1 27.7777 1 30.5478C1 33.0935 2.86702 35.198 5.27693 35.5234L3.63249 40.3588C3.62492 40.3813 3.62808 40.4031 3.62366 40.4256C3.61673 40.4604 3.60916 40.4938 3.61042 40.5292C3.61105 40.5601 3.61925 40.5884 3.62556 40.6179C3.63186 40.6488 3.63627 40.6791 3.64889 40.708C3.66213 40.7402 3.68356 40.7665 3.70311 40.7948C3.71635 40.8135 3.72329 40.8353 3.73968 40.8527C3.74347 40.8566 3.74851 40.8579 3.75229 40.8617C3.77688 40.8862 3.80715 40.9022 3.83742 40.9209C3.86264 40.9363 3.88534 40.9563 3.91245 40.9659C3.91686 40.9678 3.92002 40.9717 3.92506 40.9736C3.97613 40.991 4.02847 41 4.08017 41C4.13566 41 4.18862 40.9871 4.2397 40.9691C4.25546 40.9627 4.26933 40.9543 4.28447 40.9466C4.32104 40.9286 4.35383 40.9067 4.38472 40.8804C4.39229 40.8733 4.40175 40.8707 4.40931 40.8643L9.77392 35.5723H23.6628C26.3785 35.5723 28.5879 33.3186 28.5879 30.5478C28.586 27.7777 26.3766 25.524 23.6615 25.524ZM23.6615 34.6069H9.58098V34.6082C9.46244 34.6082 9.34389 34.6519 9.25247 34.7426L5.17541 38.7637L6.37154 35.2475C6.4573 34.9954 6.32678 34.7207 6.0796 34.6333C6.0279 34.6159 5.9762 34.6127 5.92449 34.6127V34.6069C3.73022 34.6069 1.94517 32.7861 1.94517 30.5472C1.94517 28.3096 3.73022 26.4882 5.92449 26.4882H23.6609C25.8545 26.4882 27.6402 28.309 27.6402 30.5472C27.6402 32.7861 25.8551 34.6069 23.6615 34.6069Z" fill="#4D0D9F" stroke="#4D0D9F" stroke-width="0.6"/>
</svg>
