<svg width="42" height="40" viewBox="0 0 42 40" fill="none" xmlns="http://www.w3.org/2000/svg">
<path d="M9 5C4.58534 5 1 8.58534 1 13V27C1 31.4146 4.58534 35 9 35H33C37.4147 35 41 31.4146 41 27V13C41 8.58534 37.4147 5 33 5H9V5ZM9 7H33C36.3412 7 39 9.65874 39 13V27C39 30.3412 36.3412 33 33 33H9C5.65875 33 3 30.3412 3 27V13C3 9.65874 5.65875 7 9 7V7ZM16.4219 13C16.1704 13.0197 15.9357 13.1337 15.7648 13.3192C15.5938 13.5046 15.4993 13.7478 15.5 14V26C15.4989 26.2497 15.5913 26.4908 15.759 26.6759C15.9267 26.861 16.1576 26.9766 16.4062 27C16.6056 27.0223 16.807 26.9842 16.9844 26.8906L27.9844 20.8906C28.1445 20.8054 28.2784 20.6782 28.3718 20.5227C28.4652 20.3672 28.5145 20.1892 28.5145 20.0078C28.5145 19.8264 28.4652 19.6484 28.3718 19.4929C28.2784 19.3374 28.1445 19.2102 27.9844 19.125L16.9844 13.125C16.8132 13.0291 16.6176 12.9856 16.4219 13V13ZM17.5 15.7031L25.3906 20L17.5 24.3125V15.7031Z" fill="#4D0D9F" stroke="#4D0D9F" stroke-width="0.6"/>
</svg>
