<svg width="40" height="40" viewBox="0 0 40 40" fill="none" xmlns="http://www.w3.org/2000/svg">
<path d="M4.38261 0H4.61449H35.3855H35.6174C36.8232 0 37.913 0.486956 38.7246 1.27536C39.513 2.08696 40 3.17681 40 4.38261V4.61449V12.4986V35.6174C40 36.8232 39.513 37.913 38.7246 38.7246C37.913 39.513 36.8232 40 35.6174 40H4.38261C3.17681 40 2.08696 39.513 1.27536 38.7246C0.486956 37.913 0 36.8232 0 35.6174V12.4986V4.61449V4.38261C0 3.17681 0.486956 2.08696 1.27536 1.27536C2.08696 0.486956 3.17681 0 4.38261 0V0ZM22.8174 26.0406L25.8783 29.1246C26.3652 29.6116 26.3652 30.4 25.8783 30.887C25.3913 31.3739 24.6029 31.3739 24.1159 30.887L21.0551 27.8029L18.4348 30.4232C17.9478 30.9101 17.1594 30.9101 16.6725 30.4232C16.487 30.2377 16.371 30.029 16.3246 29.7971L13.7971 20.313C13.6116 19.6638 14.0058 18.9681 14.6783 18.8058C14.9101 18.7362 15.1188 18.7362 15.3275 18.8058L24.858 21.3565C25.5304 21.5188 25.9246 22.2145 25.7391 22.887C25.6696 23.0957 25.5768 23.2812 25.4145 23.4435L22.8174 26.0406ZM19.4551 22.4928L16.7652 21.7739L18.2029 27.1304L20.1507 25.1594H20.1739L22.1217 23.2116L19.4551 22.4928ZM12.4986 5.0087C13.1942 5.0087 13.7507 5.56522 13.7507 6.26087C13.7507 6.93333 13.1942 7.48986 12.4986 7.48986C11.8029 7.48986 11.2464 6.93333 11.2464 6.26087C11.2464 5.56522 11.8029 5.0087 12.4986 5.0087ZM16.2551 5.0087H31.258C31.9304 5.0087 32.5101 5.56522 32.5101 6.26087C32.5101 6.93333 31.9304 7.48986 31.258 7.48986H16.2551C15.5594 7.48986 15.0029 6.93333 15.0029 6.26087C15.0029 5.56522 15.5594 5.0087 16.2551 5.0087ZM8.74203 5.0087C9.43768 5.0087 9.9942 5.56522 9.9942 6.26087C9.9942 6.93333 9.43768 7.48986 8.74203 7.48986C8.06957 7.48986 7.48986 6.93333 7.48986 6.26087C7.48986 5.56522 8.06957 5.0087 8.74203 5.0087ZM37.4957 12.4986H2.50435V35.6174C2.50435 36.1507 2.71304 36.6145 3.06087 36.9391C3.38551 37.287 3.84928 37.4957 4.38261 37.4957H35.6174C36.1507 37.4957 36.6145 37.287 36.9391 36.9391C37.287 36.6145 37.4957 36.1507 37.4957 35.6174V12.4986ZM4.61449 2.50435C4.03478 2.50435 3.50145 2.73623 3.13043 3.13043C2.73623 3.50145 2.50435 4.03478 2.50435 4.61449V9.9942H37.4957V4.61449C37.4957 4.03478 37.2638 3.50145 36.8696 3.13043C36.4986 2.73623 35.9652 2.50435 35.3855 2.50435H4.61449Z" fill="#4D0D9F"/>
</svg>
