<svg width="42" height="42" viewBox="0 0 42 42" fill="none" xmlns="http://www.w3.org/2000/svg">
<path d="M23.5874 6.68755C23.5467 6.69662 23.5069 6.7098 23.4688 6.72689L22.7314 7.05027L23.2648 8.27181L23.9448 7.9731C28.6288 6.89505 33.4835 6.78523 38.2114 7.65037L38.4501 6.33815C33.5241 5.43747 28.4657 5.55638 23.5874 6.68755Z" fill="#4D0D9F" stroke="#4D0D9F" stroke-width="0.5"/>
<path d="M23.5874 10.6882C23.5467 10.6973 23.5069 10.7105 23.4688 10.7276L22.7314 11.051L23.2648 12.2725L23.9448 11.9738C28.6288 10.8957 33.4835 10.7859 38.2114 11.6511L38.4501 10.3388C33.5241 9.43751 28.4656 9.55642 23.5874 10.6882Z" fill="#4D0D9F" stroke="#4D0D9F" stroke-width="0.5"/>
<path d="M23.5874 14.6889C23.5467 14.698 23.5069 14.7112 23.4688 14.7282L22.7314 15.0516L23.2648 16.2732L23.9448 15.9745C28.6287 14.8961 33.4836 14.7863 38.2114 15.6517L38.4501 14.3395C33.5241 13.4382 28.4656 13.5571 23.5874 14.6889Z" fill="#4D0D9F" stroke="#4D0D9F" stroke-width="0.5"/>
<path d="M23.5874 18.6896C23.5467 18.6986 23.5069 18.7118 23.4688 18.7289L22.7314 19.0523L23.2648 20.2738L23.9448 19.9751C28.6287 18.8964 33.4836 18.7866 38.2114 19.6524L38.4501 18.3402C33.5241 17.4391 28.4657 17.5581 23.5874 18.6896Z" fill="#4D0D9F" stroke="#4D0D9F" stroke-width="0.5"/>
<path d="M18.4126 6.68757C13.533 5.55586 8.47323 5.43695 3.5459 6.33818L3.78457 7.6504C8.51248 6.78524 13.3673 6.89506 18.0512 7.97312L18.7312 8.27184L19.2646 7.0503L18.5339 6.72758C18.4949 6.7101 18.4543 6.69669 18.4126 6.68757Z" fill="#4D0D9F" stroke="#4D0D9F" stroke-width="0.5"/>
<path d="M18.4126 10.6882C13.5331 9.55586 8.47318 9.43694 3.5459 10.3388L3.78457 11.6511C8.51248 10.7859 13.3673 10.8957 18.0512 11.9738L18.7312 12.2725L19.2646 11.051L18.5339 10.7282C18.4949 10.7108 18.4543 10.6973 18.4126 10.6882Z" fill="#4D0D9F" stroke="#4D0D9F" stroke-width="0.5"/>
<path d="M18.4126 14.6889C13.5331 13.5565 8.47318 13.4376 3.5459 14.3395L3.78457 15.6517C8.51248 14.7866 13.3673 14.8964 18.0512 15.9744L18.7312 16.2732L19.2646 15.0516L18.5339 14.7289C18.4949 14.7114 18.4543 14.698 18.4126 14.6889Z" fill="#4D0D9F" stroke="#4D0D9F" stroke-width="0.5"/>
<path d="M18.4126 18.6895C13.533 17.5575 8.4732 17.4386 3.5459 18.3401L3.78457 19.6524C8.51242 18.7865 13.3674 18.8963 18.0512 19.9751L18.7312 20.2738L19.2646 19.0523L18.5339 18.7295C18.4949 18.7121 18.4543 18.6987 18.4126 18.6895Z" fill="#4D0D9F" stroke="#4D0D9F" stroke-width="0.5"/>
<path d="M40.4307 1.66736L40.216 1.63536C34.3144 0.771842 28.2933 1.27368 22.616 3.10227L21.0393 3.61169L19.4527 2.90424C19.431 2.89433 19.4087 2.88565 19.386 2.87823C13.7088 1.04889 7.68761 0.547041 1.786 1.41132L1.57067 1.44266C1.41245 1.46568 1.26778 1.54481 1.16302 1.66562C1.05827 1.78642 1.00041 1.94086 1 2.10077V25.438C1.00004 25.5388 1.02292 25.6383 1.06691 25.7289C1.1109 25.8196 1.17487 25.8991 1.254 25.9615C1.33274 26.0243 1.4248 26.0682 1.52313 26.0899C1.62147 26.1117 1.72347 26.1106 1.82133 26.0868L6.07 25.072C8.68178 24.4521 11.4031 24.4583 14.012 25.09L15 25.3307V28.998H9.542C7.63085 29.0003 5.79863 29.7606 4.44724 31.1122C3.09585 32.4639 2.33563 34.2964 2.33333 36.2079V40.3332C2.33333 40.5101 2.40357 40.6797 2.5286 40.8047C2.65362 40.9298 2.82319 41 3 41H39C39.1768 41 39.3464 40.9298 39.4714 40.8047C39.5964 40.6797 39.6667 40.5101 39.6667 40.3332V36.2079C39.6644 34.2964 38.9042 32.4639 37.5528 31.1122C36.2014 29.7606 34.3692 29.0003 32.458 28.998H27V25.5567L27.988 25.316C30.5979 24.6831 33.3206 24.677 35.9333 25.298L40.182 26.3129C40.2797 26.3356 40.3814 26.3361 40.4793 26.3141C40.5772 26.2921 40.6689 26.2483 40.7476 26.1859C40.8262 26.1236 40.8897 26.0442 40.9335 25.9539C40.9772 25.8635 40.9999 25.7645 41 25.6641V2.32681C41 2.16687 40.9424 2.01227 40.8379 1.89122C40.7334 1.77016 40.5889 1.69071 40.4307 1.66736ZM20.994 26.9976H21C21.053 26.9977 21.1058 26.9914 21.1573 26.979L25.6667 25.8814V28.998C25.6655 29.1924 25.6522 29.3866 25.6267 29.5794C25.5407 30.2718 25.2988 30.9356 24.9193 31.5211C24.9113 31.5344 24.904 31.5484 24.8953 31.5617C24.8407 31.6444 24.7807 31.7231 24.7207 31.8024C24.6933 31.8391 24.6667 31.8771 24.638 31.9125C24.5827 31.9791 24.524 32.0458 24.4647 32.1125C24.4273 32.1545 24.3907 32.1972 24.352 32.2372C24.2933 32.2972 24.2327 32.3545 24.1713 32.4112C24.1273 32.4526 24.0833 32.4932 24.038 32.5326C23.976 32.5859 23.912 32.6366 23.8467 32.6866C23.7987 32.7246 23.7493 32.7613 23.6993 32.7973C23.6327 32.8446 23.566 32.89 23.4993 32.9306C23.4467 32.964 23.3933 32.9973 23.3393 33.028C23.2727 33.0687 23.1993 33.1073 23.1273 33.1447C23.07 33.174 23.0113 33.2014 22.9533 33.2287C22.8813 33.262 22.8093 33.2954 22.7353 33.324C22.672 33.3494 22.6073 33.372 22.5427 33.3947C22.478 33.4174 22.3993 33.4454 22.326 33.4667C22.2527 33.4881 22.18 33.5061 22.106 33.5241C22.032 33.5421 21.9727 33.5587 21.9 33.5721C21.8113 33.5894 21.7207 33.6014 21.63 33.6134C21.5733 33.6214 21.5167 33.6321 21.4593 33.6374C21.3093 33.6521 21.158 33.6608 21.004 33.6608C20.85 33.6608 20.6987 33.6521 20.5487 33.6374C20.4913 33.6321 20.4353 33.6214 20.378 33.6141C20.2873 33.6014 20.1967 33.5894 20.108 33.5721C20.0413 33.5587 19.9707 33.5407 19.902 33.5241C19.8333 33.5074 19.754 33.4887 19.682 33.4667C19.61 33.4447 19.5373 33.4201 19.4653 33.3947C19.3933 33.3694 19.336 33.3494 19.2727 33.324C19.1987 33.294 19.1267 33.262 19.0547 33.2287C18.9967 33.2014 18.938 33.174 18.8807 33.1447C18.8087 33.1073 18.738 33.0687 18.6687 33.028C18.6147 32.9966 18.5613 32.9613 18.5087 32.9306C18.442 32.8866 18.372 32.842 18.3087 32.7973C18.2587 32.7619 18.2093 32.7246 18.1607 32.6866C18.094 32.6366 18.032 32.5859 17.97 32.5326C17.9247 32.4932 17.8807 32.4526 17.8367 32.4112C17.7753 32.3545 17.7147 32.2972 17.656 32.2372C17.6173 32.1972 17.5807 32.1545 17.5433 32.1125C17.484 32.0458 17.4253 31.9791 17.37 31.9125C17.3407 31.8758 17.3147 31.8378 17.2867 31.8004C17.2273 31.7224 17.1673 31.6438 17.1133 31.5617C17.104 31.5471 17.096 31.5324 17.0867 31.5177C16.7086 30.9328 16.4675 30.2699 16.3813 29.5787C16.3532 29.3863 16.3372 29.1924 16.3333 28.998V25.6908L20.8173 26.9716C20.8747 26.9886 20.9342 26.9974 20.994 26.9976ZM14.3273 23.7971C11.5135 23.1147 8.57819 23.1081 5.76133 23.7778L2.33333 24.5972V2.6782C7.90849 1.91619 13.5835 2.4145 18.9407 4.13645L20.3333 4.75922V25.2567L14.3273 23.7971ZM32.4607 30.3315C34.0178 30.3342 35.5104 30.9542 36.6113 32.0558C37.7121 33.1573 38.3314 34.6504 38.3333 36.2079V39.6664H3.66667V36.2079C3.66861 34.65 4.28824 33.1564 5.38966 32.0548C6.49107 30.9532 7.98436 30.3335 9.542 30.3315H15.1533C15.158 30.3509 15.1647 30.3695 15.1693 30.3889C15.2716 30.8157 15.4205 31.2301 15.6133 31.6244C15.64 31.6784 15.664 31.7331 15.6913 31.7864C15.7393 31.8771 15.792 31.9638 15.844 32.0532C15.8853 32.1198 15.9253 32.1912 15.9693 32.2585C16.0207 32.3385 16.076 32.4159 16.1313 32.4926C16.1867 32.5692 16.2333 32.6326 16.2867 32.6999C16.34 32.7673 16.4013 32.8433 16.4613 32.9126C16.5213 32.982 16.58 33.046 16.6407 33.1127C16.7013 33.1793 16.764 33.246 16.8287 33.3067C16.8933 33.3674 16.962 33.4301 17.0287 33.4901C17.0953 33.5501 17.162 33.6088 17.2287 33.6648C17.2953 33.7208 17.388 33.7848 17.4687 33.8441C17.5864 33.933 17.708 34.0153 17.8333 34.0908C17.9187 34.1442 18.004 34.1995 18.0927 34.2489C18.1693 34.2915 18.25 34.3289 18.3287 34.3682C18.4073 34.4076 18.4947 34.4522 18.58 34.4896C18.6653 34.5269 18.7427 34.5562 18.8253 34.5896C18.908 34.6229 19.004 34.6563 19.092 34.6883C19.18 34.7203 19.2553 34.7409 19.3387 34.7649C19.4367 34.7936 19.5387 34.8183 19.6367 34.8416C19.7153 34.8603 19.7933 34.879 19.8727 34.8936C19.9893 34.9163 20.108 34.933 20.2273 34.9483C20.294 34.9563 20.3607 34.9676 20.4273 34.9743C20.6153 34.9923 20.8053 35.003 20.9973 35.003C21.1893 35.003 21.3793 34.9923 21.5673 34.9743C21.634 34.9676 21.7007 34.9563 21.7673 34.9483C21.8867 34.933 22.0053 34.9163 22.122 34.8936C22.2013 34.879 22.2793 34.8603 22.358 34.8416C22.458 34.8183 22.558 34.7936 22.656 34.7649C22.7393 34.7409 22.8213 34.7156 22.9027 34.6883C22.984 34.6609 23.0827 34.6216 23.1693 34.5896C23.256 34.5576 23.3347 34.5229 23.416 34.4896C23.4973 34.4562 23.5833 34.4102 23.666 34.3689C23.7487 34.3275 23.8253 34.2915 23.9027 34.2489C23.9913 34.1995 24.0767 34.1442 24.162 34.0908C24.2873 34.013 24.4089 33.9308 24.5267 33.8441C24.6073 33.7848 24.6893 33.7274 24.7667 33.6648C24.844 33.6021 24.9 33.5487 24.9667 33.4901C25.0333 33.4314 25.1 33.37 25.1667 33.3067C25.2333 33.2434 25.2927 33.1787 25.3547 33.1127C25.4167 33.0467 25.476 32.9793 25.534 32.9126C25.592 32.846 25.652 32.7726 25.7087 32.6999C25.7653 32.6273 25.8133 32.5666 25.864 32.4926C25.9147 32.4186 25.9747 32.3385 26.026 32.2585C26.07 32.1918 26.11 32.1252 26.1513 32.0532C26.2033 31.9651 26.256 31.8785 26.304 31.7864C26.3313 31.7338 26.3553 31.6791 26.3813 31.6258C26.5747 31.2311 26.7239 30.8163 26.826 30.3889C26.8307 30.3695 26.8373 30.3509 26.842 30.3315H32.4607ZM39.6667 24.8193L36.2393 24.0011C33.4224 23.3317 30.4872 23.3383 27.6733 24.0205L26.1767 24.3845L21.6667 25.482V4.81189L23.0247 4.37248C28.3921 2.64302 34.0794 2.14126 39.6667 2.90424V24.8193Z" fill="#4D0D9F" stroke="#4D0D9F" stroke-width="0.5"/>
</svg>
