<svg width="24" height="24" viewBox="0 0 24 24" fill="none" xmlns="http://www.w3.org/2000/svg">
<path d="M12 0C9.62663 0 7.30655 0.703788 5.33316 2.02236C3.35977 3.34094 1.8217 5.21508 0.913451 7.4078C0.00519941 9.60051 -0.232441 12.0133 0.230582 14.3411C0.693605 16.6689 1.83649 18.807 3.51472 20.4853C5.19295 22.1635 7.33115 23.3064 9.65892 23.7694C11.9867 24.2324 14.3995 23.9948 16.5922 23.0865C18.7849 22.1783 20.6591 20.6402 21.9776 18.6668C23.2962 16.6934 24 14.3734 24 12C24 10.4241 23.6896 8.8637 23.0866 7.4078C22.4835 5.95189 21.5996 4.62902 20.4853 3.51472C19.371 2.40042 18.0481 1.5165 16.5922 0.913445C15.1363 0.310389 13.5759 0 12 0V0ZM12 22.2C9.98263 22.2 8.01057 21.6018 6.33319 20.481C4.65581 19.3602 3.34845 17.7672 2.57643 15.9034C1.80442 14.0396 1.60243 11.9887 1.996 10.0101C2.38956 8.03147 3.36102 6.21401 4.78752 4.78751C6.21401 3.36101 8.03148 2.38956 10.0101 1.99599C11.9887 1.60242 14.0396 1.80441 15.9034 2.57643C17.7672 3.34844 19.3602 4.6558 20.481 6.33318C21.6018 8.01056 22.2 9.98263 22.2 12C22.2 14.7052 21.1254 17.2996 19.2125 19.2125C17.2996 21.1254 14.7052 22.2 12 22.2V22.2Z" fill="black"/>
<path d="M12 11.4C11.6817 11.4 11.3765 11.5265 11.1515 11.7515C10.9264 11.9765 10.8 12.2818 10.8 12.6V16.8C10.8 17.1183 10.9264 17.4235 11.1515 17.6486C11.3765 17.8736 11.6817 18 12 18C12.3183 18 12.6235 17.8736 12.8485 17.6486C13.0736 17.4235 13.2 17.1183 13.2 16.8V12.6C13.2 12.2818 13.0736 11.9765 12.8485 11.7515C12.6235 11.5265 12.3183 11.4 12 11.4Z" fill="black"/>
<path d="M12 6C11.644 6 11.296 6.10557 11 6.30335C10.704 6.50114 10.4733 6.78226 10.337 7.11117C10.2008 7.44008 10.1651 7.802 10.2346 8.15116C10.3041 8.50033 10.4755 8.82106 10.7272 9.07279C10.979 9.32453 11.2997 9.49596 11.6488 9.56541C11.998 9.63487 12.3599 9.59922 12.6888 9.46298C13.0177 9.32674 13.2989 9.09603 13.4967 8.80003C13.6944 8.50402 13.8 8.15601 13.8 7.8C13.8 7.32261 13.6104 6.86477 13.2728 6.52721C12.9352 6.18964 12.4774 6 12 6Z" fill="black"/>
</svg>
