<svg width="24" height="26" viewBox="0 0 24 26" fill="none" xmlns="http://www.w3.org/2000/svg">
<path d="M19.9632 11.164C19.9274 11.0711 19.8696 10.9925 19.7969 10.9373C19.7242 10.8821 19.6396 10.8528 19.5532 10.8528H13.3195L14.6037 1.6181C14.6196 1.50398 14.6035 1.38686 14.5579 1.28448C14.5124 1.1821 14.4398 1.10004 14.3511 1.05074C14.2625 1.00144 14.1627 0.987588 14.0668 1.01128C13.9709 1.03497 13.8841 1.09491 13.8197 1.18202L4.11207 14.2644C4.05492 14.3411 4.01773 14.4357 4.00494 14.5368C3.99215 14.6379 4.00431 14.7412 4.03996 14.8343C4.07562 14.9274 4.13325 15.0065 4.20597 15.062C4.27869 15.1174 4.36341 15.147 4.45 15.1472H10.6747L9.39054 24.3819C9.37464 24.496 9.39069 24.6131 9.43626 24.7155C9.48183 24.8179 9.55443 24.9 9.64306 24.9493C9.73169 24.9986 9.83153 25.0124 9.92743 24.9887C10.0233 24.965 10.1101 24.9051 10.1745 24.818L19.8821 11.733C19.9406 11.6574 19.9794 11.5635 19.9938 11.4626C20.0081 11.3616 19.9975 11.258 19.9632 11.164ZM10.535 22.7174L11.6502 14.7004C11.6611 14.6236 11.6575 14.5449 11.6398 14.4699C11.6221 14.3949 11.5906 14.3254 11.5477 14.2663C11.5047 14.2072 11.4512 14.1599 11.3911 14.1279C11.3309 14.0959 11.2656 14.0798 11.1996 14.0809H5.43676L13.4592 3.27998L12.344 11.2969C12.3335 11.3735 12.3373 11.4519 12.3552 11.5266C12.3731 11.6013 12.4046 11.6705 12.4475 11.7293C12.4905 11.7881 12.5438 11.835 12.6038 11.8669C12.6637 11.8988 12.7289 11.9148 12.7946 11.9138H18.5574L10.535 22.7174Z" fill="black" stroke="black" stroke-width="0.5" stroke-miterlimit="10"/>
</svg>
