<svg width="18" height="26" viewBox="0 0 18 26" fill="none" xmlns="http://www.w3.org/2000/svg">
<path d="M16.9632 11.164C16.9274 11.0711 16.8696 10.9925 16.7969 10.9373C16.7242 10.8821 16.6396 10.8528 16.5532 10.8528H10.3195L11.6037 1.6181C11.6196 1.50398 11.6035 1.38686 11.5579 1.28448C11.5124 1.1821 11.4398 1.10004 11.3511 1.05074C11.2625 1.00144 11.1627 0.987588 11.0668 1.01128C10.9709 1.03497 10.8841 1.09491 10.8197 1.18202L1.11207 14.2644C1.05492 14.3411 1.01773 14.4357 1.00494 14.5368C0.992153 14.6379 1.00431 14.7412 1.03996 14.8343C1.07562 14.9274 1.13325 15.0065 1.20597 15.062C1.27869 15.1174 1.36341 15.147 1.45 15.1472H7.67467L6.39054 24.3819C6.37464 24.496 6.39069 24.6131 6.43626 24.7155C6.48183 24.8179 6.55443 24.9 6.64306 24.9493C6.73169 24.9986 6.83153 25.0124 6.92743 24.9887C7.02334 24.965 7.11009 24.9051 7.17453 24.818L16.8821 11.733C16.9406 11.6574 16.9794 11.5635 16.9938 11.4626C17.0081 11.3616 16.9975 11.258 16.9632 11.164ZM7.53499 22.7174L8.65016 14.7004C8.66106 14.6236 8.65752 14.5449 8.63981 14.4699C8.6221 14.3949 8.59064 14.3254 8.54767 14.2663C8.50469 14.2072 8.45124 14.1599 8.39109 14.1279C8.33094 14.0959 8.26557 14.0798 8.19959 14.0809H2.43676L10.4592 3.27998L9.34404 11.2969C9.33352 11.3735 9.33733 11.4519 9.35521 11.5266C9.37308 11.6013 9.4046 11.6705 9.44754 11.7293C9.49048 11.7881 9.5438 11.835 9.60376 11.8669C9.66372 11.8988 9.72886 11.9148 9.79462 11.9138H15.5574L7.53499 22.7174Z" fill="black" stroke="black" stroke-width="0.5" stroke-miterlimit="10"/>
</svg>
