<svg width="26" height="24" viewBox="0 0 26 24" fill="none" xmlns="http://www.w3.org/2000/svg">
<path d="M15.88 18.6707C15.94 18.7001 16 18.7001 16.03 18.7001C16.09 18.7001 16.15 18.6707 16.21 18.6412L18.82 17.1098C18.91 17.0509 18.97 16.9331 18.97 16.8447C18.97 16.7269 18.91 16.6386 18.82 16.5797L16.21 15.0482C16.12 14.9893 15.97 14.9893 15.88 15.0482C15.79 15.1071 15.7 15.2249 15.7 15.3133V18.3762C15.7 18.5234 15.76 18.6118 15.88 18.6707ZM16.36 15.9023L18.01 16.8742L16.36 17.8461V15.9023V15.9023ZM9.37 5.27041H12.61C12.79 5.27041 12.94 5.12316 12.94 4.94645C12.94 4.76975 12.79 4.62249 12.61 4.62249H9.37C9.19 4.62249 9.04 4.76975 9.04 4.94645C9.04 5.15261 9.19 5.27041 9.37 5.27041ZM9.37 7.86211H15.73C15.91 7.86211 16.06 7.71486 16.06 7.53815C16.06 7.36144 15.91 7.21419 15.73 7.21419H9.37C9.19 7.21419 9.04 7.36144 9.04 7.53815C9.04 7.71486 9.19 7.86211 9.37 7.86211ZM4.75 17.9933C5.56 17.9933 6.19 17.3454 6.19 16.5797C6.19 15.7845 5.53 15.166 4.75 15.166C3.97 15.166 3.31 15.8139 3.31 16.5797C3.31 17.3454 3.97 17.9933 4.75 17.9933ZM4.75 15.7845C5.2 15.7845 5.56 16.1379 5.56 16.5797C5.56 17.0214 5.2 17.3748 4.75 17.3748C4.3 17.3748 3.94 17.0214 3.94 16.5797C3.97 16.1379 4.33 15.7845 4.75 15.7845ZM24.7 9.57028H18.97V4.88755C18.97 4.7992 18.94 4.71084 18.88 4.65194L15.16 1.08835C15.1 1.02945 15.01 1 14.92 1H6.7C6.52 1 6.37 1.14726 6.37 1.32396V13.34H1.33C1.15 13.34 1 13.4873 1 13.664V22.676C1 22.8527 1.15 23 1.33 23H12.58C12.76 23 12.91 22.8527 12.91 22.676V21.6158H24.67C24.85 21.6158 25 21.4685 25 21.2918V9.89424C25 9.71754 24.88 9.57028 24.7 9.57028ZM15.16 2.00134L17.92 4.65194H15.16V2.00134V2.00134ZM7.03 1.64792H14.5V4.94645C14.5 5.12316 14.65 5.27041 14.83 5.27041H18.31V9.57028H9.37C9.19 9.57028 9.04 9.71754 9.04 9.89424V13.2222C9.04 13.2517 9.04 13.3106 9.07 13.34H7.03V1.64792ZM12.28 22.3815H1.66V21.8809L3.94 19.6426L5.11 20.7912C5.23 20.909 5.44 20.909 5.56 20.7912L9.28 17.1392L12.28 20.0843V22.3815ZM12.28 19.1714L9.52 16.4618C9.4 16.344 9.19 16.344 9.07 16.4618L5.35 20.1138L4.18 18.9652C4.06 18.8474 3.85 18.8474 3.73 18.9652L1.69 20.9679V13.9879H12.28V19.1714ZM24.37 20.9973H12.91V13.664C12.91 13.4873 12.76 13.34 12.58 13.34H9.67C9.67 13.3106 9.7 13.2517 9.7 13.2222V12.4565H24.37V20.9973ZM24.37 11.838H9.7V10.2182H24.37V11.838Z" fill="black" stroke="black" stroke-width="0.4"/>
</svg>
