<?xml version="1.0" encoding="UTF-8" standalone="no"?>
<svg
   xmlns:dc="http://purl.org/dc/elements/1.1/"
   xmlns:cc="http://creativecommons.org/ns#"
   xmlns:rdf="http://www.w3.org/1999/02/22-rdf-syntax-ns#"
   xmlns:svg="http://www.w3.org/2000/svg"
   xmlns="http://www.w3.org/2000/svg"
   xmlns:sodipodi="http://sodipodi.sourceforge.net/DTD/sodipodi-0.dtd"
   xmlns:inkscape="http://www.inkscape.org/namespaces/inkscape"
   version="1.1"
   x="0px"
   y="0px"
   viewBox="0 0 24 24"
   xml:space="preserve"
   id="svg48"
   sodipodi:docname="browse_experts.svg"
   width="24"
   height="24"
   inkscape:version="0.92.4 (f8dce91, 2019-08-02)"><metadata
     id="metadata54"><rdf:RDF><cc:Work
         rdf:about=""><dc:format>image/svg+xml</dc:format><dc:type
           rdf:resource="http://purl.org/dc/dcmitype/StillImage" /><dc:title></dc:title></cc:Work></rdf:RDF></metadata><defs
     id="defs52" /><sodipodi:namedview
     pagecolor="#ffffff"
     bordercolor="#666666"
     borderopacity="1"
     objecttolerance="10"
     gridtolerance="10"
     guidetolerance="10"
     inkscape:pageopacity="0"
     inkscape:pageshadow="2"
     inkscape:window-width="1534"
     inkscape:window-height="944"
     id="namedview50"
     showgrid="false"
     inkscape:zoom="11.8"
     inkscape:cx="17.969208"
     inkscape:cy="25.683587"
     inkscape:window-x="70"
     inkscape:window-y="27"
     inkscape:window-maximized="0"
     inkscape:current-layer="svg48" /><style
     type="text/css"
     id="style2">
	.st0{display:none;}
	.st1{display:inline;}
	.st2{fill:none;stroke:#B3B3B3;stroke-width:0.1;stroke-miterlimit:10;}
	.st3{fill:#FFFFFF;}
</style><g
     class="st0"
     id="g28"
     style="display:none"
     transform="translate(0,-56)"><g
       class="st1"
       id="g26"
       style="display:inline"><rect
         x="2"
         y="2"
         class="st2"
         width="60"
         height="60"
         id="rect4"
         style="fill:none;stroke:#b3b3b3;stroke-width:0.1;stroke-miterlimit:10" /><line
         class="st2"
         x1="32"
         y1="2"
         x2="32"
         y2="62"
         id="line6"
         style="fill:none;stroke:#b3b3b3;stroke-width:0.1;stroke-miterlimit:10" /><line
         class="st2"
         x1="62"
         y1="32"
         x2="2"
         y2="32"
         id="line8"
         style="fill:none;stroke:#b3b3b3;stroke-width:0.1;stroke-miterlimit:10" /><line
         class="st2"
         x1="2"
         y1="2"
         x2="62"
         y2="62"
         id="line10"
         style="fill:none;stroke:#b3b3b3;stroke-width:0.1;stroke-miterlimit:10" /><rect
         x="10"
         y="10"
         class="st2"
         width="44"
         height="44"
         id="rect12"
         style="fill:none;stroke:#b3b3b3;stroke-width:0.1;stroke-miterlimit:10" /><line
         class="st2"
         x1="62"
         y1="2"
         x2="2"
         y2="62"
         id="line14"
         style="fill:none;stroke:#b3b3b3;stroke-width:0.1;stroke-miterlimit:10" /><line
         class="st2"
         x1="2"
         y1="32"
         x2="32"
         y2="2"
         id="line16"
         style="fill:none;stroke:#b3b3b3;stroke-width:0.1;stroke-miterlimit:10" /><line
         class="st2"
         x1="32"
         y1="2"
         x2="62"
         y2="32"
         id="line18"
         style="fill:none;stroke:#b3b3b3;stroke-width:0.1;stroke-miterlimit:10" /><line
         class="st2"
         x1="62"
         y1="32"
         x2="32"
         y2="62"
         id="line20"
         style="fill:none;stroke:#b3b3b3;stroke-width:0.1;stroke-miterlimit:10" /><line
         class="st2"
         x1="32"
         y1="62"
         x2="2"
         y2="32"
         id="line22"
         style="fill:none;stroke:#b3b3b3;stroke-width:0.1;stroke-miterlimit:10" /><circle
         class="st2"
         cx="32"
         cy="32"
         r="21"
         id="circle24"
         style="fill:none;stroke:#b3b3b3;stroke-width:0.1;stroke-miterlimit:10" /></g></g><path
     d="M 23.073446,14.784969 H 0.92655373 c -0.4350283,0 -0.7909605,-0.345997 -0.7909605,-0.768882 v 0 c 0,-0.422886 0.3559322,-0.768883 0.7909605,-0.768883 H 23.073446 c 0.435028,0 0.790961,0.345997 0.790961,0.768883 v 0 c 0,0.422885 -0.355933,0.768882 -0.790961,0.768882 z"
     id="path30"
     inkscape:connector-curvature="0"
     style="stroke-width:0.38992169" /><path
     d="M 5.2768361,23.627119 H 18.723164 v -4.997737 c 0,-0.422885 -0.355933,-0.768882 -0.790961,-0.768882 H 6.0677965 c -0.4350283,0 -0.7909604,0.345997 -0.7909604,0.768882 z"
     id="path32"
     inkscape:connector-curvature="0"
     style="stroke-width:0.38992169" /><path
     d="m 2.9039548,15.553852 v 8.073267 h 1.5819207 v -5.382178 c 0,-0.65355 0.5141243,-1.153324 1.1864408,-1.153324 H 18.327684 c 0.672316,0 1.186441,0.499774 1.186441,1.153324 v 5.382178 h 1.58192 v -8.073267 z"
     id="path34"
     inkscape:connector-curvature="0"
     style="stroke-width:0.38992169" /><path
     d="m 11.80226,0.56064157 c -1.028249,0.115333 -1.779661,0.99954803 -1.779661,1.99909503 v 0.65355 c 0,0.269109 0.03955,0.5766619 0.118644,0.8457708 l 0.158193,0.6919945 c 0.0791,0.2691089 0.237287,0.5382178 0.474575,0.691994 l 0.711865,0.4613295 c 0.0791,0.038446 0.158192,0.076888 0.237288,0.076888 h 0.553672 c 0.0791,0 0.158193,-0.038446 0.237289,-0.076888 l 0.711864,-0.4613295 c 0.237288,-0.1537762 0.435028,-0.3844412 0.474576,-0.691994 l 0.158193,-0.6919945 c 0.0791,-0.2691089 0.118644,-0.5382178 0.118644,-0.8457708 v -0.730438 c 0,-1.11488 -0.988702,-2.03753903 -2.175142,-1.92220703 z"
     id="path36"
     inkscape:connector-curvature="0"
     style="stroke-width:0.38992169" /><path
     d="M 10.41808,6.7117022 7.7683615,7.5574733 C 7.2146891,7.7496939 6.8192089,8.2110234 6.7005648,8.7492413 L 6.0677965,12.478322 H 17.932203 L 17.299436,8.7876852 C 17.220338,8.2110234 16.785311,7.7496939 16.231639,7.5959173 L 13.581921,6.7117022 12,11.709439 Z"
     id="path38"
     inkscape:connector-curvature="0"
     style="stroke-width:0.38992169" /><polygon
     points="33,21 31,21 30,19 34,19 "
     id="polygon40"
     transform="matrix(0.39548022,0,0,0.38444128,-0.65536717,-0.20824043)" /><path
     d="M 17.299436,8.7876852 C 17.220338,8.2110234 16.785311,7.7496939 16.231639,7.5959173 L 13.581921,6.7117022 12.672317,9.5950119 12.395481,8.2494673 H 11.604519 L 11.327684,9.5950119 10.41808,6.7117022 7.7683615,7.5574733 C 7.2146891,7.7496939 6.8192089,8.2110234 6.7005648,8.7492413 L 6.0677965,12.478322 H 17.932203 Z"
     id="path42"
     inkscape:connector-curvature="0"
     style="stroke-width:0.38992169" /></svg>