<svg width="30" height="17" viewBox="0 0 30 17" fill="none" xmlns="http://www.w3.org/2000/svg">
<path d="M29.2081 0.246948H11.7013C11.2273 0.246948 10.8797 0.617185 10.8797 1.04913V6.8495C11.1325 6.75694 11.4169 6.72608 11.6697 6.72608C11.9541 6.72608 12.2701 6.78779 12.5229 6.88035V1.88216H28.3549V15.2724H12.5229V11.5083L10.8481 12.3413V16.1054C10.8481 16.5682 11.2273 16.9076 11.6697 16.9076H29.1765C29.6505 16.9076 29.9982 16.5373 29.9982 16.1054V1.07998C30.0298 0.617185 29.6505 0.246948 29.2081 0.246948Z" fill="black"/>
<path d="M12.9021 8.57712C12.5545 7.89835 11.7013 7.65153 11.0377 7.99091L8.4464 9.28673C8.4464 9.28673 5.66553 7.46641 5.38113 7.28129C5.09672 7.09617 4.74911 6.91105 4.55951 6.84935C3.61148 6.54082 1.24142 6.32485 0.577803 7.83664C-0.117415 9.441 0.00898867 13.5753 0.00898867 16.5372C0.00898867 16.784 0.166993 17 0.4514 17C1.08342 17 5.15992 17 5.47593 17C5.79194 17 5.88674 16.8457 5.91834 16.5989C5.94994 16.4446 6.23435 13.0817 6.20275 11.6316C6.20275 11.4773 6.20275 11.2922 6.20275 11.1071L7.52998 11.9709C7.75119 12.1252 8.03559 12.2178 8.32 12.2178C8.54121 12.2178 8.76241 12.1561 8.95202 12.0635L12.2701 10.3974C12.9653 10.0581 13.2497 9.22503 12.9021 8.57712Z" fill="black"/>
<path d="M3.48508 5.92378C5.16053 5.92378 6.51876 4.5977 6.51876 2.96189C6.51876 1.32608 5.16053 0 3.48508 0C1.80962 0 0.451401 1.32608 0.451401 2.96189C0.451401 4.5977 1.80962 5.92378 3.48508 5.92378Z" fill="black"/>
<path d="M20.2019 5.52266C20.5179 5.27583 20.3599 4.78218 19.9491 4.75133L18.9063 4.65877C18.7483 4.65877 18.5903 4.53536 18.5271 4.38109L18.1163 3.42465C17.9583 3.05441 17.421 3.05441 17.2946 3.42465L16.8838 4.38109C16.8206 4.53536 16.6626 4.62792 16.5046 4.65877L15.4618 4.75133C15.051 4.78218 14.893 5.27583 15.209 5.52266L15.999 6.20142C16.1254 6.29398 16.1886 6.4791 16.157 6.63336L15.9042 7.62066C15.8094 7.9909 16.2518 8.29943 16.5678 8.11431L17.4526 7.58981C17.6106 7.49725 17.7686 7.49725 17.9267 7.58981L18.8115 8.11431C19.1591 8.33028 19.5699 8.02175 19.4751 7.62066L19.2539 6.63336C19.2223 6.4791 19.2855 6.29398 19.4119 6.20142L20.2019 5.52266Z" fill="black"/>
<path d="M22.0664 5.92376H25.4476C25.7952 5.92376 26.1113 5.64608 26.1113 5.27584C26.1113 4.93646 25.8268 4.62793 25.4476 4.62793H22.0664C21.7187 4.62793 21.4027 4.90561 21.4027 5.27584C21.4343 5.64608 21.7187 5.92376 22.0664 5.92376Z" fill="black"/>
<path d="M22.0664 8.4229H25.4476C25.7952 8.4229 26.1113 8.14523 26.1113 7.77499C26.1113 7.40475 25.8268 7.12708 25.4476 7.12708H22.0664C21.7187 7.12708 21.4027 7.40475 21.4027 7.77499C21.4027 8.14523 21.7187 8.4229 22.0664 8.4229Z" fill="black"/>
<path d="M14.7982 10.274C14.7982 10.6134 15.0826 10.9219 15.4618 10.9219H25.4476C25.7952 10.9219 26.1113 10.6442 26.1113 10.274C26.1113 9.90378 25.8268 9.6261 25.4476 9.6261H15.4302C15.0826 9.6261 14.7982 9.93463 14.7982 10.274Z" fill="black"/>
<path d="M15.4302 13.3902H25.4476C25.7952 13.3902 26.1113 13.1125 26.1113 12.7423C26.1113 12.4029 25.8268 12.0944 25.4476 12.0944H15.4302C15.0826 12.0944 14.7666 12.372 14.7666 12.7423C14.7982 13.1125 15.0826 13.3902 15.4302 13.3902Z" fill="black"/>
</svg>
