<svg width="14" height="14" viewBox="0 0 14 14" fill="none" xmlns="http://www.w3.org/2000/svg">
<path d="M0.799917 0C0.59557 0 0.388445 0.0793588 0.232928 0.234837C-0.0776428 0.545331 -0.0776428 1.05804 0.232928 1.3683L5.86602 7L0.232928 12.6317C-0.0776428 12.9422 -0.0776428 13.4549 0.232928 13.7652C0.383354 13.9156 0.593487 14 0.799917 14C1.00635 14 1.21625 13.9158 1.36691 13.7652L7 8.1337L12.6331 13.7652C12.7835 13.9156 12.9937 14 13.2001 14C13.403 14 13.6067 13.9255 13.7671 13.7652C14.0776 13.4547 14.0776 12.942 13.7671 12.6317L8.13421 7L13.7671 1.3683C14.0776 1.05781 14.0776 0.5451 13.7671 0.234837C13.4565 -0.0754255 12.9437 -0.0756569 12.6333 0.234837L7.00023 5.86653L1.36714 0.234837C1.21185 0.0795901 1.00473 0 0.800149 0H0.799917Z" fill="black"/>
</svg>
