<svg width="24" height="24" viewBox="0 0 24 24" fill="none" xmlns="http://www.w3.org/2000/svg">
<path d="M1.37129 0C1.02098 0 0.665906 0.136044 0.399306 0.402578C-0.133102 0.934854 -0.133102 1.81378 0.399306 2.34566L10.056 12L0.399306 21.6543C-0.133102 22.1866 -0.133102 23.0655 0.399306 23.5974C0.657178 23.8552 1.01741 24 1.37129 24C1.72517 24 2.085 23.8556 2.34327 23.5974L12 13.9435L21.6567 23.5974C21.9146 23.8552 22.2748 24 22.6287 24C22.9766 24 23.3258 23.8723 23.6007 23.5974C24.1331 23.0651 24.1331 22.1862 23.6007 21.6543L13.9444 12L23.6007 2.34566C24.1331 1.81339 24.1331 0.934457 23.6007 0.402578C23.0683 -0.129301 22.1891 -0.129698 21.6571 0.402578L12.0004 10.0569L2.34366 0.402578C2.07746 0.13644 1.72239 0 1.37168 0H1.37129Z" fill="black"/>
</svg>
