<svg width="24" height="24" viewBox="0 0 24 24" fill="none" xmlns="http://www.w3.org/2000/svg">
<path d="M10.2857 7.71429H0.857143C0.629814 7.71429 0.411797 7.62398 0.251051 7.46323C0.0903058 7.30249 0 7.08447 0 6.85714V0.857143C0 0.629814 0.0903058 0.411797 0.251051 0.251051C0.411797 0.0903058 0.629814 0 0.857143 0H10.2857C10.513 0 10.7311 0.0903058 10.8918 0.251051C11.0526 0.411797 11.1429 0.629814 11.1429 0.857143V6.85714C11.1429 7.08447 11.0526 7.30249 10.8918 7.46323C10.7311 7.62398 10.513 7.71429 10.2857 7.71429ZM1.71429 6H9.42857V1.71429H1.71429V6Z" fill="black"/>
<path d="M10.2857 24H0.857143C0.629814 24 0.411797 23.9097 0.251051 23.749C0.0903058 23.5882 0 23.3702 0 23.1429V10.2857C0 10.0584 0.0903058 9.84039 0.251051 9.67964C0.411797 9.51889 0.629814 9.42859 0.857143 9.42859H10.2857C10.513 9.42859 10.7311 9.51889 10.8918 9.67964C11.0526 9.84039 11.1429 10.0584 11.1429 10.2857V23.1429C11.1429 23.3702 11.0526 23.5882 10.8918 23.749C10.7311 23.9097 10.513 24 10.2857 24ZM1.71429 22.2857H9.42857V11.1429H1.71429V22.2857Z" fill="black"/>
<path d="M23.1429 24.0001H13.7143C13.487 24.0001 13.2689 23.9097 13.1082 23.749C12.9474 23.5883 12.8571 23.3702 12.8571 23.1429V17.1429C12.8571 16.9156 12.9474 16.6976 13.1082 16.5368C13.2689 16.3761 13.487 16.2858 13.7143 16.2858H23.1429C23.3702 16.2858 23.5882 16.3761 23.7489 16.5368C23.9097 16.6976 24 16.9156 24 17.1429V23.1429C24 23.3702 23.9097 23.5883 23.7489 23.749C23.5882 23.9097 23.3702 24.0001 23.1429 24.0001ZM14.5714 22.2858H22.2857V18.0001H14.5714V22.2858Z" fill="black"/>
<path d="M23.1429 14.5714H13.7143C13.487 14.5714 13.2689 14.4811 13.1082 14.3204C12.9474 14.1596 12.8571 13.9416 12.8571 13.7143V0.857143C12.8571 0.629814 12.9474 0.411797 13.1082 0.251051C13.2689 0.0903058 13.487 0 13.7143 0H23.1429C23.3702 0 23.5882 0.0903058 23.7489 0.251051C23.9097 0.411797 24 0.629814 24 0.857143V13.7143C24 13.9416 23.9097 14.1596 23.7489 14.3204C23.5882 14.4811 23.3702 14.5714 23.1429 14.5714ZM14.5714 12.8571H22.2857V1.71429H14.5714V12.8571Z" fill="black"/>
</svg>
