<svg xmlns="http://www.w3.org/2000/svg" xmlns:xlink="http://www.w3.org/1999/xlink" version="1.1" x="0px" y="0px" viewBox="0 0 100 125" enable-background="new 0 0 100 100" xml:space="preserve"><polygon points="51.955,40.043 51.958,40.047 51.959,40.047 "/><path d="M82.659,50.584L93.43,36.23c0.813-1.086,1.184-2.387,1.184-3.666c-0.002-1.565-0.551-3.15-1.711-4.341l-0.027-0.027  l-0.043-0.045l0.038,0.04c-1.122-1.143-2.63-1.703-4.121-1.704c-1.327,0-2.679,0.445-3.759,1.38l0.002-0.002l-9.41,8.133  c-0.758,0.658-1.618,1.269-2.338,1.689c-0.357,0.209-0.683,0.371-0.916,0.467c-0.117,0.047-0.211,0.078-0.261,0.09l-0.022,0.006  c-0.807,0-5.999,0-6.839,0c-0.049-0.012-0.224-0.073-0.444-0.19c-0.733-0.376-1.902-1.255-2.838-2.221l-8.141-8.345  c-1.057-1.085-2.472-1.638-3.873-1.637c-1.396-0.002-2.809,0.547-3.865,1.629l-8.193,8.357c-0.695,0.711-1.495,1.373-2.164,1.824  c-0.333,0.226-0.635,0.398-0.847,0.496c-0.101,0.047-0.179,0.075-0.216,0.086c-0.807,0-6.214,0-6.963,0  c-0.059-0.018-0.221-0.076-0.425-0.178c-0.738-0.359-1.949-1.18-2.979-2.088l-9.313-8.162c-1.068-0.936-2.41-1.391-3.732-1.39  c-1.492-0.001-3.002,0.577-4.112,1.741l-0.029,0.03c-1.144,1.208-1.681,2.802-1.685,4.376c0.002,1.277,0.359,2.576,1.151,3.668  l9.657,13.261c0.596,0.818,1.15,1.734,1.535,2.5c0.192,0.382,0.342,0.727,0.432,0.981c0.046,0.127,0.076,0.231,0.09,0.295  l0.011,0.053c0.001,0.864,0.057,3.27,0.125,5.459l0.75,24.002c0.048,1.439,0.568,2.756,1.426,3.755  c0.851,0.993,2.098,1.695,3.517,1.696c1.826,0,12.654,0,14.438,0c1.411-0.002,2.643-0.715,3.475-1.709  c0.839-1,1.347-2.311,1.393-3.742l0.751-24.068c0.068-2.21,0.125-4.669,0.125-5.543l0,0c-0.001-0.029,0.036-0.266,0.122-0.561  c0.253-0.912,0.887-2.447,1.595-3.758l1.242-2.307c0.502-0.934,1.081-1.917,1.597-2.727c0.258-0.406,0.5-0.768,0.703-1.054  c0.165-0.233,0.31-0.415,0.39-0.509c0.067,0.088,0.149,0.197,0.238,0.322c0.588,0.819,1.522,2.293,2.318,3.681l2.082,3.631  c0.396,0.688,0.732,1.454,0.957,2.14c0.229,0.68,0.336,1.305,0.33,1.585l-0.006,0.11c-0.178,0.486-0.45,1.295-0.767,2.266  c-0.323,0.99-0.686,2.131-1.011,3.191l-2.549,8.287c-0.244,0.794-0.438,1.537-0.576,2.186c-0.136,0.657-0.223,1.184-0.227,1.699  c0.006,0.211,0.003,0.414,0.108,0.753c0.06,0.169,0.147,0.394,0.394,0.651c0.122,0.125,0.291,0.252,0.493,0.341  c0.2,0.09,0.431,0.135,0.635,0.134c0.313,0,1.626,0,2.918,0c0.888,0,1.867,0,2.576,0c0.144,0.546,0.265,1.473,0.262,2.5v7  c0.004,1.359,0.339,2.611,0.976,3.627c0.322,0.506,0.725,0.957,1.236,1.303c0.508,0.344,1.145,0.572,1.819,0.57  c1.392,0,10.586,0,12.181,0c0.684,0.001,1.336-0.197,1.885-0.521c0.828-0.488,1.443-1.23,1.865-2.086  c0.42-0.857,0.65-1.846,0.65-2.893v-7c-0.002-1.001,0.103-1.916,0.238-2.48c0.001-0.007,0.003-0.013,0.004-0.02  c0.677,0,1.592,0,2.427,0c1.255,0,2.532,0,2.838,0c0.208,0.001,0.44-0.045,0.644-0.138c0.361-0.163,0.586-0.426,0.705-0.622  c0.181-0.305,0.213-0.508,0.245-0.676c0.026-0.168,0.031-0.305,0.032-0.439c-0.004-0.512-0.09-1.039-0.224-1.697  c-0.136-0.649-0.327-1.395-0.567-2.191l-3.389-11.209c-0.126-0.413-0.199-0.949-0.199-1.531c0-0.748,0.119-1.57,0.337-2.313  C82.006,51.689,82.324,51.025,82.659,50.584z M55.844,53.707L55.844,53.707l0.001-0.004C55.844,53.704,55.844,53.706,55.844,53.707z   M57.686,72.826L57.686,72.826L57.686,72.826L57.686,72.826z M80.26,48.783c-0.615,0.822-1.049,1.788-1.35,2.809  c-0.297,1.021-0.456,2.098-0.457,3.154c0.001,0.822,0.097,1.633,0.327,2.399l3.389,11.209c0.213,0.703,0.38,1.357,0.493,1.896  c-0.405,0-0.85,0-1.294,0c-1.255,0-2.706,0-3.225,0c-0.515-0.002-0.938,0.236-1.177,0.451c-0.219,0.193-0.35,0.382-0.457,0.56  c-0.184,0.312-0.293,0.61-0.391,0.934c-0.279,0.958-0.416,2.175-0.42,3.556v7c0.004,0.803-0.248,1.512-0.566,1.944  c-0.156,0.218-0.324,0.363-0.466,0.446c-0.144,0.082-0.253,0.107-0.368,0.109c-1.148,0-2.934,0-4.537,0v-13  c0-0.828-0.671-1.5-1.5-1.5c-0.828,0-1.5,0.672-1.5,1.5v13c-1.66,0-3.544,0-4.644,0c-0.021-0.002-0.05,0.001-0.147-0.061  c-0.141-0.09-0.388-0.361-0.571-0.798c-0.187-0.433-0.313-1.011-0.313-1.642v-7c-0.002-1.205-0.116-2.295-0.337-3.188  c-0.114-0.45-0.244-0.849-0.477-1.255c-0.121-0.202-0.268-0.416-0.523-0.632c-0.246-0.209-0.664-0.428-1.157-0.426  c-0.546,0-2.052,0-3.344,0c-0.473,0-0.947,0-1.376,0c0.115-0.533,0.283-1.184,0.498-1.883l2.549-8.286  c0.32-1.042,0.678-2.171,0.996-3.144c0.316-0.971,0.596-1.799,0.742-2.193l0.002-0.005c0.143-0.399,0.174-0.756,0.176-1.107  c-0.005-0.804-0.191-1.631-0.48-2.523c-0.293-0.886-0.699-1.814-1.204-2.694l-2.083-3.631c-0.563-0.98-1.176-1.979-1.722-2.816  c-0.273-0.419-0.529-0.797-0.759-1.117c-0.23-0.32-0.421-0.574-0.63-0.803c-0.526-0.582-1.284-0.871-1.981-0.864  c-0.836,0.002-1.626,0.366-2.207,0.984c-0.234,0.251-0.445,0.53-0.693,0.876c-0.728,1.025-1.684,2.588-2.497,4.098l-1.242,2.307  c-0.556,1.034-1.052,2.131-1.421,3.111c-0.186,0.49-0.339,0.951-0.453,1.375c-0.111,0.431-0.195,0.796-0.201,1.25  c0.001,0.78-0.055,3.27-0.123,5.453l-0.752,24.068c-0.021,0.767-0.307,1.455-0.688,1.904c-0.39,0.455-0.809,0.642-1.181,0.641  c-1.425,0-3.766,0-5.757,0v-13c0-0.828-0.671-1.5-1.5-1.5c-0.828,0-1.5,0.672-1.5,1.5v13c-1.969,0-4.26,0-5.682,0  c-0.405,0-0.846-0.197-1.243-0.654c-0.391-0.449-0.679-1.132-0.7-1.891l-0.75-24.002c-0.068-2.184-0.125-4.649-0.125-5.397  c-0.001-0.265-0.038-0.479-0.086-0.692c-0.172-0.723-0.506-1.465-0.948-2.307c-0.443-0.832-0.997-1.725-1.608-2.564l-9.656-13.26  c-0.367-0.502-0.576-1.188-0.576-1.902c-0.003-0.883,0.323-1.756,0.855-2.306l0.031-0.032c0.501-0.528,1.211-0.809,1.939-0.809  c0.644,0,1.27,0.219,1.754,0.645l9.314,8.163c0.895,0.783,1.848,1.483,2.717,2.015c0.436,0.266,0.848,0.488,1.248,0.662  c0.201,0.088,0.4,0.162,0.611,0.223c0.214,0.058,0.438,0.107,0.731,0.109c0.722,0,6.327,0,7.11,0  c0.303-0.002,0.542-0.055,0.767-0.119c0.39-0.117,0.739-0.283,1.106-0.485c1.084-0.608,2.31-1.573,3.422-2.7l8.193-8.36  c0.481-0.49,1.094-0.725,1.723-0.727c0.629,0.001,1.244,0.239,1.727,0.731l8.141,8.344c0.846,0.866,1.777,1.637,2.656,2.224  c0.44,0.293,0.867,0.541,1.291,0.733c0.213,0.096,0.426,0.179,0.653,0.244c0.229,0.063,0.471,0.113,0.769,0.115  c0.826,0,6.152,0,6.947,0c0.283-0.002,0.511-0.047,0.73-0.102c0.744-0.203,1.463-0.581,2.277-1.078  c0.803-0.498,1.65-1.117,2.443-1.803l9.41-8.132l0.002-0.002c0.487-0.425,1.128-0.646,1.792-0.646  c0.745-0.001,1.472,0.283,1.979,0.803l0.035,0.037c0.532,0.537,0.854,1.381,0.851,2.236c0.001,0.698-0.209,1.369-0.584,1.866  L80.26,48.783z"/><path d="M31.262,34.75c6.352,0,11.5-5.148,11.5-11.5s-5.148-11.5-11.5-11.5s-11.5,5.148-11.5,11.5S24.91,34.75,31.262,34.75z   M31.262,14.75c4.688,0,8.5,3.813,8.5,8.5s-3.813,8.5-8.5,8.5c-4.687,0-8.5-3.813-8.5-8.5S26.575,14.75,31.262,14.75z"/><circle cx="31.189" cy="50.892" r="1.5"/><circle cx="31.189" cy="57.892" r="1.5"/><circle cx="68.189" cy="50.892" r="1.5"/><circle cx="68.189" cy="57.892" r="1.5"/><path d="M47.688,21.617c0,0,2.43,1.432,5.523,1.432c0.971,0,2.008-0.141,3.055-0.512c0.169-0.061,0.318-0.141,0.479-0.209  c-0.023,0.305-0.046,0.61-0.046,0.922c0,6.352,5.148,11.5,11.5,11.5s11.5-5.148,11.5-11.5c0-0.332-0.022-0.658-0.05-0.982  c0.203,0.09,0.394,0.193,0.609,0.27c1.048,0.371,2.084,0.512,3.056,0.512c3.093,0,5.523-1.432,5.523-1.432  c0.474-0.279,0.704-0.93,0.512-1.445c0,0-1.702-4.564-6.084-6.117c-1.047-0.371-2.082-0.512-3.054-0.512  c-1.909,0-3.564,0.546-4.553,0.965c-2.01-1.717-4.611-2.758-7.46-2.758c-2.829,0-5.417,1.026-7.42,2.721  c-0.997-0.412-2.61-0.928-4.466-0.928c-0.971,0-2.006,0.141-3.053,0.512c-4.383,1.553-6.085,6.117-6.085,6.117  C46.982,20.688,47.213,21.338,47.688,21.617z M80.212,16.543c0.725,0,1.414,0.113,2.051,0.34c1.61,0.57,2.731,1.799,3.421,2.804  c-0.666,0.197-1.488,0.362-2.37,0.362c-0.726,0-1.417-0.113-2.054-0.34c-1.609-0.57-2.731-1.799-3.42-2.803  C78.506,16.709,79.328,16.543,80.212,16.543z M68.198,14.75c4.687,0,8.5,3.813,8.5,8.5s-3.813,8.5-8.5,8.5s-8.5-3.813-8.5-8.5  S63.512,14.75,68.198,14.75z M54.262,16.883c0.637-0.227,1.326-0.34,2.051-0.34c0.855,0,1.652,0.156,2.308,0.347  c-0.112,0.169-0.213,0.345-0.315,0.521c-0.699,0.884-1.7,1.824-3.041,2.299c-0.637,0.227-1.327,0.34-2.053,0.34  c-0.882,0-1.703-0.165-2.369-0.362C51.531,18.68,52.652,17.452,54.262,16.883z"/><text x="0" y="115" fill="#000000" font-size="5px" font-weight="bold" font-family="'Helvetica Neue', Helvetica, Arial-Unicode, Arial, Sans-serif">Created by Tomas Knopp</text><text x="0" y="120" fill="#000000" font-size="5px" font-weight="bold" font-family="'Helvetica Neue', Helvetica, Arial-Unicode, Arial, Sans-serif">from the Noun Project</text></svg>