<svg width="24" height="24" viewBox="0 0 24 24" fill="none" xmlns="http://www.w3.org/2000/svg">
<path d="M6.64421 2H0.909474C0.404211 2 0 2.42497 0 2.95617V8.98539C0 9.5166 0.404211 9.94156 0.909474 9.94156H6.64421C7.14947 9.94156 7.55369 9.5166 7.55369 8.98539V2.98274C7.57895 2.45153 7.14947 2 6.64421 2ZM5.73474 8.02921H1.84421V3.93891H5.73474V8.02921V8.02921Z" fill="black"/>
<path d="M11.52 3.93847H23.0905C23.5958 3.93847 24 3.51351 24 2.9823C24 2.45109 23.5958 2.02612 23.0905 2.02612H11.52C11.0147 2.02612 10.6105 2.45109 10.6105 2.9823C10.6105 3.51351 11.0147 3.93847 11.52 3.93847Z" fill="black"/>
<path d="M11.52 9.96809H19.9074C20.4126 9.96809 20.8168 9.54312 20.8168 9.01191C20.8168 8.4807 20.4126 8.02917 19.9074 8.02917H11.52C11.0147 8.02917 10.6105 8.45414 10.6105 8.98535C10.6105 9.51656 11.0147 9.96809 11.52 9.96809Z" fill="black"/>
<path d="M6.64421 14.0585H0.909474C0.404211 14.0585 0 14.4834 0 15.0146V21.0439C0 21.5751 0.404211 22 0.909474 22H6.64421C7.14947 22 7.55369 21.5751 7.55369 21.0439V15.0146C7.57895 14.4834 7.14947 14.0585 6.64421 14.0585ZM5.73474 20.0877H1.84421V15.9974H5.73474V20.0877V20.0877Z" fill="black"/>
<path d="M23.0905 14.0585H11.52C11.0147 14.0585 10.6105 14.4834 10.6105 15.0146C10.6105 15.5459 11.0147 15.9708 11.52 15.9708H23.0905C23.5958 15.9708 24 15.5459 24 15.0146C24 14.4834 23.5958 14.0585 23.0905 14.0585Z" fill="black"/>
<path d="M19.9074 20.0876H11.52C11.0147 20.0876 10.6105 20.5126 10.6105 21.0438C10.6105 21.575 11.0147 22 11.52 22H19.9074C20.4126 22 20.8168 21.575 20.8168 21.0438C20.8168 20.5126 20.4126 20.0876 19.9074 20.0876Z" fill="black"/>
</svg>
