<svg width="24" height="20" viewBox="0 0 24 20" fill="none" xmlns="http://www.w3.org/2000/svg">
<path d="M6.64421 0H0.909474C0.404211 0 0 0.424966 0 0.956175V6.98539C0 7.5166 0.404211 7.94156 0.909474 7.94156H6.64421C7.14947 7.94156 7.55369 7.5166 7.55369 6.98539V0.982735C7.57895 0.451527 7.14947 0 6.64421 0ZM5.73474 6.02921H1.84421V1.93891H5.73474V6.02921V6.02921Z" fill="black"/>
<path d="M11.52 1.93847H23.0905C23.5958 1.93847 24 1.51351 24 0.982298C24 0.45109 23.5958 0.026123 23.0905 0.026123H11.52C11.0147 0.026123 10.6105 0.45109 10.6105 0.982298C10.6105 1.51351 11.0147 1.93847 11.52 1.93847Z" fill="black"/>
<path d="M11.52 7.96809H19.9074C20.4126 7.96809 20.8168 7.54312 20.8168 7.01191C20.8168 6.4807 20.4126 6.02917 19.9074 6.02917H11.52C11.0147 6.02917 10.6105 6.45414 10.6105 6.98535C10.6105 7.51656 11.0147 7.96809 11.52 7.96809Z" fill="black"/>
<path d="M6.64421 12.0585H0.909474C0.404211 12.0585 0 12.4834 0 13.0146V19.0439C0 19.5751 0.404211 20 0.909474 20H6.64421C7.14947 20 7.55369 19.5751 7.55369 19.0439V13.0146C7.57895 12.4834 7.14947 12.0585 6.64421 12.0585ZM5.73474 18.0877H1.84421V13.9974H5.73474V18.0877V18.0877Z" fill="black"/>
<path d="M23.0905 12.0585H11.52C11.0147 12.0585 10.6105 12.4834 10.6105 13.0146C10.6105 13.5459 11.0147 13.9708 11.52 13.9708H23.0905C23.5958 13.9708 24 13.5459 24 13.0146C24 12.4834 23.5958 12.0585 23.0905 12.0585Z" fill="black"/>
<path d="M19.9074 18.0876H11.52C11.0147 18.0876 10.6105 18.5126 10.6105 19.0438C10.6105 19.575 11.0147 20 11.52 20H19.9074C20.4126 20 20.8168 19.575 20.8168 19.0438C20.8168 18.5126 20.4126 18.0876 19.9074 18.0876Z" fill="black"/>
</svg>
