<svg width="26" height="26" viewBox="0 0 26 26" fill="none" xmlns="http://www.w3.org/2000/svg">
<path d="M20.3801 10.627C20.5087 10.7547 20.6709 10.8155 20.8331 10.8155C21.0177 10.8155 21.1967 10.7364 21.3309 10.5783L24.821 6.4014C24.8266 6.39532 24.8266 6.39532 24.8322 6.38924C24.8378 6.38316 24.8434 6.371 24.8546 6.36492C24.8602 6.35276 24.8658 6.34668 24.8714 6.33452C24.877 6.32236 24.8825 6.31628 24.8881 6.30412C24.8937 6.29196 24.8993 6.28588 24.9049 6.27372C24.9105 6.26156 24.9161 6.25548 24.9217 6.24332C24.9273 6.23116 24.9329 6.22508 24.9385 6.21292C24.9441 6.20076 24.9497 6.19468 24.9497 6.18252C24.9553 6.17036 24.9553 6.1582 24.9608 6.15212C24.9664 6.13996 24.9664 6.1278 24.972 6.12172C24.9776 6.10956 24.9776 6.0974 24.9776 6.08524C24.9776 6.07308 24.9832 6.06092 24.9832 6.05484C24.9832 6.04268 24.9888 6.03052 24.9888 6.01228C24.9888 6.00012 24.9888 5.99404 24.9944 5.98188C24.9944 5.95756 25 5.93932 25 5.915C25 5.89068 25 5.87244 24.9944 5.84812C24.9944 5.83596 24.9944 5.82988 24.9888 5.81772C24.9888 5.80556 24.9832 5.7934 24.9832 5.77516C24.9832 5.763 24.9776 5.75084 24.9776 5.74476C24.9776 5.7326 24.972 5.72044 24.972 5.70828C24.9664 5.69612 24.9664 5.68396 24.9608 5.67788C24.9553 5.66572 24.9553 5.65356 24.9497 5.64748C24.9441 5.63532 24.9441 5.62924 24.9385 5.61708C24.9329 5.60492 24.9273 5.59276 24.9217 5.58668C24.9161 5.57452 24.9105 5.56844 24.9049 5.55628C24.8993 5.54412 24.8937 5.53804 24.8881 5.52588C24.8825 5.51372 24.877 5.50764 24.8714 5.49548C24.8658 5.48332 24.8602 5.47724 24.8546 5.46508C24.849 5.45292 24.8434 5.44684 24.8322 5.44076C24.8266 5.43468 24.8266 5.4286 24.821 5.4286L21.3309 1.23951C21.0792 0.941593 20.6598 0.917273 20.3801 1.19087C20.106 1.46447 20.0837 1.91439 20.3354 2.2123L22.8075 5.15501H18.3554C17.4213 5.15501 16.56 5.62316 15.9839 6.41964L12.0967 11.8126L8.20951 6.41964C7.62783 5.62316 6.76089 5.15501 5.83244 5.15501H1.67117C1.30203 5.15501 1 5.48332 1 5.8846C1 6.28588 1.30203 6.6142 1.67117 6.6142H5.83244C6.34701 6.6142 6.82801 6.88172 7.14682 7.31947L11.241 12.9921L7.14682 18.6708C6.82801 19.1146 6.34701 19.3821 5.83244 19.3821H1.67117C1.30203 19.3821 1 19.7104 1 20.1117C1 20.513 1.30203 20.8413 1.67117 20.8413H5.83244C6.76649 20.8413 7.62783 20.3732 8.20392 19.5767L12.0911 14.1837L15.9783 19.5767C16.5544 20.3732 17.4213 20.8413 18.3498 20.8413H22.8019L20.3298 23.784C20.0781 24.0819 20.1004 24.5379 20.3745 24.8115C20.5031 24.9392 20.6653 25 20.8275 25C21.0121 25 21.1911 24.921 21.3253 24.7568L24.8154 20.5799C24.821 20.5738 24.821 20.5677 24.8266 20.5677C24.8322 20.5616 24.8378 20.5495 24.849 20.5434C24.8546 20.5312 24.8602 20.5251 24.8658 20.513C24.8714 20.5008 24.877 20.4947 24.8825 20.4826C24.8881 20.4704 24.8937 20.4643 24.8993 20.4522C24.9049 20.44 24.9105 20.4339 24.9161 20.4218C24.9217 20.4096 24.9273 20.4035 24.9329 20.3914C24.9385 20.3792 24.9441 20.3732 24.9441 20.361C24.9497 20.3488 24.9497 20.3367 24.9553 20.3306C24.9608 20.3184 24.9608 20.3063 24.9664 20.3002C24.972 20.288 24.972 20.2759 24.972 20.2637C24.972 20.2516 24.9776 20.2394 24.9776 20.2333C24.9776 20.2212 24.9832 20.209 24.9832 20.1908C24.9832 20.1786 24.9832 20.1725 24.9888 20.1604C24.9888 20.136 24.9944 20.1178 24.9944 20.0935C24.9944 20.0692 24.9944 20.0509 24.9888 20.0266C24.9888 20.0144 24.9888 20.0084 24.9832 19.9962C24.9832 19.984 24.9776 19.9719 24.9776 19.9536C24.9776 19.9415 24.972 19.9293 24.972 19.9232C24.972 19.9111 24.9664 19.8989 24.9664 19.8868C24.9608 19.8746 24.9608 19.8624 24.9553 19.8564C24.9497 19.8442 24.9497 19.832 24.9441 19.826C24.9385 19.8138 24.9385 19.8077 24.9329 19.7956C24.9273 19.7834 24.9217 19.7712 24.9161 19.7652C24.9105 19.753 24.9049 19.7469 24.8993 19.7348C24.8937 19.7226 24.8881 19.7165 24.8825 19.7044C24.877 19.6922 24.8714 19.6861 24.8658 19.674C24.8602 19.6618 24.8546 19.6557 24.849 19.6436C24.8434 19.6314 24.8378 19.6253 24.8266 19.6192C24.821 19.6132 24.821 19.6071 24.8154 19.6071L21.3309 15.4241C21.0792 15.1261 20.6598 15.1018 20.3801 15.3754C20.106 15.649 20.0837 16.1172 20.3354 16.4151L22.8075 19.3821H18.3554C17.8408 19.3821 17.3598 19.1146 17.041 18.6768L12.9469 13.0042L17.041 7.32555C17.3598 6.88171 17.8408 6.6142 18.3554 6.6142H22.8075L20.3354 9.58122C20.0837 9.87914 20.106 10.3534 20.3801 10.627Z" fill="black" stroke="black" stroke-width="0.2"/>
</svg>
