<svg width="24" height="24" viewBox="0 0 24 24" fill="none" xmlns="http://www.w3.org/2000/svg">
<path d="M23.5884 21.5611L18.6417 16.5337C18.6063 16.4977 18.5658 16.4703 18.527 16.4389C21.3968 12.3783 21.0465 6.69371 17.4548 3.04343C15.4583 1.01429 12.8416 0 10.2248 0C7.60811 0 4.99139 1.01429 2.99483 3.04343C-0.998278 7.10171 -0.998278 13.6811 2.99483 17.7394C4.99139 19.7686 7.60811 20.7829 10.2248 20.7829C12.4885 20.7829 14.7498 20.02 16.612 18.5017C16.6266 18.5183 16.6379 18.5371 16.6536 18.5531L21.6003 23.5806C21.8747 23.8606 22.2345 24 22.5944 24C22.9542 24 23.3141 23.8606 23.5884 23.5817C24.1372 23.0234 24.1372 22.1189 23.5884 21.5611ZM10.2248 17.9263C8.24458 17.9263 6.38296 17.1423 4.98239 15.7194C2.09186 12.7817 2.09186 8.00171 4.98239 5.064C6.3824 3.64114 8.24458 2.85714 10.2248 2.85714C12.2051 2.85714 14.0667 3.64114 15.4673 5.064C18.3578 8.00171 18.3578 12.7817 15.4673 15.7194C14.0667 17.1423 12.2051 17.9263 10.2248 17.9263Z" fill="black"/>
</svg>
