<svg width="24" height="25" viewBox="0 0 24 25" fill="none" xmlns="http://www.w3.org/2000/svg">
<path d="M23.9722 9.15197C23.9052 8.93434 23.7261 8.77566 23.5107 8.74281L15.9113 7.5834L12.5123 0.35269C12.3193 -0.0573421 11.6809 -0.0573421 11.4878 0.35269L8.08878 7.5834L0.489427 8.74281C0.274024 8.77566 0.0948944 8.93434 0.02793 9.15197C-0.0390345 9.3693 0.0167692 9.60805 0.17302 9.7676L5.67192 15.396L4.37393 23.3427C4.33709 23.5682 4.42527 23.7958 4.60105 23.9304C4.77683 24.0651 5.01065 24.0824 5.20261 23.9762L12.0001 20.2237L18.7975 23.9762C18.8812 24.0222 18.9722 24.0451 19.0631 24.0451C19.1814 24.0451 19.2998 24.0064 19.3991 23.9304C19.5749 23.7958 19.663 23.5682 19.6262 23.3427L18.3282 15.396L23.8271 9.7676C23.9834 9.60805 24.0392 9.3693 23.9722 9.15197Z" fill="black"/>
</svg>
