<svg width="24" height="25" viewBox="0 0 24 25" fill="none" xmlns="http://www.w3.org/2000/svg">
<path d="M23.9722 9.12896C23.9052 8.91134 23.7261 8.75267 23.5107 8.71982L15.9113 7.56042L12.5123 0.329798C12.3193 -0.080229 11.6809 -0.080229 11.4878 0.329798L8.08878 7.56042L0.489427 8.71982C0.274024 8.75267 0.0948944 8.91134 0.02793 9.12896C-0.0390345 9.3463 0.0167692 9.58504 0.17302 9.74459L5.67192 15.3729L4.37393 23.3195C4.33709 23.545 4.42527 23.7726 4.60105 23.9073C4.77683 24.0419 5.01065 24.0592 5.20261 23.953L12.0001 20.2006L18.7975 23.953C18.8812 23.9991 18.9722 24.0219 19.0631 24.0219C19.0671 24.0225 19.0715 24.0222 19.0743 24.0219C19.3902 24.0219 19.6457 23.753 19.6457 23.4213C19.6457 23.3447 19.6323 23.2714 19.6072 23.2039L18.3282 15.3729L23.8271 9.74459C23.9834 9.58504 24.0392 9.3463 23.9722 9.12896ZM17.3159 14.7327C17.1809 14.8705 17.1195 15.0697 17.1513 15.2647L18.3042 22.3238L12.2657 18.9904C12.1825 18.9444 12.0916 18.9215 12.0001 18.9215C11.9085 18.9215 11.8176 18.9444 11.7344 18.9904L5.69592 22.3238L6.84882 15.2647C6.88063 15.0697 6.81925 14.8705 6.6842 14.7327L1.80026 9.73374L8.55028 8.70398C8.73666 8.67553 8.89738 8.55264 8.98052 8.37549L12.0001 1.95172L15.0196 8.37549C15.1028 8.55264 15.2635 8.67553 15.4499 8.70398L22.1999 9.73374L17.3159 14.7327Z" fill="black"/>
</svg>
