<svg width="24" height="24" viewBox="0 0 24 24" fill="none" xmlns="http://www.w3.org/2000/svg">
<path d="M23.3665 6.18884H9.36103C8.98182 6.18884 8.70373 6.47196 8.70373 6.80227V11.2379C8.90598 11.1671 9.1335 11.1435 9.33575 11.1435C9.56327 11.1435 9.81608 11.1907 10.0183 11.2614V7.4393H22.6839V17.6789H10.0183V14.8005L8.67845 15.4375V18.3159C8.67845 18.6698 8.98182 18.9293 9.33575 18.9293H23.3412C23.7204 18.9293 23.9985 18.6462 23.9985 18.3159V6.82587C24.0238 6.47196 23.7204 6.18884 23.3665 6.18884Z" fill="black"/>
<path d="M10.3217 12.5589C10.0436 12.0399 9.36103 11.8511 8.83014 12.1106L6.75712 13.1016C6.75712 13.1016 4.53243 11.7096 4.3049 11.568C4.07738 11.4264 3.79929 11.2849 3.6476 11.2377C2.88918 11.0018 0.993136 10.8366 0.462243 11.9927C-0.0939316 13.2195 0.00719093 16.3811 0.00719093 18.646C0.00719093 18.8348 0.133594 18.9999 0.36112 18.9999C0.866733 18.9999 4.12794 18.9999 4.38074 18.9999C4.63355 18.9999 4.70939 18.882 4.73467 18.6932C4.75995 18.5753 4.98748 16.0036 4.9622 14.8947C4.9622 14.7767 4.9622 14.6351 4.9622 14.4936L6.02399 15.1542C6.20095 15.2722 6.42848 15.343 6.656 15.343C6.83297 15.343 7.00993 15.2958 7.16161 15.225L9.81608 13.9509C10.3723 13.6914 10.5998 13.0544 10.3217 12.5589Z" fill="black"/>
<path d="M2.78806 10.53C4.12843 10.53 5.21501 9.51589 5.21501 8.26497C5.21501 7.01406 4.12843 6 2.78806 6C1.4477 6 0.36112 7.01406 0.36112 8.26497C0.36112 9.51589 1.4477 10.53 2.78806 10.53Z" fill="black"/>
<path d="M16.1615 10.2232C16.4143 10.0344 16.2879 9.65695 15.9593 9.63336L15.125 9.56258C14.9986 9.56258 14.8722 9.4682 14.8217 9.35023L14.493 8.61884C14.3666 8.33571 13.9368 8.33571 13.8357 8.61884L13.5071 9.35023C13.4565 9.4682 13.3301 9.53898 13.2037 9.56258L12.3694 9.63336C12.0408 9.65695 11.9144 10.0344 12.1672 10.2232L12.7992 10.7422C12.9003 10.813 12.9509 10.9546 12.9256 11.0726L12.7234 11.8276C12.6475 12.1107 13.0014 12.3466 13.2543 12.205L13.9621 11.804C14.0885 11.7332 14.2149 11.7332 14.3413 11.804L15.0492 12.205C15.3273 12.3702 15.6559 12.1343 15.5801 11.8276L15.4031 11.0726C15.3778 10.9546 15.4284 10.813 15.5295 10.7422L16.1615 10.2232Z" fill="black"/>
<path d="M17.6531 10.53H20.3581C20.6362 10.53 20.889 10.3176 20.889 10.0345C20.889 9.775 20.6615 9.53906 20.3581 9.53906H17.6531C17.375 9.53906 17.1222 9.7514 17.1222 10.0345C17.1475 10.3176 17.375 10.53 17.6531 10.53Z" fill="black"/>
<path d="M17.6531 12.441H20.3581C20.6362 12.441 20.889 12.2287 20.889 11.9455C20.889 11.6624 20.6615 11.4501 20.3581 11.4501H17.6531C17.375 11.4501 17.1222 11.6624 17.1222 11.9455C17.1222 12.2287 17.375 12.441 17.6531 12.441Z" fill="black"/>
<path d="M11.8385 13.8565C11.8385 14.1161 12.0661 14.352 12.3694 14.352H20.3581C20.6362 14.352 20.889 14.1397 20.889 13.8565C20.889 13.5734 20.6615 13.3611 20.3581 13.3611H12.3441C12.0661 13.3611 11.8385 13.597 11.8385 13.8565Z" fill="black"/>
<path d="M12.3441 16.2396H20.3581C20.6362 16.2396 20.889 16.0272 20.889 15.7441C20.889 15.4846 20.6615 15.2487 20.3581 15.2487H12.3441C12.0661 15.2487 11.8133 15.461 11.8133 15.7441C11.8385 16.0272 12.0661 16.2396 12.3441 16.2396Z" fill="black"/>
</svg>
