<svg width="24" height="24" viewBox="0 0 24 24" fill="none" xmlns="http://www.w3.org/2000/svg">
<path fill-rule="evenodd" clip-rule="evenodd" d="M22.7281 22.6175C22.0369 22.6175 21.4562 22.0369 21.4562 21.3456V19.3825C19.2166 22.2581 15.7327 24 12 24C5.97235 24 0.857143 19.4931 0.110599 13.4931L0.0276497 12.8848H2.57143L2.62673 13.3548C3.31797 17.9724 7.32719 21.4562 12 21.4562C15.318 21.4562 18.4147 19.659 20.129 16.8387H16.9493C16.2581 16.8387 15.6774 16.2581 15.6774 15.5668C15.6774 14.8756 16.2581 14.2949 16.9493 14.2949H22.7558C23.3641 14.2949 24 14.682 24 15.5668V21.3456C24 22.0369 23.4194 22.6175 22.7281 22.6175ZM21.4286 11.1152L21.3733 10.6452C20.682 6.02765 16.6728 2.54378 12 2.54378C8.68203 2.54378 5.58525 4.34101 3.87097 7.16129H7.02304C7.71429 7.16129 8.29493 7.74193 8.29493 8.43318C8.29493 9.12442 7.71429 9.70507 7.02304 9.70507H1.27189C0.746544 9.67742 0 9.34562 0 8.43318V2.65438C0 1.96313 0.580645 1.38249 1.27189 1.38249C1.96313 1.38249 2.54378 1.96313 2.54378 2.65438V4.61751C4.78341 1.74194 8.26728 0 12 0C18.0276 0 23.1429 4.50691 23.8894 10.5069L23.9724 11.1152H21.4286V11.1152Z" fill="black"/>
</svg>
