<?xml version="1.0" encoding="windows-1252"?>
<!-- Generator: Adobe Illustrator 16.0.0, SVG Export Plug-In . SVG Version: 6.00 Build 0)  -->
<!DOCTYPE svg PUBLIC "-//W3C//DTD SVG 1.1//EN" "http://www.w3.org/Graphics/SVG/1.1/DTD/svg11.dtd">
<svg version="1.1" id="Capa_1" xmlns="http://www.w3.org/2000/svg" xmlns:xlink="http://www.w3.org/1999/xlink" x="0px" y="0px" width="45.958px" height="45.958px" viewBox="0 0 45.958 45.958" style="enable-background:new 0 0 45.958 45.958;" xml:space="preserve">
<g>
	<path d="M22.979,0C10.288,0,0,10.289,0,22.979s10.288,22.979,22.979,22.979c12.69,0,22.979-10.289,22.979-22.979S35.67,0,22.979,0z    M32.253,26.977h-5.301v5.289c0,2.207-1.765,3.996-3.972,3.996c-2.206,0-3.971-1.789-3.971-3.996v-5.291H13.71   c-2.207,0-4.006-1.789-4.006-3.997c0-2.207,1.796-3.996,4.003-3.996h5.302v-5.289c0-2.208,1.765-3.997,3.971-3.997   c2.208,0,3.972,1.789,3.972,3.997v5.29h5.301c2.207,0,3.997,1.79,3.997,3.997C36.25,25.188,34.46,26.977,32.253,26.977z"/>
</g>
<g>
</g>
<g>
</g>
<g>
</g>
<g>
</g>
<g>
</g>
<g>
</g>
<g>
</g>
<g>
</g>
<g>
</g>
<g>
</g>
<g>
</g>
<g>
</g>
<g>
</g>
<g>
</g>
<g>
</g>
</svg>