<?xml version="1.0" encoding="UTF-8" standalone="no"?>
<!-- Generator: Adobe Illustrator 18.1.1, SVG Export Plug-In . SVG Version: 6.00 Build 0)  -->
<svg xmlns:dc="http://purl.org/dc/elements/1.1/" xmlns:cc="http://creativecommons.org/ns#" xmlns:rdf="http://www.w3.org/1999/02/22-rdf-syntax-ns#" xmlns:svg="http://www.w3.org/2000/svg" xmlns="http://www.w3.org/2000/svg" xmlns:sodipodi="http://sodipodi.sourceforge.net/DTD/sodipodi-0.dtd" xmlns:inkscape="http://www.inkscape.org/namespaces/inkscape" version="1.1" id="Capa_1" x="0px" y="0px" viewBox="0 0 612 612" style="enable-background:new 0 0 612 612;" xml:space="preserve" inkscape:version="0.91 r13725" sodipodi:docname="delete-simple.svg"><metadata id="metadata43"><rdf:RDF><cc:Work rdf:about=""><dc:format>image/svg+xml</dc:format><dc:type rdf:resource="http://purl.org/dc/dcmitype/StillImage"/></cc:Work></rdf:RDF></metadata><defs id="defs41"/><sodipodi:namedview pagecolor="#ffffff" bordercolor="#666666" borderopacity="1" objecttolerance="10" gridtolerance="10" guidetolerance="10" inkscape:pageopacity="0" inkscape:pageshadow="2" inkscape:window-width="1920" inkscape:window-height="1017" id="namedview39" showgrid="false" inkscape:zoom="1.0907007" inkscape:cx="295.03408" inkscape:cy="330.85448" inkscape:window-x="-8" inkscape:window-y="-8" inkscape:window-maximized="1" inkscape:current-layer="Capa_1"/><g id="g5" transform="matrix(0.99788135,0,0,0.99788135,1.7304012,0.92372847)"><path inkscape:connector-curvature="0" id="path7" d="M 587.826,186.966 C 571.71,149.634 549.882,117.198 522.342,89.658 494.802,62.118 462.366,40.29 425.034,24.174 387.702,8.058 348.024,0 306,0 277.848,0 250.716,3.672 224.604,11.016 198.492,18.36 174.114,28.662 151.47,41.922 128.826,55.182 108.222,71.094 89.658,89.658 71.094,108.222 55.182,128.826 41.922,151.47 28.662,174.116 18.36,198.492 11.016,224.604 3.672,250.716 0,277.848 0,306 c 0,28.152 3.672,55.284 11.016,81.396 7.344,26.11 17.646,50.487 30.906,73.134 13.26,22.644 29.172,43.249 47.736,61.812 18.564,18.564 39.168,34.478 61.812,47.736 22.644,13.26 47.022,23.561 73.134,30.906 C 250.716,608.328 277.848,612 306,612 c 28.152,0 55.284,-3.672 81.396,-11.016 26.111,-7.346 50.488,-17.646 73.135,-30.906 22.644,-13.259 43.249,-29.172 61.812,-47.736 18.564,-18.563 34.478,-39.168 47.736,-61.812 13.26,-22.646 23.561,-47.023 30.906,-73.135 C 608.328,361.284 612,334.152 612,306 612,263.976 603.942,224.298 587.826,186.966 Z M 468.18,391.68 c 2.04,2.04 3.063,4.284 3.063,6.732 0,2.448 -1.021,4.488 -3.063,6.12 l -59.976,60.588 c -1.631,1.632 -3.876,2.448 -6.732,2.448 -2.854,0 -4.895,-0.816 -6.12,-2.448 L 309.06,378.828 223.38,465.12 c -2.448,1.632 -4.692,2.448 -6.732,2.448 -1.632,0 -3.672,-0.816 -6.12,-2.448 l -59.976,-60.588 c -2.04,-1.226 -3.06,-3.267 -3.06,-6.12 0,-2.448 1.02,-4.692 3.06,-6.732 l 85.68,-85.68 -85.68,-85.68 c -2.04,-2.04 -3.06,-4.284 -3.06,-6.732 0,-2.856 1.02,-4.896 3.06,-6.12 l 59.976,-60.588 c 1.632,-1.632 3.672,-2.448 6.12,-2.448 2.448,0 4.692,0.816 6.732,2.448 l 85.68,86.292 86.292,-86.292 c 1.635,-1.632 3.675,-2.448 6.12,-2.448 2.448,0 4.692,0.816 6.732,2.448 l 59.976,60.588 c 2.04,1.632 3.063,3.672 3.063,6.12 0,2.448 -1.021,4.692 -3.063,6.732 L 382.5,306 l 85.68,85.68 z" style="fill:#010002"/></g><g id="g9"/><g id="g11"/><g id="g13"/><g id="g15"/><g id="g17"/><g id="g19"/><g id="g21"/><g id="g23"/><g id="g25"/><g id="g27"/><g id="g29"/><g id="g31"/><g id="g33"/><g id="g35"/><g id="g37"/></svg>